<?xml version="1.0" encoding="UTF-8" standalone="no"?>
<!-- Created with Inkscape (http://www.inkscape.org/) -->

<svg
   width="42.427097"
   height="36.917683"
   viewBox="0 0 42.427099 36.917685"
   version="1.1"
   id="svg5578"
   inkscape:version="1.2.2 (b0a8486541, 2022-12-01)"
   sodipodi:docname="bear.svg"
   xmlns:inkscape="http://www.inkscape.org/namespaces/inkscape"
   xmlns:sodipodi="http://sodipodi.sourceforge.net/DTD/sodipodi-0.dtd"
   xmlns="http://www.w3.org/2000/svg"
   xmlns:svg="http://www.w3.org/2000/svg">
  <sodipodi:namedview
     id="namedview5580"
     pagecolor="#ffffff"
     bordercolor="#000000"
     borderopacity="0.25"
     inkscape:showpageshadow="2"
     inkscape:pageopacity="0.0"
     inkscape:pagecheckerboard="0"
     inkscape:deskcolor="#d1d1d1"
     inkscape:document-units="mm"
     showgrid="false"
     inkscape:zoom="5.0734652"
     inkscape:cx="-50.162954"
     inkscape:cy="25.130753"
     inkscape:window-width="1803"
     inkscape:window-height="1117"
     inkscape:window-x="0"
     inkscape:window-y="0"
     inkscape:window-maximized="1"
     inkscape:current-layer="layer1" />
  <defs
     id="defs5575" />
  <g
     inkscape:label="Layer 1"
     inkscape:groupmode="layer"
     id="layer1">
    <path
       stroke="none"
       fill="#6d4526"
       d="m 1.5087601,10.313853 -0.25135,-0.17198 -0.0265,-0.0132 Q 0.22549011,9.427533 0.05351011,7.826803 v 0.0661 l -0.052899999,-0.635 v -0.0132 Q -0.02588989,5.392623 1.0986301,3.474393 q 1.12448,-1.95792 2.75166,-2.85749997 l 0.0132,-0.0132 q 1.77271,-0.97896 3.06917,-0.37042 l 0.10583,0.0529 0.58209,0.33073 Q 9.9886001,1.979503 11.3512,3.844823 q 4.32594,-2.91041997 9.85573,-2.91041997 5.54302,0 9.86896,2.91041997 1.34937,-1.86532 3.73062,-3.22791997 h 0.0132 q 0.27781,-0.17198 0.58209,-0.33073 l 0.10583,-0.0529 q 1.28323,-0.60854 3.06917,0.37042 l 0.0132,0.0132 Q 40.20396,1.516473 41.34167,3.474393 h -0.0132 q 1.12448,1.91823 1.09802,3.77031 v 0.0132 l -0.0265,0.58209 q -0.19843,1.5875 -1.20385,2.28864 l -0.0132,0.0132 -0.25135,0.17198 -0.0661,0.0397 -0.29104,0.15875 -0.0265,0.0132 q -1.40229,0.8202 -2.77812,1.24354 1.42875,3.29406 1.42875,7.15698 v 0.52916 0.0265 q -0.11907,4.19365 -1.93146,7.67292 -1.25677,2.42094 -3.33375,4.48469 l -0.635,0.59531 -1.08479,0.93927 q -4.73605,3.74385 -11.00667,3.74385 -6.27063,0 -10.99344,-3.74385 h -0.0132 l -1.0847899,-0.93927 -0.62177,-0.59531 q -5.08,-5.05355 -5.26521,-12.13115 l -0.0132,-0.58208 q 0,-3.87615 1.44198,-7.17021 -1.37583,-0.42333 -2.76489,-1.21708 l -0.0397,-0.0265 -0.29104,-0.15875 -0.0529,-0.0397"
       id="path420"
       inkscape:export-filename="bear.svg"
       inkscape:export-xdpi="96"
       inkscape:export-ydpi="96"
       style="stroke-width:0.264583" />
    <path
       stroke="none"
       fill="#8e5a32"
       d="m 8.9964701,7.191773 q -0.87313,-0.8599 -2.06375,-1.56105 l -0.46302,-0.25135 q -0.74084,-0.30427 -1.78594,0.25135 -1.13771,0.66146 -1.93146,2.05053 -0.51594,0.87312 -0.68791,1.73302 l -0.19844,-0.1323 q -0.64823,-0.48947 -0.76729,-1.57427 0.13229,-1.30968 0.91281,-2.64583 0.96573,-1.6801 2.35479,-2.47385 1.25677,-0.68792 2.15635,-0.3175 l 0.56886,0.3175 q 2.26219,1.30968 3.5189599,3.10885 -0.7011499,0.56885 -1.3758399,1.24354 l -0.23812,0.25136 M 31.81678,5.710103 q 1.24354,-1.79917 3.51896,-3.12208 l 0.56885,-0.3175 q 0.89959,-0.37042 2.15636,0.3175 1.38906,0.79375 2.35479,2.47385 0.78052,1.33615 0.92604,2.64583 -0.13229,1.0848 -0.78052,1.57427 l -0.19844,0.1323 q -0.17198,-0.8599 -0.68791,-1.73302 -0.79375,-1.38907 -1.93146,-2.05053 -1.04511,-0.55562 -1.78594,-0.25135 l -0.46302,0.25135 q -1.20385,0.70115 -2.06375,1.57428 l -0.25135,-0.26459 q -0.66146,-0.66146 -1.36261,-1.23031"
       id="path422"
       style="stroke-width:0.264583" />
    <path
       stroke="none"
       fill="#b67340"
       d="m 31.81678,5.710103 -0.44979,-0.35719 q 1.25677,-2.26219 3.96875,-3.82323 l 0.56885,-0.3175 q 0.89959,-0.37040997 2.15636,0.3175 1.38906,0.79375 2.35479,2.47386 0.96573,1.65364 0.9525,3.24114 l -0.0265,0.46302 q -0.14552,-1.30968 -0.92604,-2.64583 -0.96573,-1.6801 -2.35479,-2.47385 -1.25677,-0.68792 -2.15636,-0.3175 l -0.56885,0.3175 q -2.27542,1.32291 -3.51896,3.12208 M 10.61039,5.696903 Q 9.3536201,3.897733 7.0914301,2.588053 l -0.56886,-0.3175 q -0.89958,-0.37042 -2.15635,0.3175 -1.38906,0.79375 -2.35479,2.47385 -0.78052,1.33615 -0.91281,2.64583 l -0.0397,-0.46302 q -0.0132,-1.5875 0.9525,-3.24114 0.96573,-1.68011 2.35479,-2.47386 1.25677,-0.68790997 2.15635,-0.3175 l 0.56886,0.3175 q 2.69875,1.56104 3.9687499,3.81 l -0.44979,0.35719"
       id="path424"
       style="stroke-width:0.264583" />
    <path
       stroke="none"
       fill="#774b2a"
       d="m 2.0643901,9.414273 q 0.17197,-0.8599 0.68791,-1.73302 0.79375,-1.38907 1.93146,-2.05053 1.0451,-0.55562 1.78594,-0.25135 l 0.46302,0.25135 q 1.19062,0.70115 2.06375,1.56105 -1.73302,1.79916 -2.83104,3.84968 -1.83886,-0.33073 -3.75709,-1.42875 l -0.34395,-0.19843 M 33.43074,7.205003 q 0.8599,-0.87313 2.06375,-1.57428 l 0.46302,-0.25135 q 0.74083,-0.30427 1.78594,0.25135 1.13771,0.66146 1.93146,2.05053 0.51593,0.87312 0.68791,1.73302 l -0.34396,0.19843 q -1.91822,1.11125 -3.77031,1.42875 -1.09802,-2.05052 -2.81781,-3.83645"
       id="path426"
       style="stroke-width:0.264583" />
    <path
       stroke="none"
       fill="#bd7841"
       d="m 33.43074,7.205003 q 1.71979,1.78593 2.81781,3.83645 1.89177,3.55865 1.89177,7.88459 v 0.52916 q -0.18521,-6.6675 -4.96093,-11.45645 -3.99521,-3.98198 -9.32657,-4.7625 l -2.64583,-0.18521 -2.64583,0.18521 q -5.33136,0.78052 -9.3265699,4.7625 -4.77573,4.78895 -4.9477,11.45645 l -0.0132,-0.52916 q 0,-4.32594 1.89177,-7.88459 1.09802,-2.05052 2.83104,-3.84968 l 0.23812,-0.25136 q 0.67469,-0.67469 1.3758399,-1.24354 l 0.44979,-0.35719 q 4.37885,-3.34698 10.14677,-3.34698 5.78115,0 10.16,3.36021 l 0.44979,0.35719 q 0.70115,0.56885 1.36261,1.23031 l 0.25135,0.26459"
       id="path428"
       style="stroke-width:0.264583" />
    <path
       stroke="none"
       fill="#a16639"
       d="m 25.8372,8.197183 q 0,-1.37583 -1.36261,-2.34156 -1.34937,-0.96573 -3.2676,-0.96573 -1.91823,0 -3.28083,0.96573 -1.34938,0.96573 -1.34938,2.34156 l 0.0132,0.2249 q 0.0926,2.80458 1.33615,4.82864 1.3626,2.2225 3.28083,2.2225 1.91823,0 3.2676,-2.2225 1.25677,-2.02406 1.36261,-4.82864 v -0.2249 M 4.2868601,19.455203 q 0.17197,-6.6675 4.9477,-11.45645 3.9952099,-3.98198 9.3265699,-4.7625 l 2.64583,-0.18521 2.64583,0.18521 q 5.33136,0.78052 9.32657,4.7625 4.77572,4.78895 4.96093,11.45645 -0.10583,3.9423 -1.81239,7.2099 -1.19063,2.27542 -3.14854,4.2201 l -0.59532,0.56886 -1.03187,0.88635 q -4.28625,-3.63802 -10.34521,-3.63802 -6.04573,0 -10.34521,3.63802 l -1.0318699,-0.88635 -0.59532,-0.56886 q -4.77573,-4.7625 -4.9477,-11.43"
       id="path430"
       style="stroke-width:0.264583" />
    <path
       stroke="none"
       fill="#aa6c3c"
       d="m 25.8372,8.197183 v 0.2249 q -0.10584,2.80458 -1.36261,4.82864 -1.34937,2.2225 -3.2676,2.2225 -1.91823,0 -3.28083,-2.2225 -1.24355,-2.02406 -1.33615,-4.82864 l -0.0132,-0.2249 q 0,-1.37583 1.34938,-2.34156 1.3626,-0.96573 3.28083,-0.96573 1.91823,0 3.2676,0.96573 1.36261,0.96573 1.36261,2.34156"
       id="path432"
       style="stroke-width:0.264583" />
    <path
       stroke="none"
       fill="#955e34"
       d="m 10.86178,32.340413 q 4.29948,-3.63802 10.34521,-3.63802 6.05896,0 10.34521,3.63802 -4.445,3.51896 -10.34521,3.51896 -5.90021,0 -10.34521,-3.51896"
       id="path434"
       style="stroke-width:0.264583" />
    <path
       stroke="none"
       fill="#545454"
       d="m 17.80709,19.772703 -0.0529,-0.62177 v -0.23812 q 0.0794,-0.635 1.00541,-1.08479 1.01865,-0.48948 2.4474,-0.48948 1.42875,0 2.4474,0.48948 0.91281,0.44979 1.00541,1.08479 v 0.23812 l -0.0529,0.62177 q -0.18521,-0.5027 -0.9525,-0.88635 -1.01865,-0.48948 -2.4474,-0.48948 -1.42875,0 -2.4474,0.48948 -0.76729,0.37042 -0.9525,0.88635"
       id="path436"
       style="stroke-width:0.264583" />
    <path
       stroke="none"
       fill="#464646"
       d="m 17.80709,19.772703 q 0.18521,-0.51593 0.9525,-0.88635 1.01865,-0.48948 2.4474,-0.48948 1.42875,0 2.4474,0.48948 0.76729,0.38365 0.9525,0.88635 -0.17198,1.04511 -0.9525,1.82563 -0.56886,0.56885 -1.27,0.82021 -1.12448,0.46302 -2.3548,0 -0.70114,-0.25136 -1.27,-0.82021 -0.78052,-0.78052 -0.9525,-1.82563"
       id="path438"
       style="stroke-width:0.264583" />
    <path
       stroke="none"
       fill="#383838"
       d="m 22.38439,22.418543 0.22489,0.26458 q 0.25136,0.25135 0.5424,0.39688 0.37041,0.17197 0.80698,0.17197 0.79375,0 1.3626,-0.56885 l 0.33073,-0.43656 0.13229,-0.11906 0.18521,0.0132 1.24354,0.64823 0.11906,0.1323 -0.0132,0.17197 -0.39687,0.60855 -0.27781,0.30427 q -1.12448,1.11125 -2.68552,1.11125 -1.56105,0 -2.6723,-1.11125 l -0.0794,-0.0794 -0.0794,0.0794 q -1.12447,1.11125 -2.68552,1.11125 -1.57427,0 -2.67229,-1.11125 l -0.27781,-0.30427 q -0.23813,-0.29105 -0.39688,-0.58209 -0.0529,-0.0926 -0.0132,-0.17198 0.0132,-0.0926 0.10583,-0.14552 l 1.21708,-0.67468 0.17198,-0.0265 0.14552,0.11906 q 0.14552,0.25135 0.35719,0.46302 0.56885,0.56885 1.3626,0.56885 0.43657,0 0.82021,-0.17197 l 0.5424,-0.39688 0.22489,-0.26458 q 1.23032,0.46302 2.3548,0"
       id="path440"
       style="stroke-width:0.264583" />
    <path
       stroke="none"
       fill="#8e5a32"
       d="m 32.63699,15.658433 q 0,-1.01864 -0.71438,-1.73302 -0.7276,-0.71437 -1.74625,-0.71437 -1.00541,0 -1.73302,0.71437 -0.71437,0.71438 -0.71437,1.73302 0,1.01865 0.71437,1.70657 0.72761,0.74083 1.73302,0.74083 1.01865,0 1.74625,-0.74083 0.71438,-0.68792 0.71438,-1.70657 m 1.4949,-0.91281 q 0.5027,1.905 -0.25136,3.53219 -0.76729,1.66687 -2.35479,2.09021 -1.57427,0.4101 -3.06917,-0.64823 -1.46843,-1.01865 -1.98437,-2.92365 v -0.0132 q -0.42334,-1.5875 0.39687,-3.00302 0.83344,-1.42875 2.40771,-1.83885 1.5875,-0.42334 3.01625,0.39687 1.40229,0.80698 1.83886,2.39448 v 0.0132 m -24.3548999,0.91281 q 0,1.01865 0.7143699,1.70657 0.72761,0.74083 1.74625,0.74083 1.00542,0 1.73303,-0.74083 0.71437,-0.68792 0.71437,-1.70657 0,-1.01864 -0.71437,-1.73302 -0.72761,-0.71437 -1.73303,-0.71437 -1.01864,0 -1.74625,0.71437 -0.7143699,0.71438 -0.7143699,1.73302 m -1.4949,-0.91281 v -0.0132 q 0.43657,-1.5875 1.8388599,-2.39448 1.42875,-0.82021 3.01625,-0.39687 1.57427,0.4101 2.40771,1.83885 0.8202,1.41552 0.39687,3.00302 v 0.0132 q -0.51594,1.905 -1.98437,2.92365 -1.4949,1.05833 -3.06917,0.64823 -1.5874999,-0.42334 -2.3547899,-2.09021 -0.75406,-1.62719 -0.25136,-3.53219"
       id="path442"
       style="stroke-width:0.264583" />
    <path
       stroke="none"
       fill="#ffffff"
       d="m 32.63699,15.658433 q 0,1.01865 -0.71438,1.70657 -0.7276,0.74083 -1.74625,0.74083 -1.00541,0 -1.73302,-0.74083 -0.71437,-0.68792 -0.71437,-1.70657 0,-1.01864 0.71437,-1.73302 0.72761,-0.71437 1.73302,-0.71437 1.01865,0 1.74625,0.71437 0.71438,0.71438 0.71438,1.73302 m -1.19063,0.0397 q 0,-0.64823 -0.44979,-1.08479 -0.44979,-0.44979 -1.08479,-0.44979 -0.635,0 -1.09802,0.44979 -0.44979,0.43656 -0.44979,1.08479 0,0.635 0.44979,1.07156 0.46302,0.46302 1.09802,0.46302 0.635,0 1.08479,-0.46302 0.44979,-0.43656 0.44979,-1.07156 m -21.6693699,-0.0397 q 0,-1.01864 0.7143699,-1.73302 0.72761,-0.71437 1.74625,-0.71437 1.00542,0 1.73303,0.71437 0.71437,0.71438 0.71437,1.73302 0,1.01865 -0.71437,1.70657 -0.72761,0.74083 -1.73303,0.74083 -1.01864,0 -1.74625,-0.74083 -0.7143699,-0.68792 -0.7143699,-1.70657 m 1.1906199,0.0397 q 0,0.635 0.4498,1.07156 0.44979,0.46302 1.08479,0.46302 0.635,0 1.09802,-0.46302 0.44979,-0.43656 0.44979,-1.07156 0,-0.64823 -0.44979,-1.08479 -0.46302,-0.44979 -1.09802,-0.44979 -0.635,0 -1.08479,0.44979 -0.4498,0.43656 -0.4498,1.08479"
       id="path444"
       style="stroke-width:0.264583" />
    <path
       stroke="none"
       fill="#5b5b5b"
       d="m 10.96761,15.698123 q 0,-0.64823 0.4498,-1.08479 0.44979,-0.44979 1.08479,-0.44979 0.635,0 1.09802,0.44979 0.44979,0.43656 0.44979,1.08479 0,0.635 -0.44979,1.07156 -0.46302,0.46302 -1.09802,0.46302 -0.635,0 -1.08479,-0.46302 -0.4498,-0.43656 -0.4498,-1.07156 m 20.47875,0 q 0,0.635 -0.44979,1.07156 -0.44979,0.46302 -1.08479,0.46302 -0.635,0 -1.09802,-0.46302 -0.44979,-0.43656 -0.44979,-1.07156 0,-0.64823 0.44979,-1.08479 0.46302,-0.44979 1.09802,-0.44979 0.635,0 1.08479,0.44979 0.44979,0.43656 0.44979,1.08479"
       id="path446"
       style="stroke-width:0.264583" />
  </g>
</svg>
