<?xml version="1.0" encoding="UTF-8" standalone="no"?>
<!-- Created with Inkscape (http://www.inkscape.org/) -->

<svg
   width="35.983261"
   height="40.560608"
   viewBox="0 0 35.983261 40.560608"
   version="1.1"
   id="svg505"
   inkscape:version="1.2.2 (b0a8486541, 2022-12-01)"
   sodipodi:docname="chicken.svg"
   xmlns:inkscape="http://www.inkscape.org/namespaces/inkscape"
   xmlns:sodipodi="http://sodipodi.sourceforge.net/DTD/sodipodi-0.dtd"
   xmlns="http://www.w3.org/2000/svg"
   xmlns:svg="http://www.w3.org/2000/svg">
  <sodipodi:namedview
     id="namedview507"
     pagecolor="#ffffff"
     bordercolor="#000000"
     borderopacity="0.25"
     inkscape:showpageshadow="2"
     inkscape:pageopacity="0.0"
     inkscape:pagecheckerboard="0"
     inkscape:deskcolor="#d1d1d1"
     inkscape:document-units="mm"
     showgrid="false"
     inkscape:zoom="0.2102413"
     inkscape:cx="401.91912"
     inkscape:cy="563.63806"
     inkscape:window-width="1803"
     inkscape:window-height="1117"
     inkscape:window-x="0"
     inkscape:window-y="0"
     inkscape:window-maximized="1"
     inkscape:current-layer="layer1" />
  <defs
     id="defs502" />
  <g
     inkscape:label="Layer 1"
     inkscape:groupmode="layer"
     id="layer1">
    <path
       stroke="none"
       fill="#989898"
       d="M 0.0132,23.15101 0,22.56893 Q 0,15.12091 5.27844,9.8557 7.95073,7.17018 11.19188,5.86049 q 0.25135,-0.50271 0.635,-0.93927 l -0.0397,-0.62177 q 0,-1.78594 1.24354,-3.04271 l 0.0132,-0.0132 Q 14.30069,0 16.08663,0 q 1.0451,0 1.905,0.43656 Q 18.85153,0 19.90986,0 q 1.77271,0 3.02948,1.24354 l 0.0132,0.0132 q 1.24354,1.25677 1.24354,3.04271 l -0.0397,0.60854 q 0.38365,0.44979 0.66146,0.96573 3.21469,1.30968 5.88698,3.98198 5.27844,5.26521 5.27844,12.71323 v 0.52917 0.0265 q -0.19844,7.06437 -5.27844,12.14437 v 0.0132 q -1.09802,1.09802 -2.28865,1.97115 -4.55083,3.307287 -10.42458,3.307287 -6.29708,0 -11.03313,-3.783537 h -0.0132 l -1.66688,-1.4949 q -5.08,-5.08 -5.26521,-12.13115"
       id="path280"
       style="stroke-width:0.264583" />
    <path
       stroke="none"
       fill="#ffffff"
       d="m 1.07154,23.0981 -0.0132,-0.52917 q 0,-7.01146 4.96093,-11.9724 4.96094,-4.96094 11.9724,-4.96094 6.99823,0 11.95917,4.96094 4.97416,4.96094 4.97416,11.9724 V 23.0981 Q 34.73979,16.43059 29.95084,11.65486 24.9899,6.69393 17.99167,6.69393 q -7.01146,0 -11.9724,4.96093 -4.77573,4.77574 -4.9477,11.44324 m 26.72291,13.29531 q -4.27302,3.108851 -9.80281,3.108851 -5.92667,0 -10.3849,-3.558651 L 7.9375,35.33507 q 3.99521,-6.97177 9.64407,-6.97177 5.64885,0 9.63083,6.97177 l 0.58208,1.05834"
       id="path282"
       style="stroke-width:0.264583" />
    <path
       stroke="none"
       fill="#f0f0f0"
       d="m 27.79445,36.39341 -0.58208,-1.05834 q -3.98198,-6.97177 -9.63083,-6.97177 -5.64886,0 -9.64407,6.97177 L 7.60674,35.94361 6.01924,34.52809 Q 1.24351,29.75236 1.07154,23.0981 q 0.17197,-6.66751 4.9477,-11.44324 4.96094,-4.96093 11.9724,-4.96093 6.99823,0 11.95917,4.96093 4.78895,4.77574 4.97416,11.44324 -0.18521,6.65426 -4.97416,11.42999 -1.03188,1.04511 -2.15636,1.86532"
       id="path284"
       style="stroke-width:0.264583" />
    <path
       stroke="none"
       fill="#ffffff"
       d="m 31.55154,23.36268 q 0,1.50812 -1.07157,2.54 -1.07156,1.08479 -2.57968,1.08479 -1.48167,0 -2.57969,-1.08479 -1.04511,-1.03188 -1.04511,-2.54 0,-1.52136 1.04511,-2.57969 1.09802,-1.07156 2.57969,-1.07156 1.50812,0 2.57968,1.07156 1.07157,1.05833 1.07157,2.57969 m -1.99761,-0.0265 q 0,-0.96573 -0.64823,-1.61396 -0.67469,-0.67469 -1.64041,-0.67469 -0.92605,0 -1.61396,0.67469 -0.67469,0.64823 -0.67469,1.61396 l 0.0132,0.22489 q 0.0661,0.78052 0.66146,1.34938 0.68791,0.66146 1.61396,0.66146 0.96572,0 1.64041,-0.66146 0.56886,-0.56886 0.635,-1.34938 l 0.0132,-0.22489"
       id="path286"
       style="stroke-width:0.264583" />
    <path
       stroke="none"
       fill="#5b5b5b"
       d="m 29.55393,23.33622 -0.0132,0.2249 q -0.0661,0.78052 -0.635,1.34937 -0.67469,0.66146 -1.64041,0.66146 -0.92605,0 -1.61396,-0.66146 -0.59532,-0.56885 -0.66146,-1.34937 l -0.0132,-0.2249 q 0,-0.96573 0.67469,-1.61396 0.68791,-0.67469 1.61396,-0.67469 0.96572,0 1.64041,0.67469 0.64823,0.64823 0.64823,1.61396"
       id="path288"
       style="stroke-width:0.264583" />
    <path
       stroke="none"
       fill="#5b5b5b"
       d="m 6.42935,23.33622 q 0,-0.96573 0.64823,-1.61396 0.67468,-0.67469 1.64041,-0.67469 0.92605,0 1.61396,0.67469 0.67469,0.64823 0.67469,1.61396 l -0.0132,0.2249 q -0.0661,0.78052 -0.66146,1.34937 -0.68791,0.66146 -1.61396,0.66146 -0.96573,0 -1.64041,-0.66146 -0.56886,-0.56885 -0.635,-1.34937 l -0.0132,-0.2249"
       id="path290"
       style="stroke-width:0.264583" />
    <path
       stroke="none"
       fill="#ffffff"
       d="m 6.42935,23.33622 0.0132,0.2249 q 0.0661,0.78052 0.635,1.34937 0.67468,0.66146 1.64041,0.66146 0.92605,0 1.61396,-0.66146 0.59531,-0.56885 0.66146,-1.34937 l 0.0132,-0.2249 q 0,-0.96573 -0.67469,-1.61396 -0.68791,-0.67469 -1.61396,-0.67469 -0.96573,0 -1.64041,0.67469 -0.64823,0.64823 -0.64823,1.61396 m -1.99761,0.0265 q 0,-1.52135 1.07157,-2.57969 1.07156,-1.07156 2.57968,-1.07156 1.48167,0 2.57969,1.07156 1.04511,1.05834 1.04511,2.57969 0,1.50813 -1.04511,2.54 -1.09802,1.08479 -2.57969,1.08479 -1.50812,0 -2.57968,-1.08479 -1.07157,-1.03187 -1.07157,-2.54"
       id="path292"
       style="stroke-width:0.264583" />
    <path
       stroke="none"
       fill="#d23007"
       d="m 13.32174,33.45653 q 0,-1.01864 0.91282,-1.83885 l 0.54239,-0.50271 q 1.87854,-1.82563 2.79136,-4.14073 0.11906,-0.11906 0.29104,-0.15875 l 0.0926,-0.0132 h 0.0794 l 0.0794,0.0132 q 0.17198,0.0397 0.30427,0.15875 0.92604,2.3151 2.80459,4.15396 l 0.52916,0.48948 q 0.91282,0.82021 0.91282,1.83885 l -0.0132,0.0397 q -0.51594,1.65365 -2.75167,1.38906 -0.89958,-0.10583 -1.64042,-0.68791 l -0.26458,-0.23813 -0.27781,0.23813 q -0.72761,0.58208 -1.64042,0.68791 -2.23573,0.26459 -2.73844,-1.38906 l -0.0132,-0.0397"
       id="path294"
       style="stroke-width:0.264583" />
    <path
       stroke="none"
       fill="#c62c05"
       d="m 13.32174,33.45653 0.0132,0.0397 q 0.50271,1.65365 2.73844,1.38906 0.91281,-0.10583 1.64042,-0.68791 l 0.27781,-0.23813 0.26458,0.23813 q 0.74084,0.58208 1.64042,0.68791 2.23573,0.26459 2.75167,-1.38906 l 0.0132,-0.0397 -0.0794,0.59531 q -0.50271,2.07698 -2.71198,1.74625 -0.88635,-0.14552 -1.61396,-0.87312 l -0.26458,-0.29104 -0.26458,0.29104 q -0.72761,0.7276 -1.62719,0.87312 -2.19604,0.33073 -2.69875,-1.74625 -0.0794,-0.30427 -0.0794,-0.59531"
       id="path296"
       style="stroke-width:0.264583" />
    <path
       stroke="none"
       fill="#ff9900"
       d="m 12.10466,25.75716 q 0.29104,-1.83886 1.66688,-3.24115 l 0.70114,-0.59531 q 1.53458,-1.15094 3.54542,-1.15094 2.01083,0 3.54541,1.15094 l 0.67469,0.59531 q 1.38906,1.40229 1.66688,3.24115 -0.13229,0.35719 -0.51594,0.68791 -0.34396,-1.33614 -1.45521,-2.38125 L 21.31216,23.54789 Q 19.88341,22.5557 18.0181,22.5557 q -1.86531,0 -3.29406,0.99219 l -0.64823,0.51593 q -1.09802,1.04511 -1.44198,2.38125 -0.39688,-0.3175 -0.52917,-0.68791"
       id="path298"
       style="stroke-width:0.264583" />
    <path
       stroke="none"
       fill="#f39100"
       d="m 12.63383,26.44507 q 0.34396,-1.33614 1.44198,-2.38125 l 0.64823,-0.51593 q 1.42875,-0.99219 3.29406,-0.99219 1.86531,0 3.29406,0.99219 l 0.62177,0.51593 q 1.11125,1.04511 1.45521,2.38125 -0.42333,0.34396 -1.15094,0.635 -1.74625,0.71438 -4.2201,0.71438 -2.48709,0 -4.24656,-0.71438 -0.72761,-0.29104 -1.13771,-0.635"
       id="path300"
       style="stroke-width:0.264583" />
    <path
       stroke="none"
       fill="#e08600"
       d="m 12.63383,26.44507 q 0.4101,0.34396 1.13771,0.635 1.75947,0.71438 4.24656,0.71438 2.47385,0 4.2201,-0.71438 0.72761,-0.29104 1.15094,-0.635 0.38365,-0.33072 0.51594,-0.68791 l 0.0794,0.97896 -0.0265,0.39687 q -0.10583,1.32292 -1.71979,2.27542 -1.74625,1.01864 -4.2201,1.01864 -2.48709,0 -4.24656,-1.01864 -1.60073,-0.9525 -1.7198,-2.27542 l -0.0132,-0.39687 q 0,-0.51594 0.0661,-0.97896 0.13229,0.37041 0.52917,0.68791"
       id="path302"
       style="stroke-width:0.264583" />
    <path
       stroke="none"
       fill="#f53707"
       d="m 23.03195,6.28382 h -0.0132 l 0.0132,-0.0397 v 0.0397 M 11.61518,9.06195 11.58868,8.53278 q 0,-1.85208 1.25677,-3.175 l 0.11907,-0.13229 q 0.13229,0.82021 -0.46302,1.5875 -0.75407,0.99219 -0.88636,2.24896 m 1.27,-4.22011 -0.0397,-0.54239 q 0,-1.34938 0.93927,-2.30188 0.9525,-0.93927 2.30188,-0.93927 1.08479,0 1.905,0.62177 0.82021,-0.62177 1.91823,-0.62177 1.33614,0 2.28864,0.93927 0.93928,0.9525 0.93928,2.30188 l -0.0397,0.54239 Q 22.95252,3.8232 22.19845,3.0559 21.24595,2.11663 19.90981,2.11663 q -1.09802,0 -1.91823,0.62177 -0.82021,-0.62177 -1.905,-0.62177 -1.34938,0 -2.30188,0.93927 -0.75406,0.7673 -0.89958,1.78594 m 10.13354,0.38365 h 0.0132 l 0.10584,0.11906 q 0.635,0.66146 0.9525,1.46844 0.30427,0.79375 0.30427,1.71979 l -0.0265,0.52917 Q 24.23568,7.80518 23.49484,6.81299 22.8863,6.0457 23.01859,5.22549"
       id="path304"
       style="stroke-width:0.264583" />
    <path
       stroke="none"
       fill="#d23007"
       d="m 24.3681,9.06195 q -0.11906,1.17739 -0.78052,2.11666 l 0.13229,0.8599 0.0132,0.44979 -0.0132,0.52917 q -0.17198,1.89177 -1.56104,3.28083 -1.5875,1.5875 -3.82323,1.5875 l -0.34396,-0.0132 -0.34396,0.0132 q -2.23573,0 -3.81,-1.5875 -1.38906,-1.37583 -1.56104,-3.2676 l -0.0265,-0.5424 0.0265,-0.46302 q 0.0265,-0.43656 0.13229,-0.84667 -0.67469,-0.93927 -0.79375,-2.11666 0.13229,-1.25677 0.88636,-2.24896 0.59531,-0.76729 0.46302,-1.5875 l -0.0794,-0.38365 q 0.14552,-1.01864 0.89958,-1.78594 0.9525,-0.93927 2.30188,-0.93927 1.08479,0 1.905,0.62177 0.82021,-0.62177 1.91823,-0.62177 1.33614,0 2.28864,0.93927 0.75407,0.7673 0.89959,1.78594 l -0.0794,0.38365 q -0.13229,0.82021 0.47625,1.5875 0.74084,0.99219 0.87313,2.24896 M 23.03191,6.28382 v -0.0397 l -0.0132,0.0397 h 0.0132"
       id="path306"
       style="stroke-width:0.264583" />
  </g>
</svg>
