<?xml version="1.0" encoding="UTF-8" standalone="no"?>
<!-- Created with Inkscape (http://www.inkscape.org/) -->

<svg
   width="40.338707"
   height="35.983398"
   viewBox="0 0 40.338707 35.983398"
   version="1.1"
   id="svg289"
   inkscape:version="1.2.2 (b0a8486541, 2022-12-01)"
   sodipodi:docname="cow.svg"
   xmlns:inkscape="http://www.inkscape.org/namespaces/inkscape"
   xmlns:sodipodi="http://sodipodi.sourceforge.net/DTD/sodipodi-0.dtd"
   xmlns="http://www.w3.org/2000/svg"
   xmlns:svg="http://www.w3.org/2000/svg">
  <sodipodi:namedview
     id="namedview291"
     pagecolor="#ffffff"
     bordercolor="#000000"
     borderopacity="0.25"
     inkscape:showpageshadow="2"
     inkscape:pageopacity="0.0"
     inkscape:pagecheckerboard="0"
     inkscape:deskcolor="#d1d1d1"
     inkscape:document-units="mm"
     showgrid="false"
     inkscape:zoom="0.2102413"
     inkscape:cx="401.91912"
     inkscape:cy="563.63806"
     inkscape:window-width="1803"
     inkscape:window-height="1117"
     inkscape:window-x="0"
     inkscape:window-y="0"
     inkscape:window-maximized="1"
     inkscape:current-layer="layer1" />
  <defs
     id="defs286" />
  <g
     inkscape:label="Layer 1"
     inkscape:groupmode="layer"
     id="layer1">
    <path
       stroke="none"
       fill="#2c2b2b"
       d="m 40.319611,5.3049 q -0.0794,0.74084 -0.35719,1.54782 v 0.0132 q -0.71437,1.98438 -2.30187,3.175 l -0.0265,0.0265 -0.97896,0.56886 q 1.50813,3.37343 1.50813,7.35541 v 0.52917 0.0265 q -0.11907,4.19364 -1.93146,7.67292 -0.42334,0.8202 -0.93927,1.60072 -1.03188,1.52136 -2.39448,2.88396 -5.27844,5.27844 -12.72646,5.27844 -7.44802,0 -12.71323,-5.27844 -1.37583,-1.37583 -2.38125,-2.88396 -2.75167,-4.10104 -2.88396,-9.24718 l -0.0132,-0.58209 q 0,-3.98198 1.52136,-7.34218 -0.50271,-0.23813 -1.00542,-0.58209 l -0.0265,-0.0265 q -1.5875,-1.19062 -2.28864001,-3.175 v -0.0132 q -0.29105,-0.80698 -0.35719,-1.54782 v -0.0265 q -0.10584,-1.15093 0.26458,-2.16958 V 3.09566 Q 0.94956099,1.34941 2.550291,0.88639 l 0.0661,-0.0265 0.75407,-0.14552 h -0.0265 q 3.95552,-0.80698 7.18344,-0.0926 l 0.0397,0.0132 0.29105,0.0794 h 0.0265 q 1.20386,0.29104 2.05052,0.75406 1.32292,-0.58208 2.75167,-0.92604 Q 17.816741,0 20.171531,0 q 2.30187,0 4.39208,0.50271 l 0.0926,0.0265 q 1.41552,0.34396 2.75166,0.92605 0.83344,-0.4498 2.03729,-0.74084 h 0.0265 l 0.30427,-0.0794 0.0265,-0.0132 q 3.22792,-0.71438 7.18344,0.0926 h -0.0132 l 0.74083,0.14552 0.0794,0.0265 q 1.5875,0.46302 2.24896,2.20927 l 0.0132,0.0132 q 0.35718,1.01865 0.26458,2.16958 v 0.0265"
       id="path620"
       style="stroke-width:0.264583" />
    <path
       stroke="none"
       fill="#414040"
       d="m 12.961691,3.53219 -0.34396,-0.10583 q -2.18281,-0.47625 -4.8551,0.0661 l -0.50271,0.11906 q -0.80698,0.2249 -1.15094,1.11125 -0.23812,0.64823 -0.14552,1.3626 0.0529,0.41011 0.21167,0.83344 0.43656,1.21708 1.40229,1.94469 0.46302,0.3175 0.87313,0.46302 l -0.9525,0.27781 -0.25136,0.0661 -0.78052,0.15875 -0.74083,0.13229 -0.33073,0.0265 Q 4.389191,9.96147 3.304401,9.19422 1.968261,8.1888 1.372941,6.5087 1.134821,5.82078 1.068671,5.18578 1.121571,4.70953 1.280341,4.25974 1.743361,3.02943 2.854611,2.68547 l 0.70115,-0.14552 q 3.71739,-0.75407 6.74687,-0.0926 l 0.30427,0.0794 q 1.50813,0.37041 2.35479,1.00541 m 14.40657,0 q 0.84666,-0.635 2.35479,-1.00541 l 0.30427,-0.0794 q 3.02948,-0.66146 6.74687,0.0926 l 0.70115,0.14552 q 1.11125,0.34396 1.57427,1.57427 0.15875,0.44979 0.21167,0.92604 -0.0661,0.635 -0.30427,1.32292 -0.59532,1.6801 -1.93146,2.68552 -1.08479,0.76729 -2.09021,0.79375 l -0.33073,-0.0265 -0.74083,-0.13229 -0.78052,-0.15875 -0.25136,-0.0661 -0.9525,-0.27781 q 0.41011,-0.14552 0.87313,-0.46302 0.96573,-0.72761 1.40229,-1.94469 0.15875,-0.42333 0.21166,-0.83344 0.0926,-0.71437 -0.14552,-1.3626 -0.34395,-0.88635 -1.15093,-1.11125 l -0.50271,-0.11906 q -2.67229,-0.5424 -4.85511,-0.0661 l -0.34395,0.10583"
       id="path622"
       style="stroke-width:0.264583" />
    <path
       stroke="none"
       fill="#545353"
       d="m 27.368261,3.53219 h -0.0132 q -0.51594,0.11907 -0.89959,0.29105 l 0.0661,-0.14552 q 0.71437,-1.33615 3.20146,-1.94469 l 0.30427,-0.0794 q 3.02948,-0.66146 6.74687,0.0926 l 0.70115,0.14552 q 1.11125,0.34396 1.57427,1.57427 0.29104,0.80698 0.21167,1.71979 -0.0529,-0.47625 -0.21167,-0.92604 -0.46302,-1.23031 -1.57427,-1.57427 l -0.70115,-0.14552 q -3.71739,-0.75407 -6.74687,-0.0926 l -0.30427,0.0794 q -1.50813,0.37041 -2.35479,1.00541 m -14.40657,0 q -0.84666,-0.635 -2.35479,-1.00541 l -0.30427,-0.0794 Q 7.273131,1.78592 3.555741,2.53998 L 2.854591,2.6855 Q 1.743341,3.02946 1.280321,4.25977 1.121571,4.70956 1.068651,5.18581 0.989251,4.273 1.280321,3.46602 1.743341,2.23571 2.854591,1.89175 l 0.70115,-0.14552 q 3.71739,-0.75407 6.74687,-0.0926 l 0.30427,0.0794 q 2.48708,0.60854 3.20146,1.94469 l 0.0661,0.14552 -0.89959,-0.29105 h -0.0132"
       id="path624"
       style="stroke-width:0.264583" />
    <path
       stroke="none"
       fill="#ffaaff"
       d="m 27.368261,3.53219 0.34395,-0.10583 q 2.18282,-0.47625 4.85511,0.0661 l 0.50271,0.11906 q 0.80698,0.2249 1.15093,1.11125 0.23813,0.64823 0.14552,1.3626 -0.0529,0.41011 -0.21166,0.83344 -0.43656,1.21708 -1.40229,1.94469 -0.46302,0.3175 -0.87313,0.46302 L 31.508981,9.20746 Q 29.432011,8.49308 27.990031,7.3686 26.944921,6.57485 26.534821,5.76787 26.071801,4.88152 26.376071,3.98194 l 0.0794,-0.15875 q 0.38365,-0.17198 0.89959,-0.29105 h 0.0132 m -14.40657,0 h 0.0132 l 0.89959,0.29105 0.0794,0.15875 q 0.30427,0.89958 -0.15875,1.78593 -0.4101,0.80698 -1.45521,1.60073 -1.44198,1.12448 -3.51896,1.83886 L 8.450551,9.32652 Q 8.040441,9.181 7.577421,8.8635 6.611691,8.13589 6.175131,6.91881 6.016381,6.49548 5.963461,6.08537 5.870861,5.371 6.108981,4.72277 6.452941,3.83642 7.259921,3.61152 l 0.50271,-0.11906 q 2.67229,-0.5424 4.8551,-0.0661 l 0.34396,0.10583"
       id="path626"
       style="stroke-width:0.264583" />
    <path
       stroke="none"
       fill="#4f4e4e"
       d="m 24.285861,2.57969 0.11906,-1.03187 q 4.33917,1.07156 7.73906,4.45823 l 0.33073,0.34396 q 4.63021,4.86833 4.63021,11.64166 v 0.52917 q -0.18521,-6.42937 -4.63021,-11.1125 l -0.33073,-0.34396 q -3.43958,-3.42635 -7.85812,-4.48469 m -8.3476,-1.01864 0.11906,1.01864 v 0.0132 q -2.68552,0.635 -5.01386,2.15636 -1.49489,0.97896 -2.84427,2.3151 -4.77573,4.78896 -4.94771,11.45646 l -0.0132,-0.52917 q 0,-7.01145 4.96093,-11.98562 1.34938,-1.34938 2.84427,-2.31511 2.27542,-1.49489 4.8948,-2.12989"
       id="path628"
       style="stroke-width:0.264583" />
    <path
       stroke="none"
       fill="#ffffff"
       d="m 15.938261,1.56105 q 2.01083,-0.50271 4.23333,-0.50271 2.20927,0 4.2201,0.48948 h 0.0132 l -0.11906,1.03187 h -0.0132 l -1.45521,-0.27781 -2.64583,-0.18521 -2.64583,0.18521 -1.46844,0.29104 v -0.0132 l -0.11906,-1.01864"
       id="path630"
       style="stroke-width:0.264583" />
    <path
       stroke="none"
       fill="#f0f0f0"
       d="m 16.057321,2.59292 1.46844,-0.29104 2.64583,-0.18521 2.64583,0.18521 1.45521,0.27781 h 0.0132 q -0.8599,4.08782 -1.11125,8.255 -0.19844,3.21469 -0.0265,6.4823 0.3175,5.87375 11.25802,9.90864 -0.96573,1.44198 -2.26219,2.72521 -4.96093,4.97417 -11.97239,4.97417 -7.01146,0 -11.9724,-4.97417 -1.29646,-1.29646 -2.24896,-2.72521 10.9273,-4.03489 11.2448,-9.90864 0.17198,-3.26761 -0.0132,-6.4823 -0.26459,-4.15395 -1.12448,-8.24177"
       id="path632"
       style="stroke-width:0.264583" />
    <path
       stroke="none"
       fill="#414040"
       d="m 16.057321,2.59292 q 0.85989,4.08782 1.12448,8.24177 0.18521,3.21469 0.0132,6.4823 -0.3175,5.87375 -11.2448,9.90864 -2.57968,-3.84969 -2.69875,-8.70479 0.17198,-6.6675 4.94771,-11.45646 1.34938,-1.33614 2.84427,-2.3151 2.32834,-1.52136 5.01386,-2.15636 m 18.34885,24.63271 q -10.94052,-4.03489 -11.25802,-9.90864 -0.17198,-3.26761 0.0265,-6.4823 0.25135,-4.16718 1.11125,-8.255 4.41854,1.05834 7.85812,4.48469 l 0.33073,0.34396 q 4.445,4.68313 4.63021,11.1125 -0.10583,3.94229 -1.81239,7.2099 l -0.88636,1.49489"
       id="path634"
       style="stroke-width:0.264583" />
    <path
       stroke="none"
       fill="#ffc4ff"
       d="m 10.262941,26.43188 -0.0132,-0.50271 v -0.26458 q 0.10584,-3.33375 2.89719,-5.72823 2.91042,-2.47385 7.02469,-2.47385 4.10104,0 7.01146,2.47385 2.79135,2.39448 2.91041,5.72823 v 0.26458 l -0.0132,0.50271 q -0.22489,-3.14854 -2.89718,-5.43719 -2.91042,-2.47385 -7.01146,-2.47385 -4.11427,0 -7.02469,2.47385 -2.67229,2.28865 -2.88396,5.43719"
       id="path636"
       style="stroke-width:0.264583" />
    <path
       stroke="none"
       fill="#ffaaff"
       d="m 10.262941,26.43188 q 0.21167,-3.14854 2.88396,-5.43719 2.91042,-2.47385 7.02469,-2.47385 4.10104,0 7.01146,2.47385 2.67229,2.28865 2.89718,5.43719 -0.17197,2.69875 -2.12989,4.7625 l -0.76729,0.71438 q -0.55563,0.47625 -1.16417,0.87312 -2.60615,-0.52916 -5.84729,-0.52916 -3.25438,0 -5.84729,0.52916 l -1.1774,-0.87312 -0.75406,-0.71438 q -1.95792,-2.06375 -2.1299,-4.7625 m 14.80344,-5.22552 -0.2249,-0.15875 q -0.37041,-0.18521 -0.9525,-0.0132 l -0.0661,0.0265 q -0.75406,0.2249 -1.41552,0.88635 l -0.0397,0.0397 q -0.17198,0.18521 -0.26458,0.41011 -0.10584,0.23812 -0.10584,0.52916 0,0.56886 0.39688,0.96573 0.39687,0.39688 0.96573,0.39688 0.54239,0 0.93927,-0.37042 l 0.0397,-0.0397 q 0.54239,-0.54239 0.79375,-1.13771 l 0.11906,-0.34395 0.0397,-0.1323 q 0.10583,-0.5027 -0.0661,-0.83343 l -0.15875,-0.2249 m -9.02229,2.71198 q 0.39687,0.37042 0.93927,0.37042 0.56885,0 0.96573,-0.39688 0.39687,-0.39687 0.39687,-0.96573 0,-0.29104 -0.0926,-0.52916 l -0.27781,-0.41011 -0.0397,-0.0397 q -0.67469,-0.67468 -1.42875,-0.89958 l -0.0529,-0.0132 q -0.58208,-0.17198 -0.93927,0.0132 -0.13229,0.0529 -0.23812,0.15875 l -0.15875,0.2249 q -0.17198,0.33073 -0.0529,0.83343 l 0.0265,0.1323 0.11906,0.34395 q 0.25136,0.59532 0.79375,1.13771 l 0.0397,0.0397"
       id="path638"
       style="stroke-width:0.264583" />
    <path
       stroke="none"
       fill="#a66ea6"
       d="m 16.044091,23.91834 -0.0397,-0.0397 q -0.54239,-0.54239 -0.79375,-1.13771 l -0.11906,-0.34395 -0.0265,-0.1323 q -0.11906,-0.5027 0.0529,-0.83343 l 0.15875,-0.2249 q 0.10583,-0.10583 0.23812,-0.15875 0.35719,-0.18521 0.93927,-0.0132 l 0.0529,0.0132 q 0.75406,0.2249 1.42875,0.89958 l 0.0397,0.0397 0.27781,0.41011 q 0.0926,0.23812 0.0926,0.52916 0,0.56886 -0.39687,0.96573 -0.39688,0.39688 -0.96573,0.39688 -0.5424,0 -0.93927,-0.37042 m 9.02229,-2.71198 0.15875,0.2249 q 0.17198,0.33073 0.0661,0.83343 l -0.0397,0.1323 -0.11906,0.34395 q -0.25136,0.59532 -0.79375,1.13771 l -0.0397,0.0397 q -0.39688,0.37042 -0.93927,0.37042 -0.56886,0 -0.96573,-0.39688 -0.39688,-0.39687 -0.39688,-0.96573 0,-0.29104 0.10584,-0.52916 0.0926,-0.2249 0.26458,-0.41011 l 0.0397,-0.0397 q 0.66146,-0.66145 1.41552,-0.88635 l 0.0661,-0.0265 q 0.58209,-0.17198 0.9525,0.0132 l 0.2249,0.15875"
       id="path640"
       style="stroke-width:0.264583" />
    <path
       stroke="none"
       fill="#f0a0f0"
       d="m 26.018881,32.78188 q -2.54,1.61396 -5.84729,1.61396 -3.32052,0 -5.84729,-1.61396 2.59291,-0.52916 5.84729,-0.52916 3.24114,0 5.84729,0.52916"
       id="path642"
       style="stroke-width:0.264583" />
    <path
       stroke="none"
       fill="#ffffff"
       d="m 31.019511,11.6549 q 0,1.08479 -0.78053,1.85209 -0.76729,0.78052 -1.86531,0.78052 -1.08479,0 -1.86531,-0.78052 -0.76729,-0.7673 -0.76729,-1.85209 0,-1.11125 0.76729,-1.87854 0.78052,-0.76729 1.86531,-0.76729 1.09802,0 1.86531,0.76729 0.78053,0.76729 0.78053,1.87854 m -1.00542,0.0397 q 0,-0.76729 -0.52917,-1.30969 -0.52916,-0.52916 -1.30969,-0.52916 -0.74083,0 -1.29645,0.52916 -0.52917,0.5424 -0.52917,1.30969 0,0.75406 0.52917,1.28323 0.55562,0.52917 1.29645,0.52917 0.78053,0 1.30969,-0.52917 0.52917,-0.52917 0.52917,-1.28323 M 9.323671,11.6549 q 0,-1.11125 0.76729,-1.87854 0.78052,-0.76729 1.87855,-0.76729 1.07156,0 1.86531,0.76729 0.76729,0.76729 0.76729,1.87854 0,1.08479 -0.76729,1.85209 -0.79375,0.78052 -1.86531,0.78052 -1.09803,0 -1.87855,-0.78052 -0.76729,-0.7673 -0.76729,-1.85209 m 0.99219,0.0397 q 0,0.75406 0.5424,1.28323 0.52916,0.52917 1.29645,0.52917 0.75407,0 1.29646,-0.52917 0.5424,-0.52917 0.5424,-1.28323 0,-0.76729 -0.5424,-1.30969 -0.54239,-0.52916 -1.29646,-0.52916 -0.76729,0 -1.29645,0.52916 -0.5424,0.5424 -0.5424,1.30969"
       id="path644"
       style="stroke-width:0.264583" />
    <path
       stroke="none"
       fill="#5b5b5b"
       d="m 10.315861,11.69459 q 0,-0.76729 0.5424,-1.30969 0.52916,-0.52916 1.29645,-0.52916 0.75407,0 1.29646,0.52916 0.5424,0.5424 0.5424,1.30969 0,0.75406 -0.5424,1.28323 -0.54239,0.52917 -1.29646,0.52917 -0.76729,0 -1.29645,-0.52917 -0.5424,-0.52917 -0.5424,-1.28323 m 19.69823,0 q 0,0.75406 -0.52917,1.28323 -0.52916,0.52917 -1.30969,0.52917 -0.74083,0 -1.29645,-0.52917 -0.52917,-0.52917 -0.52917,-1.28323 0,-0.76729 0.52917,-1.30969 0.55562,-0.52916 1.29645,-0.52916 0.78053,0 1.30969,0.52916 0.52917,0.5424 0.52917,1.30969"
       id="path646"
       style="stroke-width:0.264583" />
  </g>
</svg>
