<?xml version="1.0" encoding="UTF-8" standalone="no"?>
<svg
   width="48"
   height="48"
   version="1.1"
   id="svg18"
   sodipodi:docname="door-closed.svg"
   inkscape:version="1.2.2 (b0a8486541, 2022-12-01)"
   xmlns:inkscape="http://www.inkscape.org/namespaces/inkscape"
   xmlns:sodipodi="http://sodipodi.sourceforge.net/DTD/sodipodi-0.dtd"
   xmlns="http://www.w3.org/2000/svg"
   xmlns:svg="http://www.w3.org/2000/svg">
  <sodipodi:namedview
     id="namedview20"
     pagecolor="#ffffff"
     bordercolor="#000000"
     borderopacity="0.25"
     inkscape:showpageshadow="2"
     inkscape:pageopacity="0.0"
     inkscape:pagecheckerboard="0"
     inkscape:deskcolor="#d1d1d1"
     showgrid="false"
     inkscape:zoom="3.6875"
     inkscape:cx="32.135593"
     inkscape:cy="32.135593"
     inkscape:window-width="1803"
     inkscape:window-height="1117"
     inkscape:window-x="0"
     inkscape:window-y="0"
     inkscape:window-maximized="1"
     inkscape:current-layer="svg18" />
  <defs
     id="defs2" />
  <g
     id="g16"
     transform="scale(0.75)">
    <path
       stroke="none"
       fill="#353541"
       d="m 60,35.3 v -4 Q 59.75,20.15 51.8,12.2 48.2,8.6 44,6.6 38.55,4 32,4 25.45,4 20,6.6 q -4.2,2 -7.8,5.6 -3.7,3.7 -5.75,8.15 -2.3,5 -2.45,10.95 v 4 V 64 H 0 V 31.3 31.2 Q 0.2,24.4 2.85,18.7 5.15,13.6 9.4,9.4 13.5,5.25 18.3,3 24.5,0 32,0 39.5,0 45.75,3 50.5,5.25 54.65,9.4 63.7,18.45 64,31.2 V 31.3 64 H 60 V 35.3"
       id="path4" />
    <path
       stroke="none"
       fill="#e8ebee"
       d="M 60,35.3 Q 59.75,24.15 51.8,16.2 48.2,12.6 44,10.6 38.55,8 32,8 q -6.55,0 -12,2.6 -4.2,2 -7.8,5.6 -3.7,3.7 -5.75,8.15 -2.3,5 -2.45,10.95 v -4 Q 4.15,25.35 6.45,20.35 8.5,15.9 12.2,12.2 15.8,8.6 20,6.6 25.45,4 32,4 q 6.55,0 12,2.6 4.2,2 7.8,5.6 7.95,7.95 8.2,19.1 v 4"
       id="path6" />
    <path
       stroke="none"
       fill="#bbc4cb"
       d="M 60,35.3 V 64 H 50 V 35.4 31.65 Q 49.9,24.5 44.8,19.3 L 44.75,19.25 H 44.7 Q 42.6,17.15 40.15,15.9 L 39.3,15.5 Q 35.9,14 32,14 q -3.9,0 -7.25,1.5 -0.45,0.05 -0.85,0.4 -2.35,1.2 -4.3,3.1 l -0.35,0.3 Q 14.1,24.5 14,31.65 V 35.4 64 H 4 V 35.3 Q 4.15,29.35 6.45,24.35 8.5,19.9 12.2,16.2 15.8,12.6 20,10.6 25.45,8 32,8 q 6.55,0 12,2.6 4.2,2 7.8,5.6 7.95,7.95 8.2,19.1"
       id="path8" />
    <path
       stroke="none"
       fill="#bd6341"
       d="M 14,35.4 V 31.65 Q 14.1,24.5 19.25,19.3 L 19.6,19 q 1.95,-1.9 4.3,-3.1 0.4,-0.35 0.85,-0.4 Q 28.1,14 32,14 q 3.9,0 7.3,1.5 l 0.85,0.4 q 2.45,1.25 4.55,3.35 h 0.05 l 0.05,0.05 q 5.1,5.2 5.2,12.35 v 3.75 q -0.2,-7 -5.2,-12.1 L 44.75,23.25 H 44.7 Q 42.6,21.15 40.15,19.9 L 39.3,19.5 Q 35.9,18 32,18 q -3.9,0 -7.25,1.5 -0.45,0.05 -0.85,0.4 -2.35,1.2 -4.3,3.1 l -0.35,0.3 Q 14.2,28.4 14,35.4 m 30,0.25 V 58 H 20 V 35.75 q 0.1,-4.8 3.5,-8.2 l 0.15,-0.15 0.1,-0.1 q 1.3,-1.25 2.85,-2.05 l 0.35,-0.2 0.2,-0.05 q 2.25,-1 4.85,-1 2.6,0 4.85,1 l 0.25,0.1 0.3,0.15 q 1.65,0.85 3.1,2.3 3.35,3.4 3.5,8.1"
       id="path10" />
    <path
       stroke="none"
       fill="#de7e4f"
       d="m 44,35.65 v -4 q -0.15,-4.7 -3.5,-8.1 -1.45,-1.45 -3.1,-2.3 L 37.1,21.1 36.85,21 Q 34.6,20 32,20 q -2.6,0 -4.85,1 l -0.2,0.05 -0.35,0.2 q -1.55,0.8 -2.85,2.05 l -0.1,0.1 -0.15,0.15 q -3.4,3.4 -3.5,8.2 v 4 V 58 H 44 V 35.65 M 50,35.4 V 64 H 14 V 35.4 q 0.2,-7 5.25,-12.1 L 19.6,23 q 1.95,-1.9 4.3,-3.1 0.4,-0.35 0.85,-0.4 Q 28.1,18 32,18 q 3.9,0 7.3,1.5 l 0.85,0.4 q 2.45,1.25 4.55,3.35 h 0.05 l 0.05,0.05 q 5,5.1 5.2,12.1"
       id="path12" />
    <path
       stroke="none"
       fill="#9f5438"
       d="m 20,35.75 v -4 q 0.1,-4.8 3.5,-8.2 l 0.15,-0.15 0.1,-0.1 q 1.3,-1.25 2.85,-2.05 l 0.35,-0.2 0.2,-0.05 q 2.25,-1 4.85,-1 2.6,0 4.85,1 l 0.25,0.1 0.3,0.15 q 1.65,0.85 3.1,2.3 3.35,3.4 3.5,8.1 v 4 q -0.15,-4.7 -3.5,-8.1 -1.45,-1.45 -3.1,-2.3 L 37.1,25.1 36.85,25 Q 34.6,24 32,24 q -2.6,0 -4.85,1 l -0.2,0.05 -0.35,0.2 q -1.55,0.8 -2.85,2.05 l -0.1,0.1 -0.15,0.15 q -3.4,3.4 -3.5,8.2"
       id="path14" />
  </g>
</svg>
