<?xml version="1.0" encoding="UTF-8" standalone="no"?>
<!-- Created with Inkscape (http://www.inkscape.org/) -->

<svg
   width="50.46315"
   height="42.888962"
   viewBox="0 0 50.46315 42.888962"
   version="1.1"
   id="svg66"
   inkscape:version="1.2.2 (b0a8486541, 2022-12-01)"
   sodipodi:docname="elephant.svg"
   xmlns:inkscape="http://www.inkscape.org/namespaces/inkscape"
   xmlns:sodipodi="http://sodipodi.sourceforge.net/DTD/sodipodi-0.dtd"
   xmlns="http://www.w3.org/2000/svg"
   xmlns:svg="http://www.w3.org/2000/svg">
  <sodipodi:namedview
     id="namedview68"
     pagecolor="#ffffff"
     bordercolor="#000000"
     borderopacity="0.25"
     inkscape:showpageshadow="2"
     inkscape:pageopacity="0.0"
     inkscape:pagecheckerboard="0"
     inkscape:deskcolor="#d1d1d1"
     inkscape:document-units="mm"
     showgrid="false"
     inkscape:zoom="0.2102413"
     inkscape:cx="401.91912"
     inkscape:cy="563.63806"
     inkscape:window-width="1803"
     inkscape:window-height="1117"
     inkscape:window-x="0"
     inkscape:window-y="0"
     inkscape:window-maximized="1"
     inkscape:current-layer="layer1" />
  <defs
     id="defs63" />
  <g
     inkscape:label="Layer 1"
     inkscape:groupmode="layer"
     id="layer1">
    <path
       stroke="none"
       fill="#857e7e"
       d="m 50.459426,12.84549 q -0.0397,1.37583 -0.42333,2.81781 l -0.0132,0.0132 -0.0926,0.34396 v 0.0265 q -1.95792,6.85271 -6.33678,10.98021 -2.56645,2.43416 -5.11968,3.16177 0.30427,1.20385 0.26458,2.69875 l -0.10583,1.48166 q -0.15875,1.33615 -0.50271,2.8575 -0.10583,0.50271 -0.48948,0.92605 l -0.29104,0.21166 q -0.33073,0.2249 -0.71438,0.30427 l -0.30427,0.0132 q -1.48166,0 -2.27541,-2.34156 h 0.0132 l -0.29104,-0.75406 v -0.0132 l -0.37041,-0.80698 -0.0132,-0.0132 -0.29104,-0.51594 q -1.42875,0.68792 -2.96334,1.11125 -0.635,2.77813 -1.01864,5.715 l -0.0265,0.0926 q -0.0397,0.93927 -1.66688,1.4552 h -0.0132 q -0.92604,0.27782 -2.18281,0.27782 -1.25677,0 -2.18281,-0.27782 h -0.0265 q -1.5875,-0.51593 -1.64042,-1.4552 l -0.0132,-0.11907 q -0.34396,-2.97656 -0.89958,-5.64885 -1.61396,-0.42333 -3.09563,-1.15094 l -0.29104,0.51594 -0.0132,0.0265 -0.37042,0.79375 -0.0132,0.0132 -0.27781,0.75406 q -0.79375,2.34156 -2.26219,2.34156 l -0.30427,-0.0132 q -0.39687,-0.0794 -0.7276,-0.30427 l -0.27781,-0.21166 q -0.39688,-0.42334 -0.48948,-0.92605 v -0.0397 l -0.0132,-0.0265 q -0.33073,-1.45521 -0.47625,-2.7649 -0.10583,-0.79375 -0.13229,-1.50812 -0.0397,-1.48167 0.27781,-2.68552 v -0.0132 h -0.0132 Q 9.4359162,29.44813 6.8694562,27.0272 2.4906062,22.8997 0.54591624,16.04699 l -0.0132,-0.0265 -0.0926,-0.35719 q -0.39687,-1.44198 -0.43656,-2.81781 v -0.0132 q -0.0794,-3.14854 1.61395996,-6.05896 2.4077,-4.18041 7.0776,-5.46364 h 0.0132 Q 12.941646,0.19844 16.778106,2.06375 20.588106,0 25.231546,0 q 4.65667,0 8.46667,2.06375 3.82322,-1.86531 8.06979,-0.75406 4.66989,1.28323 7.09083,5.46364 h -0.0132 q 1.69333,2.91042 1.61396,6.05896 v 0.0132 m -32.51729,21.03437 0.0265,-0.0264 -0.0265,0.0264"
       id="path196"
       style="stroke-width:0.264583" />
    <path
       stroke="none"
       fill="#bdb6b6"
       d="m 32.745576,13.16299 -0.0529,0.2249 q -1.13771,4.57729 -0.0265,8.36083 1.16417,3.91583 4.10104,4.69635 2.93688,0.78052 5.91344,-2.02406 2.87073,-2.72521 4.15396,-7.23635 l 0.0661,-0.2249 q 0.78052,-2.93687 -0.74083,-5.56948 -1.50812,-2.61937 -4.43177,-3.42635 -2.9501,-0.76729 -5.56948,0.75406 -2.6326,1.52135 -3.41312,4.445 m 16.65552,-0.35719 q -0.0397,1.27 -0.39688,2.59292 l -0.0926,0.33073 q -1.86531,6.57489 -6.04573,10.53041 -4.31271,4.08782 -8.58573,2.95011 -4.27302,-1.15094 -5.96635,-6.83948 -0.76729,-2.59292 -0.79375,-5.45042 0.0265,-2.96333 0.83344,-6.17802 l 0.0661,-0.33073 q 1.13771,-4.25979 4.96094,-6.45583 3.82323,-2.2225 8.10948,-1.09802 4.24656,1.16417 6.4426,4.97417 1.38907,2.39447 1.46844,4.97416 m -26.45833,4.11427 q -0.0265,2.8575 -0.79375,5.45042 -1.69334,5.68854 -5.96636,6.83948 -4.27302,1.13771 -8.5857298,-2.95011 -4.18041,-3.95552 -6.04572,-10.53041 l -0.0926,-0.33073 q -0.35719,-1.32292 -0.39688,-2.59292 0.0794,-2.57969 1.46844,-4.97416 2.19604,-3.81 6.4426,-4.97417 4.2862498,-1.12448 8.1094798,1.09802 3.82323,2.19604 4.96094,6.45583 l 0.0661,0.33073 q 0.80698,3.21469 0.83344,6.17802 m -5.22552,-3.75708 q -0.78052,-2.92365 -3.41313,-4.445 -2.61937,-1.52135 -5.5694798,-0.75406 -2.92364,0.80698 -4.43177,3.42635 -1.52135,2.63261 -0.74083,5.56948 l 0.0662,0.2249 q 1.28323,4.51114 4.15396,7.23635 2.9765598,2.80458 5.9134298,2.02406 2.93688,-0.78052 4.10105,-4.69635 1.11125,-3.78354 -0.0265,-8.36083 l -0.0529,-0.2249"
       id="path198"
       style="stroke-width:0.264583" />
    <path
       stroke="none"
       fill="#afa8a8"
       d="m 17.717236,13.16299 0.0529,0.2249 q 1.13771,4.57729 0.0265,8.36083 -1.16416,3.91583 -4.10104,4.69635 -2.93687,0.78052 -5.9134398,-2.02406 -2.87073,-2.72521 -4.15395,-7.23635 l -0.0661,-0.2249 q -0.78053,-2.93687 0.74083,-5.56948 1.50812,-2.61937 4.43177,-3.42635 2.9500998,-0.76729 5.5694798,0.75406 2.6326,1.52135 3.41312,4.445 m 15.02834,0 q 0.78052,-2.92365 3.41312,-4.445 2.61938,-1.52135 5.56948,-0.75406 2.92365,0.80698 4.43177,3.42635 1.52136,2.63261 0.74083,5.56948 l -0.0661,0.2249 q -1.28323,4.51114 -4.15396,7.23635 -2.97656,2.80458 -5.91344,2.02406 -2.93687,-0.78052 -4.10104,-4.69635 -1.11125,-3.78354 0.0265,-8.36083 l 0.0529,-0.2249"
       id="path200"
       style="stroke-width:0.264583" />
    <path
       stroke="none"
       fill="#dbd9d9"
       d="m 27.520046,16.92007 q -0.0397,-3.20146 0.83344,-6.70718 l 0.0661,-0.33073 q 1.13771,-4.2598 4.96094,-6.45584 3.82322,-2.2225 8.10947,-1.09802 4.24657,1.16417 6.44261,4.97417 1.53458,2.64583 1.46844,5.50333 -0.0794,-2.57969 -1.46844,-4.97416 -2.19604,-3.81 -6.44261,-4.97417 -4.28625,-1.12448 -8.10947,1.09802 -3.82323,2.19604 -4.96094,6.45583 l -0.0661,0.33073 q -0.80698,3.21469 -0.83344,6.17802 m -4.57729,0 q -0.0265,-2.96333 -0.83343,-6.17802 l -0.0661,-0.33073 q -1.13771,-4.25979 -4.96094,-6.45583 -3.82323,-2.2225 -8.1094798,-1.09802 -4.24656,1.16417 -6.44261,4.97417 -1.38906,2.39447 -1.46843,4.97416 -0.0661,-2.8575 1.46843,-5.50333 2.19605,-3.81 6.44261,-4.97417 4.2862498,-1.12448 8.1094798,1.09802 3.82323,2.19604 4.96094,6.45584 l 0.0661,0.33073 q 0.87312,3.50572 0.83343,6.70718"
       id="path202"
       style="stroke-width:0.264583" />
    <path
       stroke="none"
       fill="#dbd9d9"
       d="m 42.164736,18.5208 q -0.18521,-6.68073 -4.94771,-11.44323 -1.16416,-1.16416 -2.43416,-2.05052 -0.74084,-0.51594 -1.52136,-0.93927 l -0.83343,0.66146 q -2.97657,2.1299 -7.19667,2.1299 -4.2201,0 -7.2099,-2.1299 l -0.8202,-0.64823 q -0.78053,0.42333 -1.52136,0.93927 -1.27,0.88636 -2.42094,2.03729 -4.7757298,4.7625 -4.9476998,11.44323 l -0.0132,-0.52916 q 0,-7.02469 4.9609298,-11.9724 1.12448,-1.12448 2.34156,-1.98438 0.46303,-0.3175 0.93928,-0.60854 3.86291,-2.36802 8.69156,-2.36802 4.84187,0 8.70479,2.35479 l 0.92604,0.60855 q 1.23031,0.87312 2.35479,1.9976 4.94771,4.94771 4.94771,11.9724 v 0.52916"
       id="path204"
       style="stroke-width:0.264583" />
    <path
       stroke="none"
       fill="#d2d0d0"
       d="m 42.164736,18.5208 q -0.11906,4.02167 -1.89177,7.36865 -0.51594,0.97896 -1.17739,1.89177 h -0.0132 q -0.83344,1.13771 -1.87855,2.18281 l -1.23031,1.13771 q -0.54239,0.44979 -1.11125,0.84667 -4.20687,2.97656 -9.63083,2.97656 -5.43719,0 -9.63083,-2.96333 l -1.0848,-0.83344 -1.27,-1.16417 q -2.01083,-2.01083 -3.20145,-4.35239 L 8.5759162,21.19309 v -0.0529 l -0.0529,-0.29104 -0.0132,-0.0661 -0.0132,-0.13229 -0.0265,-0.14552 -0.0397,-0.33073 v -0.0529 l -0.0265,-0.15875 v -0.0661 l -0.0132,-0.0529 v -0.0661 l -0.0132,-0.0794 -0.0132,-0.17198 v -0.0661 l -0.0132,-0.0794 -0.0397,-0.8599 q 0.17198,-6.68073 4.9477098,-11.44323 1.15093,-1.15093 2.42093,-2.03729 0.74084,-0.51594 1.52136,-0.93927 l 0.82021,0.64823 q 2.98979,2.1299 7.20989,2.1299 4.22011,0 7.19667,-2.1299 l 0.83344,-0.66146 q 0.78052,0.42333 1.52135,0.93927 1.27,0.88636 2.43417,2.05052 4.7625,4.7625 4.9477,11.44323"
       id="path206"
       style="stroke-width:0.264583" />
    <path
       stroke="none"
       fill="#fffcf5"
       d="m 14.026306,37.62372 q -0.21167,-0.0397 -0.38365,-0.18521 l -0.0397,-0.0132 q -0.18521,-0.19844 -0.2249,-0.43656 -0.33073,-1.44198 -0.47625,-2.72521 l -0.11906,-1.41552 q -0.15875,-5.18583 4.65667,-6.69396 0.91281,0.83344 1.37583,1.77271 l 0.17198,0.39687 -0.76729,0.7673 q -3.53219,3.65125 -4.08781,7.50093 l -0.10584,1.03188 m 22.41021,0 -0.0926,-1.03188 q -0.56886,-3.84968 -4.10104,-7.50093 l -0.7673,-0.7673 0.18521,-0.39687 q 0.44979,-0.93927 1.36261,-1.77271 4.81541,1.50813 4.65666,6.69396 l -0.10583,1.40229 q -0.14552,1.28323 -0.48948,2.73844 -0.0397,0.23812 -0.2249,0.43656 l -0.0397,0.0132 q -0.17198,0.14552 -0.38365,0.18521"
       id="path208"
       style="stroke-width:0.264583" />
    <path
       stroke="none"
       fill="#cdcbcb"
       d="m 18.987236,28.32361 -0.17198,-0.39687 q -0.46302,-0.93927 -1.37583,-1.77271 1.40229,-0.47625 1.98438,-2.20927 l 1.97114,3.66448 0.55563,1.00542 v 0.0264 l -0.0132,0.0529 -0.0132,0.0132 -0.0926,0.38365 -0.0132,0.0132 -0.27782,0.26458 -0.22489,0.15875 -1.19063,0.67469 q -0.46302,0.25135 -0.87312,0.54239 0.14552,-1.29646 -0.26459,-2.42094 m 12.22375,2.42094 -0.87312,-0.54239 -1.1774,-0.67469 -0.23812,-0.15875 -0.27782,-0.26458 -0.0132,-0.0132 q -0.10584,-0.18521 -0.0926,-0.38365 l -0.0132,-0.0132 -0.0132,-0.0529 v -0.0264 l 0.55563,-1.00542 1.97114,-3.66448 q 0.58209,1.73302 1.98438,2.20927 -0.91281,0.83344 -1.3626,1.77271 l -0.18521,0.39687 q -0.41011,1.12448 -0.26459,2.42094"
       id="path210"
       style="stroke-width:0.264583" />
    <path
       stroke="none"
       fill="#f0ede7"
       d="m 31.210986,30.74455 q -0.14552,-1.29646 0.26459,-2.42094 l 0.76729,0.7673 q 3.53218,3.65125 4.10104,7.50093 l 0.0926,1.03188 q -0.85989,-0.0926 -1.37583,-1.62719 l -0.30427,-0.82021 -0.42333,-0.91281 q -0.41011,-0.76729 -0.89959,-1.41552 -0.75406,-1.01865 -1.73302,-1.77271 l -0.48948,-0.33073 m -17.18468,6.87917 0.10583,-1.03188 q 0.55562,-3.84968 4.08781,-7.50093 l 0.76729,-0.7673 q 0.41011,1.12448 0.26459,2.42094 l -0.48948,0.33073 q -1.01865,0.79375 -1.79917,1.85208 -0.44979,0.62178 -0.82021,1.33615 -0.23812,0.43656 -0.43656,0.91281 l -0.30427,0.82021 q -0.51594,1.53458 -1.37583,1.62719 m 7.36864,-10.01448 0.44979,0.70115 h 0.0132 l 0.0926,0.30427 -0.55562,-1.00542 m 7.11729,1.00542 q 0.0265,-0.18521 0.0926,-0.30427 h 0.0132 q 0.21167,-0.38365 0.44979,-0.70115 l -0.55562,1.00542"
       id="path212"
       style="stroke-width:0.264583" />
    <path
       stroke="none"
       fill="#000000"
       fill-opacity="0.0509804"
       d="m 21.315576,29.52747 0.0794,0.10583 0.44979,0.48948 h 0.0132 l 0.0926,0.21167 v 0.0132 l -0.0132,0.0397 h -0.0132 l -0.0926,0.27782 h -0.0132 l -0.27782,0.18521 -1.41552,0.58208 q -0.46302,0.17198 -0.87312,0.38364 -0.25136,0.0926 -0.48948,0.2249 -0.82021,0.43656 -1.48167,1.00542 l -0.3175,-0.11907 q 0.78052,-1.05833 1.79917,-1.85208 l 0.48948,-0.33073 q 0.4101,-0.29104 0.87312,-0.54239 l 1.19063,-0.67469 m 9.89541,1.21708 0.48948,0.33073 q 0.97896,0.75406 1.73302,1.77271 l -0.29104,0.17198 q -0.64823,-0.55563 -1.44198,-0.97896 -0.23812,-0.13229 -0.48948,-0.2249 -0.4101,-0.21166 -0.87312,-0.38364 l -1.41552,-0.58208 -0.27781,-0.18521 h -0.0132 q -0.10584,-0.13229 -0.0926,-0.27782 h -0.0132 l -0.0132,-0.0397 v -0.0132 q 0.0264,-0.13229 0.0926,-0.21167 h 0.0132 l 0.44979,-0.48948 0.0926,-0.10583 1.1774,0.67469 0.87313,0.54239"
       id="path214"
       style="stroke-width:0.264583" />
    <path
       stroke="none"
       fill="#e7e5e5"
       d="m 18.854946,26.6832 -0.10583,-0.35719 q -0.58209,-2.35479 1.11125,-4.28625 2.01083,-2.19604 5.37104,-2.19604 3.37344,0 5.33135,2.19604 1.74625,1.93146 1.13771,4.28625 l -0.0794,0.35719 q -0.33073,-0.62177 -1.05834,-1.19063 -1.95791,-1.53458 -5.33135,-1.53458 -3.36021,0 -5.37104,1.53458 -0.71438,0.56886 -1.00542,1.19063"
       id="path216"
       style="stroke-width:0.264583" />
    <path
       stroke="none"
       fill="#dbd9d9"
       d="m 18.854946,26.6832 q 0.29104,-0.62177 1.00542,-1.19063 2.01083,-1.53458 5.37104,-1.53458 3.37344,0 5.33135,1.53458 0.72761,0.56886 1.05834,1.19063 -1.46844,3.83646 -2.42094,7.97719 -0.71438,3.0427 -1.13771,6.25739 -0.0926,0.41011 -0.9525,0.67469 -0.79375,0.23812 -1.87854,0.23812 -1.08479,0 -1.89177,-0.23812 -0.83344,-0.26458 -0.92604,-0.67469 -0.38365,-3.32052 -1.01865,-6.25739 -0.97896,-4.43178 -2.54,-7.97719 m 3.16177,1.62719 h -0.0132 q 3.36021,1.54781 6.45583,0 l 0.0132,-0.0132 q 0.18521,-0.0794 0.25136,-0.29105 v 0.0265 q 0.0661,-0.18521 0,-0.34396 -0.0661,-0.21166 -0.25136,-0.29104 h -0.0132 q -3.08239,-1.57427 -6.4426,-0.0132 -0.2249,0.0794 -0.27781,0.30427 -0.0661,0.15875 0,0.34396 0.0661,0.18521 0.27781,0.27782"
       id="path218"
       style="stroke-width:0.264583" />
    <path
       stroke="none"
       fill="#cdcbcb"
       d="m 22.016716,28.31039 q -0.21166,-0.0926 -0.27781,-0.27782 -0.0661,-0.18521 0,-0.34396 0.0529,-0.22489 0.27781,-0.30427 3.36021,-1.56104 6.44261,0.0132 h 0.0132 q 0.18521,0.0794 0.25136,0.29104 0.0661,0.15875 0,0.34396 v -0.0265 q -0.0661,0.21167 -0.25136,0.29105 l -0.0132,0.0132 q -3.09563,1.54781 -6.45584,0 h 0.0132"
       id="path220"
       style="stroke-width:0.264583" />
    <path
       stroke="none"
       fill="#ffffff"
       d="m 14.370256,20.76976 q 0,0.67469 0.47625,1.15094 0.48948,0.47625 1.19063,0.47625 0.67469,0 1.17739,-0.47625 0.48948,-0.47625 0.48948,-1.15094 0,-0.70115 -0.48948,-1.1774 -0.5027,-0.48947 -1.17739,-0.48947 -0.70115,0 -1.19063,0.48947 -0.47625,0.47625 -0.47625,1.1774 m -1.4552,-0.3175 q 0,-1.11125 0.78052,-1.87854 0.78052,-0.78052 1.87854,-0.78052 1.08479,0 1.87854,0.78052 0.76729,0.76729 0.76729,1.87854 0,1.09802 -0.76729,1.85208 -0.79375,0.79375 -1.87854,0.79375 -1.09802,0 -1.87854,-0.79375 -0.78052,-0.75406 -0.78052,-1.85208 m 24.6327,0 q 0,1.09802 -0.78052,1.85208 -0.78052,0.79375 -1.87854,0.79375 -1.08479,0 -1.87854,-0.79375 -0.76729,-0.75406 -0.76729,-1.85208 0,-1.11125 0.76729,-1.87854 0.79375,-0.78052 1.87854,-0.78052 1.09802,0 1.87854,0.78052 0.78052,0.76729 0.78052,1.87854 m -1.45521,0.3175 q 0,-0.70115 -0.47625,-1.1774 -0.48947,-0.48947 -1.19062,-0.48947 -0.67469,0 -1.1774,0.48947 -0.48948,0.47625 -0.48948,1.1774 0,0.67469 0.48948,1.15094 0.50271,0.47625 1.1774,0.47625 0.70115,0 1.19062,-0.47625 0.47625,-0.47625 0.47625,-1.15094"
       id="path222"
       style="stroke-width:0.264583" />
    <path
       stroke="none"
       fill="#5b5b5b"
       d="m 36.092546,20.76976 q 0,0.67469 -0.47625,1.15094 -0.48947,0.47625 -1.19062,0.47625 -0.67469,0 -1.1774,-0.47625 -0.48948,-0.47625 -0.48948,-1.15094 0,-0.70115 0.48948,-1.1774 0.50271,-0.48947 1.1774,-0.48947 0.70115,0 1.19062,0.48947 0.47625,0.47625 0.47625,1.1774 m -21.72229,0 q 0,-0.70115 0.47625,-1.1774 0.48948,-0.48947 1.19063,-0.48947 0.67469,0 1.17739,0.48947 0.48948,0.47625 0.48948,1.1774 0,0.67469 -0.48948,1.15094 -0.5027,0.47625 -1.17739,0.47625 -0.70115,0 -1.19063,-0.47625 -0.47625,-0.47625 -0.47625,-1.15094"
       id="path224"
       style="stroke-width:0.264583" />
  </g>
</svg>
