<?xml version="1.0" encoding="UTF-8" standalone="no"?>
<!-- Created with Inkscape (http://www.inkscape.org/) -->

<svg
   width="36.107048"
   height="40.004978"
   viewBox="0 0 36.107048 40.004978"
   version="1.1"
   id="svg6915"
   inkscape:version="1.2.2 (b0a8486541, 2022-12-01)"
   sodipodi:docname="frog.svg"
   xmlns:inkscape="http://www.inkscape.org/namespaces/inkscape"
   xmlns:sodipodi="http://sodipodi.sourceforge.net/DTD/sodipodi-0.dtd"
   xmlns="http://www.w3.org/2000/svg"
   xmlns:svg="http://www.w3.org/2000/svg">
  <sodipodi:namedview
     id="namedview6917"
     pagecolor="#ffffff"
     bordercolor="#000000"
     borderopacity="0.25"
     inkscape:showpageshadow="2"
     inkscape:pageopacity="0.0"
     inkscape:pagecheckerboard="0"
     inkscape:deskcolor="#d1d1d1"
     inkscape:document-units="mm"
     showgrid="false"
     inkscape:zoom="2.5947375"
     inkscape:cx="75.730203"
     inkscape:cy="137.39347"
     inkscape:window-width="1803"
     inkscape:window-height="1117"
     inkscape:window-x="0"
     inkscape:window-y="0"
     inkscape:window-maximized="1"
     inkscape:current-layer="layer1" />
  <defs
     id="defs6912" />
  <g
     inkscape:label="Layer 1"
     inkscape:groupmode="layer"
     id="layer1">
    <path
       stroke="none"
       fill="#1b8045"
       d="m 29.87753,1.89168 q 0.8599,0.87312 1.32292,1.94469 l 0.0265,0.0661 q 0.44979,1.11125 0.47625,2.4474 v 0.0265 L 31.6767,7.0246 q -0.11907,1.17739 -0.60854,2.18281 l 1.21708,0.18521 q 2.06375,0.54239 3.12208,2.4077 v -0.0132 q 1.05834,1.85208 0.51594,3.91583 l -0.19844,0.59531 v 0.0265 l -0.34396,0.68792 q 0.66146,2.35479 0.66146,5.00062 v 0.52917 0.0265 q -0.17198,6.2177 -4.1275,10.90083 l -1.15094,1.24354 v 0.0132 q -1.09802,1.09802 -2.28864,1.97115 -4.55083,3.30729 -10.42458,3.30729 -6.29709,0 -11.0331302,-3.78354 h -0.01323 l -1.666875,-1.4949 -1.150937,-1.25677 v -0.0132 Q 0.24419578,28.7999 0.07221678,22.59542 l -0.01323,-0.58208 q 0,-2.64583 0.661458,-5.01385 l -0.330729,-0.70115 0.02646,0.0397 -0.224895,-0.635 q -0.555625,-2.06375 0.502708,-3.90261 v -0.0132 Q 1.7787808,9.93514 3.8293008,9.39275 L 5.0463848,9.20754 Q 4.5436758,8.20212 4.4378428,7.03795 L 4.3981528,6.3765 V 6.35 q 0.01323,-1.25677 0.46302,-2.32834 l 0.03969,-0.13229 q 0.463021,-1.13771 1.42875,-2.06375 L 6.4486748,1.71979 Q 8.2742998,0 10.801071,0 l 0.423333,0.0265 q 1.587506,0.0661 2.950106,0.91281 h -0.0265 l 0.21167,0.13229 0.74083,0.55563 0.25136,0.23812 0.0132,0.0132 q 0.96573,0.97896 1.42875,2.18281 l 1.25678,-0.0397 1.28322,0.0397 q 0.46303,-1.21708 1.46844,-2.20927 v 0.0132 l 0.0132,-0.0132 0.0132,-0.0132 q 0.42333,-0.42333 0.88635,-0.7276 l 0.0265,-0.0132 0.18521,-0.13229 Q 23.22318,0.13236 24.85037,0.02653 L 25.30016,3e-5 q 2.64583,0 4.52437,1.83885 l 0.0132,0.0132 0.0397,0.0397"
       id="path474"
       style="stroke-width:0.264583" />
    <path
       stroke="none"
       fill="#31de7a"
       d="m 2.2418008,15.80876 q 1.243542,-3.175 3.836459,-5.76791 Q 8.2213848,7.89772 10.761385,6.68064 12.95743,5.6223 15.43128,5.26512 l 2.61938,-0.18521 2.61937,0.18521 q 2.47385,0.35718 4.6699,1.41552 2.52677,1.21708 4.66989,3.36021 2.60615,2.60614 3.84969,5.76791 l -0.39688,0.11906 q -1.24354,-2.61937 -3.45281,-4.82864 -2.19604,-2.19604 -4.78896,-3.41313 -3.2676,-1.54781 -7.1702,-1.54781 -3.90261,0 -7.170213,1.53458 -2.6061462,1.23032 -4.8021872,3.42636 -2.209271,2.20927 -3.426354,4.81542 l -0.410105,-0.10584"
       id="path476"
       style="stroke-width:0.264583" />
    <path
       stroke="none"
       fill="#23a35a"
       d="m 21.01399,9.4323 0.0926,0.1323 q 0.10584,0.19843 0.0397,0.5027 l -0.0265,0.0794 -0.0661,0.21167 q -0.15875,0.35718 -0.48948,0.68791 l -0.0132,0.0265 q -0.23813,0.2249 -0.56886,0.2249 -0.34395,0 -0.58208,-0.25136 -0.23812,-0.23812 -0.23812,-0.56885 0,-0.18521 0.0661,-0.33073 l 0.15875,-0.23813 0.0265,-0.0265 q 0.39687,-0.39688 0.84667,-0.5424 h 0.0397 q 0.35719,-0.10583 0.56886,0 l 0.14552,0.0926 m -5.43719,1.64042 -0.0265,-0.0265 q -0.33073,-0.33073 -0.47625,-0.68791 -0.0529,-0.10584 -0.0661,-0.21167 l -0.0265,-0.0794 q -0.0794,-0.30427 0.0265,-0.5027 l 0.10583,-0.1323 q 0.0529,-0.0661 0.14552,-0.0926 0.21167,-0.10583 0.56886,0 h 0.0264 q 0.4498,0.13229 0.8599,0.5424 l 0.0265,0.0265 0.15875,0.23813 0.0661,0.33073 q 0,0.33073 -0.25135,0.56885 -0.23813,0.25136 -0.56885,0.25136 -0.33073,0 -0.56886,-0.2249"
       id="path478"
       style="stroke-width:0.264583" />
    <path
       stroke="none"
       fill="#2ecc71"
       d="m 15.5768,11.07272 q 0.23813,0.2249 0.56886,0.2249 0.33072,0 0.56885,-0.25136 0.25135,-0.23812 0.25135,-0.56885 l -0.0661,-0.33073 -0.15875,-0.23813 -0.0265,-0.0265 q -0.4101,-0.41011 -0.8599,-0.5424 h -0.0264 q -0.35719,-0.10583 -0.56886,0 -0.0926,0.0265 -0.14552,0.0926 L 15.008,9.56455 q -0.10584,0.19843 -0.0265,0.5027 l 0.0265,0.0794 q 0.0132,0.10583 0.0661,0.21167 0.14552,0.35718 0.47625,0.68791 l 0.0265,0.0265 M 2.6519558,15.91461 q 1.217083,-2.60615 3.426354,-4.81542 2.196041,-2.19604 4.8021872,-3.42636 3.267603,-1.53458 7.170213,-1.53458 3.9026,0 7.1702,1.54781 2.59292,1.21709 4.78896,3.41313 2.20927,2.20927 3.45281,4.82864 -6.46906,1.73303 -15.39875,1.73303 -8.9296832,0 -15.4119742,-1.74625 M 21.01404,9.43231 20.86852,9.33971 q -0.21167,-0.10583 -0.56886,0 h -0.0397 q -0.4498,0.14552 -0.84667,0.5424 l -0.0265,0.0265 -0.15875,0.23813 q -0.0661,0.14552 -0.0661,0.33073 0,0.33073 0.23812,0.56885 0.23813,0.25136 0.58208,0.25136 0.33073,0 0.56886,-0.2249 l 0.0132,-0.0265 q 0.33073,-0.33073 0.48948,-0.68791 l 0.0661,-0.21167 0.0265,-0.0794 q 0.0662,-0.30427 -0.0397,-0.5027 l -0.0926,-0.1323"
       id="path480"
       style="stroke-width:0.264583" />
    <path
       stroke="none"
       fill="#e5e5e5"
       d="m 34.20347,16.77449 q 0.78052,2.4474 0.78052,5.23875 v 0.52917 q -0.15875,5.84729 -3.87615,10.23937 l -1.09802,1.19063 q -1.03187,1.0451 -2.15635,1.86531 -4.27302,3.10885 -9.80281,3.10885 -5.92667,0 -10.3849002,-3.55864 l -1.5875,-1.41552 -1.084792,-1.19063 Q 1.2760718,28.3897 1.1305508,22.54241 l -0.01323,-0.52917 q 0,-2.79135 0.780521,-5.25198 l 0.343958,0.10584 0.410105,0.10583 q 6.482291,1.74625 15.4119752,1.74625 8.92969,0 15.39875,-1.73302 l 0.39688,-0.11906 0.34396,-0.0926 m -8.98261,16.29833 q -0.15875,-0.60854 -0.71437,-0.91281 -0.52917,-0.30427 -1.12448,-0.14552 -0.60854,0.15875 -0.93927,0.70115 -0.29104,0.52916 -0.13229,1.1377 0.15875,0.59532 0.68791,0.91282 0.55563,0.3175 1.16417,0.15875 0.59531,-0.15875 0.89958,-0.71438 0.3175,-0.54239 0.15875,-1.13771 M 24.91659,29.157 q -0.10583,-0.37042 -0.43656,-0.56885 -0.35719,-0.19844 -0.7276,-0.0926 -0.37042,0.0926 -0.55563,0.43656 -0.19844,0.34396 -0.0926,0.71438 0.0926,0.37042 0.43656,0.56885 0.33073,0.18521 0.70115,0.0926 0.37041,-0.10584 0.58208,-0.43656 0.18521,-0.34396 0.0926,-0.71438 m 3.65125,2.30188 q -0.13229,-0.50271 -0.58208,-0.7673 -0.44979,-0.26458 -0.93927,-0.13229 -0.50271,0.13229 -0.76729,0.59531 -0.26459,0.4498 -0.13229,0.9525 0.14552,0.48948 0.59531,0.75407 0.44979,0.25135 0.9525,0.11906 0.48948,-0.13229 0.75406,-0.58208 0.26458,-0.4498 0.11906,-0.93927"
       id="path482"
       style="stroke-width:0.264583" />
    <path
       stroke="none"
       fill="#ffffff"
       d="m 33.85951,15.80876 0.34396,0.96573 -0.34396,0.0926 -0.39688,0.11906 q -6.46906,1.73302 -15.39875,1.73302 -8.9296832,0 -15.4119742,-1.74625 l -0.410105,-0.10583 -0.343958,-0.10584 0.343958,-0.9525 0.410105,0.10584 q 6.482291,1.74625 15.4119742,1.74625 8.92969,0 15.39875,-1.73303 l 0.39688,-0.11906"
       id="path484"
       style="stroke-width:0.264583" />
    <path
       stroke="none"
       fill="#d7d7d7"
       d="m 28.56784,31.45887 q 0.14552,0.48947 -0.11906,0.93927 -0.26458,0.44979 -0.75406,0.58208 -0.50271,0.13229 -0.9525,-0.11906 -0.44979,-0.26459 -0.59531,-0.75407 -0.1323,-0.5027 0.13229,-0.9525 0.26458,-0.46302 0.76729,-0.59531 0.48948,-0.13229 0.93927,0.13229 0.44979,0.26459 0.58208,0.7673 m -3.65125,-2.30188 q 0.0926,0.37042 -0.0926,0.71438 -0.21167,0.33072 -0.58208,0.43656 -0.37042,0.0926 -0.70115,-0.0926 -0.34396,-0.19843 -0.43656,-0.56885 -0.10584,-0.37042 0.0926,-0.71438 0.18521,-0.34395 0.55563,-0.43656 0.37041,-0.10583 0.7276,0.0926 0.33073,0.19843 0.43656,0.56885 m 0.30427,3.91583 q 0.15875,0.59532 -0.15875,1.13771 -0.30427,0.55563 -0.89958,0.71438 -0.60854,0.15875 -1.16417,-0.15875 -0.52916,-0.3175 -0.68791,-0.91282 -0.15875,-0.60854 0.13229,-1.1377 0.33073,-0.5424 0.93927,-0.70115 0.59531,-0.15875 1.12448,0.14552 0.55562,0.30427 0.71437,0.91281"
       id="path486"
       style="stroke-width:0.264583" />
    <path
       stroke="none"
       fill="#31de7a"
       d="m 19.99534,6.90553 -0.0265,-0.52916 q 0,-2.20927 1.57428,-3.77032 l 0.0132,-0.0132 q 0.37042,-0.35718 0.7673,-0.62177 L 22.4956,1.85202 Q 23.56716,1.1641 24.91653,1.08473 l 0.38365,-0.0265 q 2.20927,0 3.78354,1.53458 l 0.0397,0.0397 q 0.7276,0.74084 1.11125,1.65365 l 0.0132,0.0132 q 0.38364,0.93927 0.39687,2.06375 v 0.0132 L 30.61824,6.9187 Q 30.53884,6.08526 30.24783,5.35766 l -0.0132,-0.0132 Q 29.85098,4.43165 29.12338,3.69082 l -0.0397,-0.0397 Q 27.50941,2.11653 25.30014,2.11653 l -0.38365,0.0265 q -1.34937,0.0794 -2.42093,0.76729 l -0.17198,0.11907 q -0.39688,0.26458 -0.7673,0.62177 l -0.0132,0.0132 Q 20.15401,5.04019 19.99526,6.9055 M 5.4828668,6.932 5.4564068,6.37638 v -0.0132 q 0.01323,-1.16417 0.463021,-2.14313 l -0.03969,0.0662 q 0.383646,-0.93927 1.177396,-1.70656 v 0.0132 Q 8.6181758,1.05831 10.800988,1.05831 l 0.357188,0.0265 q 1.322924,0.0529 2.447404,0.75406 l 0.13229,0.0926 q 0.34396,0.21166 0.66146,0.48948 l 0.19843,0.1852 0.0132,0.0132 q 1.53459,1.54782 1.53459,3.75709 l -0.0265,0.51593 Q 15.94707,5.02706 14.61092,3.67769 L 14.59772,3.66449 14.39929,3.47928 Q 14.08179,3.20147 13.73783,2.9898 L 13.60554,2.8972 Q 12.48106,2.19605 11.158136,2.14313 l -0.357188,-0.0265 q -2.1828122,0 -3.7438542,1.53459 v -0.0132 q -0.79375,0.76729 -1.177396,1.70656 l 0.03969,-0.0661 q -0.357188,0.76729 -0.436563,1.65364"
       id="path488"
       style="stroke-width:0.264583" />
    <path
       stroke="none"
       fill="#2ecc71"
       d="m 5.4829468,6.93199 q 0.07937,-0.88635 0.436563,-1.65364 l -0.03969,0.0661 q 0.383646,-0.93927 1.177396,-1.70656 v 0.0132 Q 8.6182578,2.1165 10.80107,2.1165 l 0.357188,0.0265 q 1.322922,0.0529 2.447402,0.75407 l 0.13229,0.0926 q 0.34396,0.21167 0.66146,0.48948 l 0.19843,0.18521 0.0132,0.0132 q 1.33615,1.34937 1.50813,3.21468 -0.17198,1.905 -1.52136,3.24115 v -0.0132 l -0.0926,0.0926 -0.0662,0.0794 -0.46302,0.37042 -0.0132,0.0132 q -1.41552,1.03187 -3.16177,1.03187 -2.1960422,0.0132 -3.7835422,-1.5875 l 0.05292,0.0397 Q 5.6548768,8.82373 5.4828978,6.93196 M 28.52811,6.37634 v -0.0132 q 0,-0.67469 -0.23813,-1.24354 Q 28.05186,4.56397 27.60206,4.10095 26.64956,3.17491 25.30019,3.17491 l -0.17198,0.0132 q -0.83344,0.0265 -1.4949,0.44979 l -0.0397,0.0265 q -0.29105,0.17198 -0.55563,0.43656 -0.9525,0.93927 -0.9525,2.27542 0,1.33614 0.9525,2.24895 l 0.35719,0.33073 q 0.82021,0.635 1.905,0.635 1.34937,0 2.30187,-0.96573 0.92605,-0.91281 0.92605,-2.24895 m 2.0902,0.54239 q -0.17198,1.86531 -1.50812,3.20146 l -0.0132,0.0132 Q 27.5227,11.7077 25.3002,11.7077 23.47457,11.6945 22.09874,10.63614 l -0.0794,-0.0661 -0.43657,-0.4101 -0.0397,-0.0397 Q 20.154,8.78409 19.99525,6.90555 20.154,5.04024 21.54307,3.66441 l 0.0132,-0.0132 q 0.37042,-0.35719 0.7673,-0.62177 l 0.17198,-0.11907 q 1.07156,-0.68791 2.42093,-0.76729 l 0.38365,-0.0265 q 2.20927,0 3.78354,1.53459 l 0.0397,0.0397 q 0.7276,0.74083 1.11125,1.65364 l 0.0132,0.0132 q 0.29104,0.7276 0.37041,1.56104 M 7.5731548,6.37637 q 0,1.33614 0.9525,2.24895 0.9525,0.96573 2.2754172,0.96573 1.058338,0 1.904998,-0.62177 l 0.30427,-0.25135 0.0926,-0.0926 q 0.92604,-0.91281 0.92604,-2.24895 0,-1.33615 -0.92604,-2.27542 l -0.0926,-0.0794 -0.50271,-0.37041 -0.0132,-0.0132 Q 11.80651,3.21462 10.9863,3.18816 l -0.185208,-0.0132 q -1.3229172,0 -2.2754172,0.92604 -0.46302,0.44979 -0.687916,0.99219 -0.264584,0.58208 -0.264584,1.27 v 0.0132"
       id="path490"
       style="stroke-width:0.264583" />
    <path
       stroke="none"
       fill="#d23007"
       d="m 7.5731548,6.37637 v -0.0132 q 0,-0.68792 0.264584,-1.27 0.224896,-0.5424 0.687916,-0.99219 0.9525,-0.92604 2.2754172,-0.92604 l 0.185208,0.0132 q 0.82021,0.0265 1.50813,0.44979 l 0.0132,0.0132 0.50271,0.37041 0.0926,0.0794 q 0.92604,0.93927 0.92604,2.27542 0,1.33614 -0.92604,2.24895 l -0.0926,0.0926 -0.30427,0.25135 q -0.84666,0.62177 -1.904998,0.62177 -1.3229172,0 -2.2754172,-0.96573 -0.9525,-0.91281 -0.9525,-2.24895 m 20.9550052,0 q 0,1.33614 -0.92605,2.24895 -0.9525,0.96573 -2.30187,0.96573 -1.08479,0 -1.905,-0.635 L 23.03803,8.6253 q -0.9525,-0.91281 -0.9525,-2.24895 0,-1.33615 0.9525,-2.27542 0.26458,-0.26458 0.55563,-0.43656 l 0.0397,-0.0265 q 0.66146,-0.42333 1.4949,-0.44979 l 0.17198,-0.0132 q 1.34937,0 2.30187,0.92604 0.4498,0.46302 0.68792,1.01865 0.23813,0.56885 0.23813,1.24354 v 0.0132 m -1.54782,0.0661 q 0,-0.87312 -0.59531,-1.44198 -0.59531,-0.56885 -1.42875,-0.56885 -0.75406,0 -1.34937,0.48948 l -0.0926,0.0794 Q 22.919,5.56932 22.919,6.44244 q 0,0.82021 0.58208,1.38906 l 0.0132,0.0132 q 0.62177,0.60855 1.44198,0.60855 0.83344,0 1.42875,-0.60855 0.59531,-0.56885 0.59531,-1.40229 m -17.8329142,0 q 0,0.83344 0.595313,1.40229 0.5688542,0.60855 1.4155212,0.60855 0.83344,0 1.42875,-0.60855 l 0.0265,-0.0132 q 0.25135,-0.26458 0.39687,-0.56885 0.17198,-0.37042 0.17198,-0.82021 0,-0.46302 -0.17198,-0.84666 -0.14552,-0.33073 -0.42333,-0.59532 l -0.0926,-0.0794 q -0.56886,-0.48948 -1.33615,-0.48948 -0.846667,0 -1.4155212,0.56885 -0.595313,0.56886 -0.595313,1.44198"
       id="path492"
       style="stroke-width:0.264583" />
    <path
       stroke="none"
       fill="#3f3f3f"
       d="m 9.1474258,6.44251 q 0,-0.87312 0.595313,-1.44198 0.5688542,-0.56885 1.4155212,-0.56885 0.76729,0 1.33615,0.48948 l 0.0926,0.0794 q 0.27781,0.26459 0.42333,0.59532 0.17198,0.38364 0.17198,0.84666 0,0.44979 -0.17198,0.82021 -0.14552,0.30427 -0.39687,0.56885 l -0.0265,0.0132 q -0.59531,0.60855 -1.42875,0.60855 -0.846667,0 -1.4155212,-0.60855 -0.595313,-0.56885 -0.595313,-1.40229 m 17.8329142,0 q 0,0.83344 -0.59531,1.40229 -0.59531,0.60855 -1.42875,0.60855 -0.82021,0 -1.44198,-0.60855 l -0.0132,-0.0132 q -0.58208,-0.56885 -0.58208,-1.38906 0,-0.87312 0.59531,-1.44198 l 0.0926,-0.0794 q 0.59531,-0.48948 1.34937,-0.48948 0.83344,0 1.42875,0.56885 0.59531,0.56886 0.59531,1.44198"
       id="path494"
       style="stroke-width:0.264583" />
    <path
       stroke="none"
       fill="#2ecc71"
       d="m 9.2135718,13.82439 q 0.171979,1.34937 -0.529167,2.57968 -0.833437,1.46844 -2.473854,1.905 -1.627187,0.43657 -3.108854,-0.4101 -1.243541,-0.70115 -1.719791,-1.97115 -0.224896,-1.34937 0.502708,-2.59291 0.846667,-1.46844 2.473854,-1.905 1.640417,-0.43656 3.108854,0.4101 1.217083,0.71438 1.74625,1.98438 M 34.73263,15.92782 q -0.5027,1.25678 -1.74625,1.97115 -1.4552,0.84667 -3.09562,0.4101 -1.64042,-0.43656 -2.48708,-1.905 -0.70115,-1.23031 -0.50271,-2.57968 0.50271,-1.27 1.71979,-1.98438 1.48167,-0.84666 3.12208,-0.4101 1.64042,0.43656 2.46063,1.905 0.7276,1.23031 0.52916,2.59291"
       id="path496"
       style="stroke-width:0.264583" />
    <path
       stroke="none"
       fill="#31de7a"
       d="m 26.90097,13.82439 q 0.0265,-0.26459 0.0926,-0.51594 0.43656,-1.64042 1.905,-2.48708 1.46844,-0.84667 3.10886,-0.41011 1.64041,0.43656 2.47385,1.905 0.84667,1.46844 0.4101,3.10886 l -0.15875,0.5027 q 0.19844,-1.3626 -0.52916,-2.59291 -0.82021,-1.46844 -2.46063,-1.905 -1.64041,-0.43656 -3.12208,0.4101 -1.21708,0.71438 -1.71979,1.98438 m -17.6873982,0 q -0.529167,-1.27 -1.74625,-1.98438 -1.468437,-0.84666 -3.108854,-0.4101 -1.627187,0.43656 -2.473854,1.905 -0.727604,1.24354 -0.502708,2.59291 l -0.17198,-0.5027 q -0.43656202,-1.64042 0.396875,-3.10886 0.859896,-1.46844 2.487084,-1.905 1.640416,-0.43656 3.095625,0.41011 1.481666,0.84666 1.918229,2.48708 l 0.105833,0.51594"
       id="path498"
       style="stroke-width:0.264583" />
  </g>
</svg>
