<?xml version="1.0" encoding="UTF-8" standalone="no"?>
<!-- Created with Inkscape (http://www.inkscape.org/) -->

<svg
   width="42.42701"
   height="44.754345"
   viewBox="0 0 42.42701 44.754345"
   version="1.1"
   id="svg903"
   inkscape:version="1.2.2 (b0a8486541, 2022-12-01)"
   sodipodi:docname="giraffe.svg"
   xmlns:inkscape="http://www.inkscape.org/namespaces/inkscape"
   xmlns:sodipodi="http://sodipodi.sourceforge.net/DTD/sodipodi-0.dtd"
   xmlns="http://www.w3.org/2000/svg"
   xmlns:svg="http://www.w3.org/2000/svg">
  <sodipodi:namedview
     id="namedview905"
     pagecolor="#ffffff"
     bordercolor="#000000"
     borderopacity="0.25"
     inkscape:showpageshadow="2"
     inkscape:pageopacity="0.0"
     inkscape:pagecheckerboard="0"
     inkscape:deskcolor="#d1d1d1"
     inkscape:document-units="mm"
     showgrid="false"
     inkscape:zoom="0.2102413"
     inkscape:cx="401.91912"
     inkscape:cy="563.63806"
     inkscape:window-width="1803"
     inkscape:window-height="1117"
     inkscape:window-x="0"
     inkscape:window-y="0"
     inkscape:window-maximized="1"
     inkscape:current-layer="layer1" />
  <defs
     id="defs900" />
  <g
     inkscape:label="Layer 1"
     inkscape:groupmode="layer"
     id="layer1">
    <path
       stroke="none"
       fill="#987900"
       d="m 30.57301,1.9447611 q 0.7276,1.24354 0.46302,2.65906 l -0.0132,0.0529 -0.0529,0.19844 -0.0132,0.0397 q -0.4101,1.52135 -1.78593,2.34156 l -0.1323,0.0794 -0.0661,0.0397 -0.35719,0.15875 -0.84667,2.43417 Q 29.7,10.689271 31.44625,11.932811 h 0.0132 l 0.50271,0.38365 q 1.16417,-1.23031 2.84427,-2.19604 h 0.0132 q 0.27781,-0.1719799 0.58208,-0.3307299 l 0.10584,-0.0529 q 1.28323,-0.60854 3.06916,0.3704199 l 0.0132,0.0132 q 1.61396,0.89958 2.75167,2.8575 h -0.0132 q 1.12448,1.91823 1.09802,3.77031 v 0.0132 l -0.0265,0.58208 q -0.19844,1.5875 -1.20385,2.288654 l -0.0132,0.0132 -0.25136,0.17198 -0.0661,0.0397 -0.29104,0.15875 -0.0265,0.0265 q -1.11125,0.635 -2.20927,1.03188 0.85989,2.65906 0.85989,5.68854 v 0.52916 0.0397 q -0.13229,4.27302 -2.01083,7.83167 -0.55562,1.03187 -1.25677,2.01083 l -0.10583,0.13229 q -0.84667,1.12448 -1.89177,2.18282 l -1.29646,1.19062 -0.0132,0.0132 -1.1774,0.89958 q -4.47146,3.16177 -10.23937,3.16177 -5.78115,0 -10.23938,-3.14854 v -0.0132 l -1.1509299,-0.87312 -1.33615,-1.23031 q -2.14313,-2.14313 -3.3999,-4.61698 l -0.0662,-0.15875 -1.46843,-4.41854 -0.0529,-0.30428 v -0.0265 l -0.0132,-0.0529 -0.0529,-0.26458 v -0.0529 l -0.0132,-0.0529 v -0.0529 l -0.0132,-0.0529 -0.0397,-0.39688 -0.0265,-0.13229 v -0.0794 l -0.0132,-0.0926 v -0.0132 l -0.0132,-0.0661 -0.0132,-0.14552 -0.0132,-0.14552 -0.0132,-0.14552 -0.0397,-0.87313 -0.0132,-0.58208 q 0,-3.02948 0.87312,-5.68854 -1.09802,-0.39688 -2.20927,-1.03188 l -0.0265,-0.0265 -0.29104,-0.15875 -0.0529,-0.0397 -0.25136,-0.17198 -0.0265,-0.0132 Q 0.22549011,18.931101 0.05351011,17.330371 v 0.0661 l -0.052899999,-0.635 v -0.0132 q -0.026500001,-1.85208 1.098019989,-3.77031 1.12448,-1.95792 2.75167,-2.8575 l 0.0132,-0.0132 q 1.7727,-0.9789599 3.06916,-0.3704199 l 0.10584,0.0529 0.58208,0.3307299 q 1.6801,0.96573 2.8574999,2.18281 l 0.48948,-0.35719 q 1.74625,-1.24354 3.70417,-1.9975999 l -0.84667,-2.43417 -0.52917,-0.25135 -0.0397,-0.0132 -0.0794,-0.0529 q -1.30968,-0.82021 -1.70656,-2.30187 l -0.0132,-0.0397 -0.0397,-0.19844 -0.0132,-0.0529 q -0.27781,-1.41552 0.44979,-2.65906 0.79375,-1.37583002 2.34156,-1.79917002 h 0.0132 q 1.4949,-0.4101 2.81782,0.34396 l 0.11906,0.0529 0.51594,0.35719 -0.0265,-0.0265 q 0.9525,0.74083002 1.29646,2.01083002 0.26458,0.93927 0.0794,1.79917 v -0.0265 q -0.10584,0.52917 -0.37042,1.0451 l -0.0926,0.18521 -0.33072,0.44979 0.5027,2.59292 2.48709,-0.15875 2.52677,0.15875 0.47625,-2.59292 -0.3175,-0.46302 -0.0926,-0.1852 q -0.27781,-0.50271 -0.37041,-1.01865 v 0.0265 q -0.18521,-0.87313 0.0661,-1.78594 v -0.0265 q 0.29104,-1.15094 1.12448,-1.87854 l 0.64823,-0.46302002 0.0132,-0.0132 q 1.37583,-0.80698 2.9501,-0.38365 1.52136,0.41011 2.34157,1.78594002 v 0.0132"
       id="path76"
       style="stroke-width:0.264583" />
    <path
       stroke="none"
       fill="#ffcc00"
       d="m 41.34155,17.211221 q -0.14552,-1.30969 -0.92604,-2.64583 -0.96573,-1.68011 -2.35479,-2.47386 -1.25678,-0.68791 -2.15636,-0.3175 l -0.56885,0.3175 q -2.55323,1.48167 -3.81,3.55865 l -0.15875,-0.13229 -0.25136,-0.19844 0.19844,-0.37042 q 1.25677,-2.3151 4.02167,-3.91583 l 0.56885,-0.3175 q 0.89958,-0.37042 2.15636,0.3175 1.38906,0.79375 2.35479,2.47385 0.96573,1.65365 0.9525,3.24115 l -0.0265,0.46302 M 10.9012,15.636951 q -1.2699999,-2.07698 -3.8099999,-3.54542 l -0.56886,-0.3175 q -0.89958,-0.37041 -2.15635,0.3175 -1.38906,0.79375 -2.35479,2.47386 -0.78052,1.33614 -0.91282,2.64583 l -0.0397,-0.46302 q -0.0132,-1.5875 0.9525,-3.24115 0.96573,-1.6801 2.3548,-2.47385 1.25677,-0.68792 2.15635,-0.3175 l 0.56885,0.3175 q 2.7649,1.60073 4.0216699,3.91583 l 0.19844,0.37042 -0.41011,0.3175"
       id="path78"
       style="stroke-width:0.264583" />
    <path
       stroke="none"
       fill="#e9bb00"
       d="m 10.90124,15.636951 q -0.82021,0.635 -1.5874999,1.40229 -0.9525,-1.07156 -2.38125,-1.905 l -0.46302,-0.25135 q -0.74084,-0.30427 -1.78594,0.25135 -1.13771,0.66146 -1.93146,2.05052 -0.51594,0.87313 -0.68792,1.73302 l -0.19843,-0.13229 q -0.64823,-0.48948 -0.7673,-1.57427 0.1323,-1.30969 0.91282,-2.64583 0.96573,-1.68011 2.35479,-2.47386 1.25677,-0.68791 2.15635,-0.3175 l 0.56886,0.3175 q 2.54,1.46844 3.8099999,3.54542 m 20.62427,0.0132 q 1.25677,-2.07698 3.81,-3.55865 l 0.56885,-0.3175 q 0.89958,-0.37041 2.15636,0.3175 1.38906,0.79375 2.35479,2.47386 0.78052,1.33614 0.92604,2.64583 -0.13229,1.08479 -0.78052,1.57427 l -0.19844,0.13229 q -0.17198,-0.85989 -0.68792,-1.73302 -0.79375,-1.38906 -1.93145,-2.05052 -1.04511,-0.55562 -1.78594,-0.25135 l -0.46302,0.25135 q -1.42875,0.83344 -2.38125,1.905 l -1.5875,-1.38906"
       id="path80"
       style="stroke-width:0.264583" />
    <path
       stroke="none"
       fill="#cba200"
       d="m 33.11301,17.039241 q 0.9525,-1.07156 2.38125,-1.905 l 0.46302,-0.25135 q 0.74083,-0.30427 1.78594,0.25135 1.1377,0.66146 1.93145,2.05052 0.51594,0.87313 0.68792,1.73302 l -0.34396,0.19844 q -2.09021,1.203854 -4.10104,1.481674 -1.09802,-1.865324 -2.72521,-3.492504 l -0.0794,-0.0662 m -31.0488599,1.87854 q 0.17198,-0.85989 0.68792,-1.73302 0.79375,-1.38906 1.93146,-2.05052 1.0451,-0.55562 1.78594,-0.25135 l 0.46302,0.25135 q 1.42875,0.83344 2.38125,1.905 l -0.0794,0.0662 q -1.62719,1.62718 -2.72521,3.492504 -2.01084,-0.27782 -4.10104,-1.481674 l -0.34396,-0.19844"
       id="path82"
       style="stroke-width:0.264583" />
    <path
       stroke="none"
       fill="#eebe00"
       d="m 11.6553,13.811321 q 4.18042,-2.92364 9.55146,-2.92364 5.38427,0 9.55146,2.91041 -0.4498,4.24657 -2.72521,7.421574 -2.83104,3.95552 -6.82625,3.95552 -3.99521,0 -6.82625,-3.95552 -2.27542,-3.175004 -2.72521,-7.408344 m 6.23094,8.268234 q 0.0529,0.21167 0.21166,0.38365 0.17198,0.13229 0.39688,0.17198 l 1.64041,0.17198 q 0.2249,0.0265 0.42334,-0.0926 0.19844,-0.11906 0.29104,-0.33073 l 0.67469,-1.50812 q 0.0926,-0.21167 0.0529,-0.42333 -0.0529,-0.23813 -0.21166,-0.38365 l -1.23032,-1.111254 q -0.17197,-0.15875 -0.39687,-0.17198 -0.2249,-0.0265 -0.42333,0.0794 L 17.873,19.698335 q -0.19844,0.10584 -0.29104,0.33073 -0.0926,0.19844 -0.0397,0.43656 l 0.34396,1.61396 m 2.27541,-6.257394 q 0.11907,-0.18521 0.11907,-0.41011 0,-0.22489 -0.11907,-0.4101 l -1.30968,-1.79917 -0.34396,-0.25135 q -0.2249,-0.0794 -0.43657,0 l -2.10343,0.67469 q -0.2249,0.0794 -0.35719,0.26458 -0.13229,0.17198 -0.13229,0.39687 v 2.2225 q 0,0.23813 0.13229,0.42334 0.13229,0.17198 0.35719,0.23812 l 2.10343,0.68792 q 0.21167,0.0661 0.43657,0 l 0.34396,-0.23813 1.30968,-1.79916 m 3.34698,4.220104 q 0.18521,0.13229 0.41011,0.13229 0.23812,0 0.42333,-0.13229 l 2.56646,-1.865314 q 0.17198,-0.14552 0.23812,-0.35719 0.0662,-0.21167 0,-0.42333 l -0.97896,-3.02948 q -0.0661,-0.2249 -0.23812,-0.35719 -0.18521,-0.13229 -0.42333,-0.13229 h -3.18823 q -0.23813,0 -0.41011,0.13229 -0.18521,0.13229 -0.25135,0.35719 l -0.97896,3.02948 q -0.0661,0.21166 0,0.42333 0.0662,0.21167 0.25135,0.35719 l 2.57969,1.865314"
       id="path84"
       style="stroke-width:0.264583" />
    <path
       stroke="none"
       fill="#ffcc00"
       d="m 23.50863,20.042265 -2.57969,-1.865314 q -0.1852,-0.14552 -0.25135,-0.35719 -0.0661,-0.21167 0,-0.42333 l 0.97896,-3.02948 q 0.0661,-0.2249 0.25135,-0.35719 0.17198,-0.13229 0.41011,-0.13229 h 3.18823 q 0.23812,0 0.42333,0.13229 0.17198,0.13229 0.23812,0.35719 l 0.97896,3.02948 q 0.0662,0.21166 0,0.42333 -0.0661,0.21167 -0.23812,0.35719 l -2.56646,1.865314 q -0.18521,0.13229 -0.42333,0.13229 -0.2249,0 -0.41011,-0.13229 m 7.24959,-6.244174 q 1.27,0.88636 2.43416,2.05053 4.7625,4.762504 4.94771,11.443224 -0.11906,4.02167 -1.89177,7.36865 -0.51594,0.97896 -1.1774,1.89177 h -0.0132 q -0.83343,1.13771 -1.87854,2.18281 l -1.23031,1.13771 q -1.16417,-0.42333 -1.15094,-1.66687 -0.29104,-2.97657 -2.76489,-5.15938 -2.77813,-2.44739 -6.70719,-2.44739 -3.92906,0 -6.72042,2.44739 -2.46062,2.18281 -2.73843,5.15938 -0.35719,1.27 -1.37584,1.69333 l -1.2699999,-1.16417 q -2.01083,-2.01083 -3.20146,-4.35239 l -1.46843,-4.41854 v -0.0529 l -0.0529,-0.29104 -0.0132,-0.0661 -0.0132,-0.13229 -0.0265,-0.14552 -0.0397,-0.33073 v -0.0529 l -0.0265,-0.15875 v -0.0661 l -0.0132,-0.0529 v -0.0661 l -0.0132,-0.0794 -0.0132,-0.17198 v -0.0661 l -0.0132,-0.0794 -0.0397,-0.8599 q 0.17198,-6.68072 4.94771,-11.443224 1.1509299,-1.15094 2.4209299,-2.0373 0.4498,4.23334 2.72521,7.408344 2.83104,3.95552 6.82625,3.95552 3.99521,0 6.82625,-3.95552 2.27541,-3.175004 2.72521,-7.421574 m -10.59657,2.02407 -1.30968,1.79916 -0.34396,0.23813 q -0.2249,0.0661 -0.43657,0 l -2.10343,-0.68792 q -0.2249,-0.0661 -0.35719,-0.23812 -0.13229,-0.18521 -0.13229,-0.42334 v -2.2225 q 0,-0.22489 0.13229,-0.39687 0.13229,-0.18521 0.35719,-0.26458 l 2.10343,-0.67469 q 0.21167,-0.0794 0.43657,0 l 0.34396,0.25135 1.30968,1.79917 q 0.11907,0.18521 0.11907,0.4101 0,0.2249 -0.11907,0.41011 m -2.27541,6.257394 -0.34396,-1.61396 q -0.0529,-0.23812 0.0397,-0.43656 0.0926,-0.22489 0.29104,-0.33073 l 1.44198,-0.833434 q 0.19843,-0.10584 0.42333,-0.0794 0.2249,0.0132 0.39687,0.17198 l 1.23032,1.111254 q 0.15875,0.14552 0.21166,0.38365 0.0397,0.21166 -0.0529,0.42333 l -0.67469,1.50812 q -0.0926,0.21167 -0.29104,0.33073 -0.19844,0.11907 -0.42334,0.0926 l -1.64041,-0.17198 q -0.2249,-0.0397 -0.39688,-0.17198 -0.15875,-0.17198 -0.21166,-0.38365"
       id="path86"
       style="stroke-width:0.264583" />
    <path
       stroke="none"
       fill="#ffd738"
       d="m 38.14009,27.291845 q -0.18521,-6.68072 -4.94771,-11.443224 -1.16416,-1.16417 -2.43416,-2.05053 -4.16719,-2.91041 -9.55146,-2.91041 -5.37104,0 -9.55146,2.92364 -1.27,0.88636 -2.4209399,2.0373 -4.77573,4.762504 -4.94771,11.443224 l -0.0132,-0.52916 q 0,-7.02469 4.96094,-11.972404 1.1244799,-1.12448 2.3415599,-1.98437 4.20688,-2.9765699 9.63084,-2.9765699 5.43718,0 9.63083,2.9633399 1.23031,0.87312 2.35479,1.9976 4.94771,4.947714 4.94771,11.972404 v 0.52916"
       id="path88"
       style="stroke-width:0.264583" />
    <path
       stroke="none"
       fill="#d2a800"
       d="m 10.49113,39.899245 q 1.01865,-0.42333 1.37584,-1.69333 0.27781,-2.97657 2.73843,-5.15938 2.79136,-2.44739 6.72042,-2.44739 3.92906,0 6.70719,2.44739 2.47385,2.18281 2.76489,5.15938 -0.0132,1.24354 1.15094,1.66687 l -1.11125,0.84667 q -4.20687,2.97656 -9.63083,2.97656 -5.43719,0 -9.63084,-2.96333 l -1.08479,-0.83344 m 15.72948,-5.72823 q -0.39687,-0.39687 -1.17739,-0.17198 -0.78053,0.21167 -1.48167,0.91281 l -0.0397,0.0397 q -0.37042,0.38365 -0.37042,0.93927 0,0.56886 0.39688,0.96573 0.39687,0.39688 0.96573,0.39688 0.54239,0 0.93927,-0.37042 l 0.0397,-0.0397 q 0.70114,-0.70114 0.91281,-1.48166 0.2249,-0.78052 -0.18521,-1.19063 m -9.02229,2.71198 q 0.39687,0.37042 0.93927,0.37042 0.56885,0 0.96573,-0.39688 0.39687,-0.39687 0.39687,-0.96573 0,-0.55562 -0.37041,-0.93927 l -0.0397,-0.0397 q -0.70115,-0.70114 -1.48167,-0.91281 -0.78052,-0.22489 -1.17739,0.17198 -0.41011,0.41011 -0.18521,1.19063 0.21167,0.78052 0.91281,1.48166 l 0.0397,0.0397"
       id="path90"
       style="stroke-width:0.264583" />
    <path
       stroke="none"
       fill="#a38200"
       d="m 17.19832,36.882995 -0.0397,-0.0397 q -0.70114,-0.70114 -0.91281,-1.48166 -0.2249,-0.78052 0.18521,-1.19063 0.39687,-0.39687 1.17739,-0.17198 0.78052,0.21167 1.48167,0.91281 l 0.0397,0.0397 q 0.37041,0.38365 0.37041,0.93927 0,0.56886 -0.39687,0.96573 -0.39688,0.39688 -0.96573,0.39688 -0.5424,0 -0.93927,-0.37042 m 9.02229,-2.71198 q 0.41011,0.41011 0.18521,1.19063 -0.21167,0.78052 -0.91281,1.48166 l -0.0397,0.0397 q -0.39688,0.37042 -0.93927,0.37042 -0.56886,0 -0.96573,-0.39688 -0.39688,-0.39687 -0.39688,-0.96573 0,-0.55562 0.37042,-0.93927 l 0.0397,-0.0397 q 0.70114,-0.70114 1.48167,-0.91281 0.78052,-0.22489 1.17739,0.17198"
       id="path92"
       style="stroke-width:0.264583" />
    <path
       stroke="none"
       fill="#5b5b5b"
       d="m 9.4724901,28.548625 q 0,-0.9525 0.6746799,-1.62719 0.66146,-0.66146 1.62719,-0.66146 0.93927,0 1.61396,0.66146 0.67469,0.67469 0.67469,1.62719 0,0.9525 -0.67469,1.60072 -0.67469,0.67469 -1.61396,0.67469 -0.96573,0 -1.62719,-0.67469 -0.6746799,-0.64822 -0.6746799,-1.60072 m 23.1642699,0 q 0,0.9525 -0.66146,1.60072 -0.66146,0.67469 -1.62719,0.67469 -0.93927,0 -1.62719,-0.67469 -0.66145,-0.64822 -0.66145,-1.60072 0,-0.9525 0.66145,-1.62719 0.68792,-0.66146 1.62719,-0.66146 0.96573,0 1.62719,0.66146 0.66146,0.67469 0.66146,1.62719"
       id="path94"
       style="stroke-width:0.264583" />
    <path
       stroke="none"
       fill="#ffffff"
       d="m 32.63676,28.548625 q 0,-0.9525 -0.66146,-1.62719 -0.66146,-0.66146 -1.62719,-0.66146 -0.93927,0 -1.62719,0.66146 -0.66145,0.67469 -0.66145,1.62719 0,0.9525 0.66145,1.60072 0.68792,0.67469 1.62719,0.67469 0.96573,0 1.62719,-0.67469 0.66146,-0.64822 0.66146,-1.60072 m -23.1642699,0 q 0,0.9525 0.6746799,1.60072 0.66146,0.67469 1.62719,0.67469 0.93927,0 1.61396,-0.67469 0.67469,-0.64822 0.67469,-1.60072 0,-0.9525 -0.67469,-1.62719 -0.67469,-0.66146 -1.61396,-0.66146 -0.96573,0 -1.62719,0.66146 -0.6746799,0.67469 -0.6746799,1.62719 m -1.24355,-0.0529 q 0,-1.37583 0.96573,-2.34156 0.9657299,-0.96573 2.3415699,-0.96573 1.34937,0 2.32833,0.96573 0.96573,0.96573 0.96573,2.34156 0,1.3626 -0.96573,2.3151 -0.97896,0.97896 -2.32833,0.97896 -1.37584,0 -2.3415699,-0.97896 -0.96573,-0.9525 -0.96573,-2.3151 m 25.6645899,0 q 0,1.3626 -0.96573,2.3151 -0.96573,0.97896 -2.34156,0.97896 -1.34938,0 -2.32834,-0.97896 -0.96573,-0.9525 -0.96573,-2.3151 0,-1.37583 0.96573,-2.34156 0.97896,-0.96573 2.32834,-0.96573 1.37583,0 2.34156,0.96573 0.96573,0.96573 0.96573,2.34156"
       id="path96"
       style="stroke-width:0.264583" />
    <path
       stroke="none"
       fill="#cba200"
       d="m 29.99092,4.3921611 -0.0529,0.22489 q -0.30427,1.11125 -1.30969,1.70657 l -0.13229,0.0794 q -0.34396,0.17198 -0.70115,0.25135 l -1.73302,4.9344799 v 0.0132 q -0.13229,0.33073 -0.43656,0.48948 v 0.0132 l -0.635,0.0661 h 0.0132 q -0.3175,-0.0661 -0.51594,-0.38365 l -0.0132,-0.0265 q -0.17198,-0.29104 -0.0926,-0.62177 L 25.3475,6.0060011 q -0.3175,-0.30428 -0.56886,-0.70115 v -0.0132 q -0.23812,-0.4101 -0.3175,-0.82021 l 0.0529,-0.25135 q 0.21167,-0.83344 0.80698,-1.36261 0.22489,-0.19843 0.48948,-0.35718 1.00541,-0.58209 2.14312,-0.27782 1.11125,0.30427 1.70656,1.30969 0.23813,0.42333 0.33073,0.8599 m -17.5551,0 q 0.0926,-0.43657 0.33073,-0.8599 0.58208,-1.00542 1.70656,-1.30969 1.13771,-0.30427 2.1299,0.29105 h 0.0132 l 0.35718,0.25135 q 0.68792,0.5424 0.93927,1.45521 l 0.0529,0.23812 q -0.0794,0.43657 -0.3175,0.84667 v 0.0132 l -0.56885,0.68792 0.97896,5.1461399 -0.0132,-0.0132 q 0.0529,0.3175 -0.0794,0.59531 l -0.0397,0.0662 h 0.0132 q -0.18521,0.27781 -0.50271,0.38365 l -0.635,-0.0661 -0.0264,-0.0132 q -0.27782,-0.15875 -0.39688,-0.50271 h -0.0132 L 14.64508,6.6543811 q -0.43656,-0.0926 -0.84667,-0.3175 l -0.0661,-0.0397 q -0.9525,-0.59532 -1.24354,-1.68011 l -0.0529,-0.22489"
       id="path98"
       style="stroke-width:0.264583" />
    <path
       stroke="none"
       fill="#dbaf00"
       d="m 12.43582,4.3921611 q -0.19844,-1.01865 0.33073,-1.91823 0.58208,-1.00542 1.70656,-1.30969 1.13771,-0.30427002 2.1299,0.29104 h 0.0132 l 0.35718,0.25136 q 0.68792,0.54239 0.93927,1.4552 0.18521,0.67469 0.0529,1.29646 l -0.0529,-0.23812 q -0.25135,-0.91281 -0.93927,-1.45521 l -0.35718,-0.25135 h -0.0132 q -0.99219,-0.59532 -2.1299,-0.29105 -1.12448,0.30427 -1.70656,1.30969 -0.23813,0.42333 -0.33073,0.8599 m 12.02531,0.0794 q -0.13229,-0.635 0.0529,-1.30969 0.21167,-0.83343 0.80698,-1.3626 0.22489,-0.19844 0.48948,-0.35719 1.00541,-0.58208002 2.14312,-0.27781 1.11125,0.30427 1.70656,1.30969 0.52917,0.89958 0.33073,1.91823 -0.0926,-0.43657 -0.33073,-0.8599 -0.59531,-1.00542 -1.70656,-1.30969 -1.13771,-0.30427 -2.14312,0.27782 -0.26459,0.15875 -0.48948,0.35718 -0.59531,0.52917 -0.80698,1.36261 l -0.0529,0.25135"
       id="path100"
       style="stroke-width:0.264583" />
  </g>
</svg>
