<?xml version="1.0" encoding="UTF-8" standalone="no"?>
<!-- Created with Inkscape (http://www.inkscape.org/) -->

<svg
   width="50.508198"
   height="47.246281"
   viewBox="0 0 50.508198 47.246281"
   version="1.1"
   id="svg706"
   inkscape:version="1.2.2 (b0a8486541, 2022-12-01)"
   sodipodi:docname="goat.svg"
   xmlns:inkscape="http://www.inkscape.org/namespaces/inkscape"
   xmlns:sodipodi="http://sodipodi.sourceforge.net/DTD/sodipodi-0.dtd"
   xmlns="http://www.w3.org/2000/svg"
   xmlns:svg="http://www.w3.org/2000/svg">
  <sodipodi:namedview
     id="namedview708"
     pagecolor="#ffffff"
     bordercolor="#000000"
     borderopacity="0.25"
     inkscape:showpageshadow="2"
     inkscape:pageopacity="0.0"
     inkscape:pagecheckerboard="0"
     inkscape:deskcolor="#d1d1d1"
     inkscape:document-units="mm"
     showgrid="false"
     inkscape:zoom="0.2102413"
     inkscape:cx="401.91912"
     inkscape:cy="563.63806"
     inkscape:window-width="1803"
     inkscape:window-height="1117"
     inkscape:window-x="0"
     inkscape:window-y="0"
     inkscape:window-maximized="1"
     inkscape:current-layer="layer1" />
  <defs
     id="defs703" />
  <g
     inkscape:label="Layer 1"
     inkscape:groupmode="layer"
     id="layer1">
    <path
       stroke="none"
       fill="#6d4526"
       d="m 25.252538,5.97958 q 3.81,0 7.05114,1.37583 3.57188,-2.1299 6.32354,-6.72042 v -0.0132 q 0.2249,-0.37041 0.59532,-0.54239 L 39.328368,0.0265 40.201488,0 q 0.29105,0.0661 0.52917,0.26459 l 0.0926,0.0794 0.0397,0.0397 0.10584,0.13229 q 0.22489,0.29104 0.27781,0.72761 v 0.0794 q 0.18521,5.63563 -2.87073,10.33198 0.76729,0.80698 1.41552,1.6801 l 0.10583,-0.0265 0.0926,-0.0265 q 3.21469,-0.70115 7.17021,0.10583 h -0.0132 l 0.7276,0.14552 0.0794,0.0265 q 1.5875,0.46302 2.24895,2.20927 v 0.0132 q 0.64823,1.69333 -0.0794,3.75708 h -0.0132 q -0.71437,1.98438 -2.26219,3.175 l -0.0397,0.0265 q -1.34938,0.9525 -2.63261,0.96573 h -0.48948 l -0.11906,-0.0132 -0.70115,-0.15875 -0.62177,-0.11906 v 0.55562 0.52917 0.0265 q -0.11906,4.19364 -1.93146,7.67292 -1.25677,2.42093 -3.33375,4.48468 l -0.635,0.59532 -1.08479,0.93927 q -2.51354,1.98437 -5.45041,2.92364 0.93927,1.79917 0.44979,2.8575 l -0.0397,0.11906 q -0.51594,1.61396 -2.67229,1.19063 l -0.0132,-0.0132 -0.21167,-0.0397 -0.0529,0.44979 q -0.1323,0.72761 -0.55563,1.04511 -0.9525,1.17739 -2.40771,-0.44979 l -0.0265,-0.0265 -0.0264,-0.0397 -0.0397,0.0397 -0.0132,0.0132 q -1.42875,1.62719 -2.39448,0.47625 l -0.0397,-0.0265 q -0.38364,-0.29104 -0.52916,-0.99219 v -0.0132 l -0.0529,-0.47625 -0.19844,0.0397 -0.0132,0.0132 q -2.11666,0.4101 -2.65906,-1.12448 -0.10583,-0.15875 -0.13229,-0.3175 -0.35719,-1.0451 0.51594,-2.73844 -2.93688,-0.93927 -5.43719,-2.91041 h -0.0132 l -1.08479,-0.93927 -0.62177,-0.59532 Q 7.4594683,31.63096 7.2742583,24.55336 l -0.0132,-0.58209 0.0132,-0.54239 -0.59531,0.11906 h -0.0132 l -0.72761,0.14552 h -0.0132 l -0.59531,0.0265 q -1.28323,-0.0265 -2.6326,-0.97896 l -0.0265,-0.0265 q -1.56104,-1.19062 -2.27542003,-3.175 -0.74083,-2.06375 -0.0926,-3.75708 v -0.0132 q 0.66146,-1.74625 2.26219003,-2.19604 l 0.0265,-0.0132 0.80698,-0.17198 -0.0529,0.0132 q 3.95552,-0.80698 7.1834297,-0.10583 h 0.0132 l 0.17198,0.0397 q 0.64823,-0.85989 1.42875,-1.6801 Q 9.0734783,6.95862 9.2586783,1.32299 l 0.0132,-0.0794 q 0.0397,-0.43657 0.26459,-0.72761 l 0.11906,-0.13229 0.0397,-0.0397 0.0794,-0.0794 Q 10.012758,0.06615 10.303798,0 l 0.87312,0.0265 0.10584,0.0529 q 0.37041,0.17198 0.59531,0.54239 l 0.0132,0.0132 q 2.73844,4.59052 6.32354,6.72042 3.22792,-1.37583 7.03792,-1.37583"
       id="path742"
       style="stroke-width:0.264583" />
    <path
       stroke="none"
       fill="#704e35"
       d="m 30.266388,43.64301 q -0.13229,-0.47625 -0.44979,-1.05833 -0.70115,-1.38906 -2.03729,-2.51354 -2.63261,-2.02406 -5.05354,0 -1.33615,1.12448 -2.05053,2.51354 -0.3175,0.58208 -0.43656,1.07156 -0.27781,-0.78052 0.43656,-2.12989 0.71438,-1.38906 2.05053,-2.51354 2.42093,-2.02407 5.05354,0 1.33614,1.12448 2.03729,2.51354 0.7276,1.34937 0.44979,2.11666"
       id="path744"
       style="stroke-width:0.264583" />
    <path
       stroke="none"
       fill="#5f422d"
       d="m 30.266388,43.64301 -0.0265,0.0397 q -0.30427,0.82021 -1.49489,0.58209 -0.80698,-0.17198 -1.69334,-0.7673 0.14552,0.58209 0.18521,1.12448 l 0.0132,0.0661 q 0.0397,0.50271 -0.0265,0.83344 -0.0529,0.30427 -0.21166,0.43656 -0.33073,0.29104 -0.92605,-0.37042 -0.44979,-0.52916 -0.83343,-1.40229 -0.39688,0.87313 -0.84667,1.40229 -0.58208,0.66146 -0.92604,0.37042 -0.14552,-0.13229 -0.21167,-0.43656 -0.0661,-0.33073 -0.0132,-0.82021 v -0.0794 q 0.0529,-0.54239 0.19844,-1.12448 -0.88635,0.59532 -1.69333,0.7673 -1.19063,0.23812 -1.50813,-0.58209 l -0.0132,-0.0265 q 0.11906,-0.48948 0.43656,-1.07156 0.71438,-1.38906 2.05053,-2.51354 2.42093,-2.02406 5.05354,0 1.33614,1.12448 2.03729,2.51354 0.3175,0.58208 0.44979,1.05833"
       id="path746"
       style="stroke-width:0.264583" />
    <path
       stroke="none"
       fill="#4f3725"
       d="m 8.4514883,22.0001 q -0.4101,-0.13229 -0.85989,-0.44979 -0.96573,-0.74084 -1.40229,-1.94469 -0.43657,-1.19063 -0.0794,-2.20927 0.35719,-0.87313 1.16417,-1.09802 l 0.50271,-0.11907 q 2.6590597,-0.54239 4.8550997,-0.0794 l 0.35719,0.11906 0.88635,0.27781 0.0794,0.15875 q 0.3175,0.89959 -0.14552,1.78594 -0.41011,0.80698 -1.45521,1.61396 -1.45521,1.12448 -3.5189597,1.82563 l -0.38365,0.11906 m 33.6020897,-0.0132 -0.38365,-0.10583 q -2.06375,-0.70115 -3.51896,-1.83886 -1.0451,-0.79375 -1.4552,-1.60073 -0.38365,-0.75406 -0.23813,-1.49489 l 0.0926,-0.30427 0.0794,-0.15875 0.43656,-0.14553 0.44979,-0.13229 0.35719,-0.10583 q 2.19604,-0.47625 4.85511,0.0794 0.27781,0.0132 0.5027,0.11907 0.80698,0.22489 1.16417,1.09802 0.35719,1.00541 -0.0794,2.19604 -0.43657,1.20385 -1.4023,1.95792 -0.44979,0.30427 -0.85989,0.43656"
       id="path748"
       style="stroke-width:0.264583" />
    <path
       stroke="none"
       fill="#5f422d"
       d="m 42.053578,21.98687 q 0.4101,-0.13229 0.85989,-0.43656 0.96573,-0.75407 1.4023,-1.95792 0.43656,-1.19063 0.0794,-2.19604 -0.35719,-0.87313 -1.16417,-1.09802 -0.22489,-0.10584 -0.5027,-0.11907 -2.65907,-0.55562 -4.85511,-0.0794 l -0.35719,0.10583 -0.44979,0.13229 -0.43656,0.14553 0.0661,-0.1323 q 0.5027,-0.93927 1.86531,-1.52135 0.59531,-0.23813 1.32291,-0.42333 2.73844,-0.43657 6.00605,0.21166 l 0.74083,0.17198 q 1.09802,0.3175 1.57427,1.54781 0.48948,1.4023 -0.0926,3.04271 -0.59532,1.69334 -1.95792,2.69875 -0.51594,0.41011 -1.05833,0.56886 h -0.3175 l -0.74084,-0.15875 -0.79375,-0.15875 -1.19062,-0.34396 m -28.17813,-5.49011 -0.88635,-0.27781 -0.35719,-0.11906 q -2.19604,-0.46302 -4.8550997,0.0794 l -0.50271,0.11907 q -0.80698,0.22489 -1.16417,1.09802 -0.35719,1.01864 0.0794,2.20927 0.43656,1.20385 1.40229,1.94469 0.44979,0.3175 0.85989,0.44979 l -1.19062,0.34396 -0.79375,0.15875 -0.74083,0.14552 -0.3175,0.0132 q -0.5424,-0.17198 -1.05834,-0.58209 -1.34937,-0.99218 -1.95791,-2.69875 -0.58209,-1.64041 -0.0926,-3.02948 0.47625,-1.23031 1.57427,-1.56104 l 0.74084,-0.17198 q 3.2676,-0.64823 6.0060397,-0.21166 2.46062,0.62177 3.18823,1.94468 l 0.0661,0.14552"
       id="path750"
       style="stroke-width:0.264583" />
    <path
       stroke="none"
       fill="#704e35"
       d="M 10.621078,14.40656 Q 7.8826383,13.96999 4.6150383,14.61822 l -0.74084,0.17198 q -1.09802,0.33073 -1.57427,1.56104 -0.48948,1.38907 0.0926,3.02948 0.60854,1.70657 1.95791,2.69875 0.51594,0.41011 1.05834,0.58209 -1.01865,-0.0265 -2.10344,-0.79375 -1.30969,-1.00542 -1.91823,-2.68552 -0.59531003,-1.66688 -0.0926,-3.04271 0.46302,-1.23032 1.57427,-1.56104 l 0.68791,-0.14553 q 3.7174,-0.75406 6.7468797,-0.10583 l 0.3175,0.0794 m 29.26291,0 0.3175,-0.0926 q 3.02948,-0.64823 6.74688,0.10584 l 0.68792,0.14552 q 1.11125,0.34395 1.57427,1.57427 0.50271,1.37583 -0.0926,3.04271 -0.60854,1.6801 -1.91823,2.68552 -1.08479,0.76729 -2.10343,0.78052 0.54239,-0.15875 1.05833,-0.56886 1.3626,-1.00541 1.95792,-2.69875 0.58208,-1.64041 0.0926,-3.04271 -0.47625,-1.23031 -1.57427,-1.54781 l -0.74083,-0.17198 q -3.26761,-0.64823 -6.00605,-0.21166"
       id="path752"
       style="stroke-width:0.264583" />
    <path
       stroke="none"
       fill="#bd7841"
       d="m 42.185868,24.50041 q -0.18521,-6.6675 -4.96094,-11.45646 -3.99521,-3.98198 -9.32656,-4.7625 l -2.64583,-0.18521 -2.64584,0.18521 q -5.33135,0.78052 -9.32656,4.7625 -4.7757297,4.78896 -4.9477097,11.45646 l -0.0132,-0.52917 q 0,-4.32593 1.8917697,-7.88458 1.09802,-2.05052 2.83105,-3.84969 l 0.23812,-0.25135 q 0.67469,-0.67469 1.37583,-1.24354 l 0.4498,-0.35719 q 4.37885,-3.34698 10.14677,-3.34698 5.78114,0 10.16,3.36021 l 0.44979,0.35719 1.3626,1.23031 0.25136,0.26458 q 1.71979,1.78594 2.81781,3.83646 1.89177,3.55865 1.89177,7.88458 v 0.52917"
       id="path754"
       style="stroke-width:0.264583" />
    <path
       stroke="none"
       fill="#a16639"
       d="m 42.185868,24.50041 q -0.10583,3.94229 -1.8124,7.2099 -1.19062,2.27541 -3.14854,4.2201 l -0.59531,0.56885 -1.03188,0.88636 q -4.28625,-3.63802 -10.3452,-3.63802 -6.04573,0 -10.34521,3.63802 l -1.03188,-0.88636 -0.59531,-0.56885 q -4.7757297,-4.7625 -4.9477097,-11.43 0.17198,-6.6675 4.9477097,-11.45646 3.99521,-3.98198 9.32656,-4.7625 l 2.64584,-0.18521 2.64583,0.18521 q 5.33135,0.78052 9.32656,4.7625 4.77573,4.78896 4.96094,11.45646 m -12.30313,-7.99042 q 0,-2.73843 -1.3626,-4.65666 -1.34937,-1.91823 -3.2676,-1.91823 -1.91823,0 -3.28084,1.91823 -1.34937,1.91823 -1.34937,4.65666 l 0.0132,0.4498 q 0.0926,5.56947 1.33614,9.59114 1.36261,4.41854 3.28084,4.41854 1.91823,0 3.2676,-4.41854 1.25677,-4.02167 1.3626,-9.59114 v -0.4498"
       id="path756"
       style="stroke-width:0.264583" />
    <path
       stroke="none"
       fill="#b6733f"
       d="m 29.882738,16.50999 v 0.4498 q -0.10583,5.56947 -1.3626,9.59114 -1.34937,4.41854 -3.2676,4.41854 -1.91823,0 -3.28084,-4.41854 -1.24354,-4.02167 -1.33614,-9.59114 l -0.0132,-0.4498 q 0,-2.73843 1.34937,-4.65666 1.36261,-1.91823 3.28084,-1.91823 1.91823,0 3.2676,1.91823 1.3626,1.91823 1.3626,4.65666"
       id="path758"
       style="stroke-width:0.264583" />
    <path
       stroke="none"
       fill="#955e34"
       d="m 14.907328,37.38562 q 4.29948,-3.63802 10.34521,-3.63802 6.05895,0 10.3452,3.63802 -4.445,3.51896 -10.3452,3.51896 -5.90021,0 -10.34521,-3.51896"
       id="path760"
       style="stroke-width:0.264583" />
    <path
       stroke="none"
       fill="#464646"
       d="m 24.061908,35.41447 -0.0794,-0.0265 h 0.0132 q -0.7673,-0.27781 -1.37584,-0.88635 -0.62177,-0.60854 -0.87312,-1.37583 -0.0397,-0.10584 0.0132,-0.19844 l 0.13229,-0.13229 0.19844,-0.0132 1.00541,0.29104 q 2.26219,0.50271 4.32594,0 h 0.0132 l 1.00542,-0.27781 0.1852,0.0132 0.14552,0.13229 v 0.19844 q -0.27781,0.75406 -0.88635,1.3626 -0.60854,0.60854 -1.3626,0.88635 h 0.0132 l -0.0926,0.0397 -0.71437,0.17198 -0.25136,0.0265 -0.56885,-0.0132 -0.19844,-0.0265 -0.64823,-0.17198"
       id="path762"
       style="stroke-width:0.264583" />
    <path
       stroke="none"
       fill="#383838"
       d="m 24.061908,35.41447 0.64823,0.17198 0.19844,0.0265 0.56885,0.0132 0.25136,-0.0265 0.71437,-0.17198 0.21167,0.23813 q 0.25135,0.25135 0.54239,0.39687 0.37042,0.17198 0.80698,0.17198 0.79375,0 1.36261,-0.56885 l 0.33073,-0.43657 0.13229,-0.11906 0.18521,0.0132 1.24354,0.64823 0.11906,0.13229 -0.0132,0.17198 -0.39687,0.60854 -0.27782,0.30427 q -1.12448,1.11125 -2.68552,1.11125 -1.56104,0 -2.67229,-1.11125 l -0.0794,-0.0794 -0.0794,0.0794 q -1.12448,1.11125 -2.68552,1.11125 -1.57427,0 -2.67229,-1.11125 l -0.27781,-0.30427 -0.39688,-0.58208 q -0.0529,-0.0926 -0.0132,-0.17198 0.0132,-0.0926 0.10584,-0.14552 l 1.21708,-0.67469 0.17198,-0.0265 0.14552,0.11907 0.35719,0.46302 q 0.56885,0.56885 1.3626,0.56885 0.43656,0 0.82021,-0.17198 l 0.54239,-0.39687 0.21167,-0.25136"
       id="path764"
       style="stroke-width:0.264583" />
    <path
       stroke="none"
       fill="#5b5b5b"
       d="m 15.013158,21.80166 q 0,-0.64823 0.44979,-1.08479 0.44979,-0.44979 1.08479,-0.44979 0.635,0 1.09803,0.44979 0.44979,0.43656 0.44979,1.08479 0,0.635 -0.44979,1.07156 -0.46303,0.46302 -1.09803,0.46302 -0.635,0 -1.08479,-0.46302 -0.44979,-0.43656 -0.44979,-1.07156 m 20.47875,0 q 0,0.635 -0.44979,1.07156 -0.44979,0.46302 -1.08479,0.46302 -0.635,0 -1.09802,-0.46302 -0.44979,-0.43656 -0.44979,-1.07156 0,-0.64823 0.44979,-1.08479 0.46302,-0.44979 1.09802,-0.44979 0.635,0 1.08479,0.44979 0.44979,0.43656 0.44979,1.08479"
       id="path766"
       style="stroke-width:0.264583" />
    <path
       stroke="none"
       fill="#ffffff"
       d="m 35.491908,21.80166 q 0,-0.64823 -0.44979,-1.08479 -0.44979,-0.44979 -1.08479,-0.44979 -0.635,0 -1.09802,0.44979 -0.44979,0.43656 -0.44979,1.08479 0,0.635 0.44979,1.07156 0.46302,0.46302 1.09802,0.46302 0.635,0 1.08479,-0.46302 0.44979,-0.43656 0.44979,-1.07156 m -21.66937,-0.0397 q 0,-1.01864 0.71437,-1.73302 0.72761,-0.71437 1.74625,-0.71437 1.00542,0 1.73302,0.71437 0.71438,0.71438 0.71438,1.73302 0,1.01865 -0.71438,1.70657 -0.7276,0.74083 -1.73302,0.74083 -1.01864,0 -1.74625,-0.74083 -0.71437,-0.68792 -0.71437,-1.70657 m 1.19062,0.0397 q 0,0.635 0.44979,1.07156 0.44979,0.46302 1.08479,0.46302 0.635,0 1.09803,-0.46302 0.44979,-0.43656 0.44979,-1.07156 0,-0.64823 -0.44979,-1.08479 -0.46303,-0.44979 -1.09803,-0.44979 -0.635,0 -1.08479,0.44979 -0.44979,0.43656 -0.44979,1.08479 m 21.66938,-0.0397 q 0,1.01865 -0.71438,1.70657 -0.7276,0.74083 -1.74625,0.74083 -1.00542,0 -1.73302,-0.74083 -0.71437,-0.68792 -0.71437,-1.70657 0,-1.01864 0.71437,-1.73302 0.7276,-0.71437 1.73302,-0.71437 1.01865,0 1.74625,0.71437 0.71438,0.71438 0.71438,1.73302"
       id="path768"
       style="stroke-width:0.264583" />
    <path
       stroke="none"
       fill="#8e5a32"
       d="m 13.822538,21.76197 q 0,1.01865 0.71437,1.70657 0.72761,0.74083 1.74625,0.74083 1.00542,0 1.73302,-0.74083 0.71438,-0.68792 0.71438,-1.70657 0,-1.01864 -0.71438,-1.73302 -0.7276,-0.71437 -1.73302,-0.71437 -1.01864,0 -1.74625,0.71437 -0.71437,0.71438 -0.71437,1.73302 m -1.4949,-0.91281 v -0.0132 q 0.43656,-1.5875 1.83885,-2.39448 1.42875,-0.82021 3.01625,-0.39687 1.57428,0.4101 2.40771,1.83885 0.82021,1.41552 0.39688,3.00302 v 0.0132 q -0.51594,1.905 -1.98438,2.92365 -1.49489,1.05833 -3.06916,0.64823 -1.5875,-0.42334 -2.3548,-2.09021 -0.75406,-1.62719 -0.25135,-3.53219 m 24.3549,0.91281 q 0,-1.01864 -0.71438,-1.73302 -0.7276,-0.71437 -1.74625,-0.71437 -1.00542,0 -1.73302,0.71437 -0.71437,0.71438 -0.71437,1.73302 0,1.01865 0.71437,1.70657 0.7276,0.74083 1.73302,0.74083 1.01865,0 1.74625,-0.74083 0.71438,-0.68792 0.71438,-1.70657 m 1.49489,-0.91281 q 0.50271,1.905 -0.25135,3.53219 -0.76729,1.66687 -2.35479,2.09021 -1.57427,0.4101 -3.06917,-0.64823 -1.46844,-1.01865 -1.98438,-2.92365 v -0.0132 q -0.42333,-1.5875 0.39688,-3.00302 0.83344,-1.42875 2.40771,-1.83885 1.5875,-0.42334 3.01625,0.39687 1.40229,0.80698 1.83885,2.39448 v 0.0132"
       id="path770"
       style="stroke-width:0.264583" />
    <path
       stroke="none"
       fill="#ffdfc6"
       d="m 19.974098,12.4751 q -0.37042,-0.96573 -1.91823,-2.06375 -4.36563,-3.16177 -7.60677,-9.32656 h -0.0132 q 0.0661,-0.0529 0.14552,-0.0661 0.11906,-0.0397 0.2249,0 l 0.17198,0.15875 q 3.24114,5.42396 7.60677,7.59354 2.68552,1.29646 1.83885,2.96333 v 0.0132 l -0.44979,0.72761 m 10.55687,0 -0.44979,-0.72761 v -0.0132 q -0.84666,-1.66687 1.83886,-2.96333 4.36562,-2.16958 7.60677,-7.59354 l 0.17198,-0.15875 q 0.10583,-0.0397 0.22489,0 l 0.14552,0.0661 h -0.0132 q -3.24114,6.16479 -7.60677,9.32656 -1.54781,1.09802 -1.91823,2.06375"
       id="path772"
       style="stroke-width:0.264583" />
    <path
       stroke="none"
       fill="#ebceb7"
       d="m 30.530968,12.4751 q 0.37042,-0.96573 1.91823,-2.06375 4.36563,-3.16177 7.60677,-9.32656 h 0.0132 l 0.0397,0.0397 0.0794,0.2249 q 0.21166,6.46906 -4.11428,11.61521 h 0.0132 q -1.56104,2.01083 -3.88937,0.87312 -1.01865,-0.50271 -1.66688,-1.3626 m -10.55687,0 q -0.64823,0.85989 -1.66688,1.3626 -2.32833,1.13771 -3.88937,-0.87312 h 0.0132 Q 10.105078,7.81845 10.316748,1.34939 l 0.0794,-0.2249 0.0397,-0.0397 h 0.0132 q 3.24114,6.16479 7.60677,9.32656 1.54781,1.09802 1.91823,2.06375"
       id="path774"
       style="stroke-width:0.264583" />
  </g>
</svg>
