<?xml version="1.0" encoding="UTF-8" standalone="no"?>
<!-- Created with Inkscape (http://www.inkscape.org/) -->

<svg
   width="47.889549"
   height="35.983299"
   viewBox="0 0 47.889549 35.983299"
   version="1.1"
   id="svg397"
   inkscape:version="1.2.2 (b0a8486541, 2022-12-01)"
   sodipodi:docname="monkey.svg"
   xmlns:inkscape="http://www.inkscape.org/namespaces/inkscape"
   xmlns:sodipodi="http://sodipodi.sourceforge.net/DTD/sodipodi-0.dtd"
   xmlns="http://www.w3.org/2000/svg"
   xmlns:svg="http://www.w3.org/2000/svg">
  <sodipodi:namedview
     id="namedview399"
     pagecolor="#ffffff"
     bordercolor="#000000"
     borderopacity="0.25"
     inkscape:showpageshadow="2"
     inkscape:pageopacity="0.0"
     inkscape:pagecheckerboard="0"
     inkscape:deskcolor="#d1d1d1"
     inkscape:document-units="mm"
     showgrid="false"
     inkscape:zoom="0.2102413"
     inkscape:cx="401.91912"
     inkscape:cy="563.63806"
     inkscape:window-width="1803"
     inkscape:window-height="1117"
     inkscape:window-x="0"
     inkscape:window-y="0"
     inkscape:window-maximized="1"
     inkscape:current-layer="layer1" />
  <defs
     id="defs394" />
  <g
     inkscape:label="Layer 1"
     inkscape:groupmode="layer"
     id="layer1">
    <path
       stroke="none"
       fill="#6d4526"
       d="m 11.231562,5.26525 0.291042,-0.27781 0.01323,-0.0265 Q 16.708438,0 23.94479,0 31.2076,0 36.39344,4.9874 l 0.0132,0.0132 0.26458,0.26458 0.47625,0.50271 1.74625,-0.17198 q 3.7174,0 6.35,2.6326 2.64583,2.65907 2.64583,6.36323 l -0.0132,0.58209 v 0.0132 q -0.1852,3.33375 -2.6326,5.76792 -1.78594,1.78594 -4.04813,2.36802 -0.85989,2.80458 -2.65906,5.22552 l -0.58208,0.75406 v -0.0132 l -0.39688,0.46302 -0.88635,0.9525 q -2.59292,2.59291 -5.715,3.91583 -3.22792,1.3626 -7.01146,1.3626 -2.39448,0 -4.55083,-0.54239 -1.27,-0.33073 -2.447397,-0.82021 -3.135312,-1.32292 -5.715,-3.91583 L 10.33198,29.75237 Q 7.765522,26.84195 6.707188,23.32299 4.431772,22.74091 2.659063,20.95497 0.198438,18.5208 0.01323,15.18705 v -0.0132 L 0,14.59176 Q 0,10.8876 2.659062,8.22853 5.278437,5.59593 8.995833,5.59593 l 1.74625,0.15875 0.489479,-0.48948"
       id="path126"
       style="stroke-width:0.264583" />
    <path
       stroke="none"
       fill="#8e5a32"
       d="m 41.92323,14.59181 q 0,-1.83885 -1.32292,-3.14854 -1.30969,-1.30969 -3.13531,-1.30969 -1.86531,0 -3.175,1.30969 -1.32292,1.30969 -1.32292,3.14854 0,1.86531 1.32292,3.16177 1.30969,1.33615 3.175,1.33615 1.82562,0 3.13531,-1.33615 1.32292,-1.29646 1.32292,-3.16177 m -35.956876,0 q 0,1.86531 1.322917,3.16177 1.309687,1.33615 3.135312,1.33615 1.865313,0 3.175,-1.33615 1.322917,-1.29646 1.322917,-3.16177 0,-1.83885 -1.322917,-3.14854 -1.309687,-1.30969 -3.175,-1.30969 -1.825625,0 -3.135312,1.30969 -1.322917,1.30969 -1.322917,3.14854 M 1.071562,15.12098 Q 1.243542,12.1841 3.399896,10.02775 5.715,7.71265 8.995833,7.71265 q 3.267604,0 5.622396,2.3151 2.129896,2.15635 2.301875,5.09323 -0.171979,2.93687 -2.301875,5.08 -2.354792,2.32833 -5.622396,2.32833 -3.280833,0 -5.595937,-2.32833 -2.156354,-2.14313 -2.328334,-5.08 m 45.746458,0 q -0.17198,2.93687 -2.32833,5.08 -2.31511,2.32833 -5.59594,2.32833 -3.2676,0 -5.6224,-2.32833 -2.12989,-2.14313 -2.30187,-5.08 0.17198,-2.93688 2.30187,-5.09323 2.3548,-2.3151 5.6224,-2.3151 3.28083,0 5.59594,2.3151 2.15635,2.15635 2.32833,5.09323"
       id="path128"
       style="stroke-width:0.264583" />
    <path
       stroke="none"
       fill="#b67340"
       d="m 1.071562,15.12098 -0.01323,-0.52917 q 0,-3.2676 2.341563,-5.62239 2.315104,-2.31511 5.595937,-2.31511 3.267604,0 5.622396,2.31511 2.315104,2.35479 2.315104,5.62239 l -0.01323,0.52917 q -0.171979,-2.93688 -2.301875,-5.09323 -2.354792,-2.3151 -5.622396,-2.3151 -3.280833,0 -5.595937,2.3151 Q 1.24354,12.1841 1.07156,15.12098 m 29.89792,0 -0.0132,-0.52917 q 0,-3.2676 2.3151,-5.62239 2.3548,-2.31511 5.6224,-2.31511 3.28083,0 5.59594,2.31511 2.34156,2.35479 2.34156,5.62239 l -0.0132,0.52917 q -0.17198,-2.93688 -2.32833,-5.09323 -2.31511,-2.3151 -5.59594,-2.3151 -3.2676,0 -5.6224,2.3151 -2.12989,2.15635 -2.30187,5.09323"
       id="path130"
       style="stroke-width:0.264583" />
    <path
       stroke="none"
       fill="#774b2a"
       d="m 5.966354,14.59181 q 0,-1.83885 1.322917,-3.14854 1.309687,-1.30969 3.135312,-1.30969 1.865313,0 3.175,1.30969 1.322917,1.30969 1.322917,3.14854 0,1.86531 -1.322917,3.16177 -1.309687,1.33615 -3.175,1.33615 -1.825625,0 -3.135312,-1.33615 -1.322917,-1.29646 -1.322917,-3.16177 m 35.956876,0 q 0,1.86531 -1.32292,3.16177 -1.30969,1.33615 -3.13531,1.33615 -1.86531,0 -3.175,-1.33615 -1.32292,-1.29646 -1.32292,-3.16177 0,-1.83885 1.32292,-3.14854 1.30969,-1.30969 3.175,-1.30969 1.82562,0 3.13531,1.30969 1.32292,1.30969 1.32292,3.14854"
       id="path132"
       style="stroke-width:0.264583" />
    <path
       stroke="none"
       fill="#a16639"
       d="m 40.87812,18.124 v 0.13229 0.26458 q -0.14552,5.29167 -3.18822,9.39271 l -0.55563,0.70115 -0.37042,0.43656 -0.84666,0.89958 q -2.43417,2.4474 -5.37104,3.69094 -3.04271,1.28323 -6.60136,1.28323 -2.26219,0 -4.29948,-0.51594 -1.17739,-0.29104 -2.288644,-0.76729 -2.950104,-1.24354 -5.38427,-3.69094 L 11.125729,29.05129 Q 7.183437,24.57983 7.011458,18.52087 V 18.25629 18.124 Q 7.156979,11.35067 11.972396,6.53525 l 0.595312,-0.55563 q 0.727604,0.50271 1.693333,0.96573 4.008439,1.91823 9.683749,1.91823 5.67531,0 9.68375,-1.91823 0.96573,-0.46302 1.70656,-0.96573 l 0.58209,0.55563 q 0.97896,0.97896 1.77271,2.05052 3.06916,4.15396 3.18822,9.53823 m -6.35,-5.46365 q -1.95791,-1.95791 -4.70958,-1.95791 -2.77812,0 -4.72281,1.95791 -0.41011,0.39688 -1.15094,0.39688 -0.74083,0 -1.13771,-0.39688 -1.95791,-1.95791 -4.70958,-1.95791 -2.764896,0 -4.722813,1.95791 -1.957916,1.95792 -1.957916,4.70959 0,2.76489 1.957916,4.73604 h 0.01323 l 1.11125,0.89958 q 0.01323,3.87615 2.764896,6.61458 1.098017,1.09803 2.381247,1.75948 1.94469,1.00542 4.29948,1.00542 3.91583,0 6.69396,-2.7649 l 0.88635,-1.00541 q 1.85209,-2.42094 1.87855,-5.60917 l 1.12447,-0.89958 q 1.95792,-1.97115 1.95792,-4.73604 0,-2.75167 -1.95792,-4.70959 m -9.18104,8.95615 q 0.51594,-0.51594 1.08479,-0.68792 0.59532,-0.15875 0.88636,0.13229 0.29104,0.29105 0.13229,0.88636 -0.15875,0.56885 -0.68792,1.08479 l -0.0265,0.0397 q -0.29105,0.27781 -0.68792,0.27781 -0.42333,0 -0.71438,-0.29104 -0.30427,-0.30427 -0.30427,-0.72761 0,-0.4101 0.27782,-0.68791 l 0.0397,-0.0265 m -2.55323,1.44198 q -0.3175,0.29104 -0.7276,0.29104 -0.4101,0 -0.70115,-0.27781 l -0.0264,-0.0397 q -0.52917,-0.51594 -0.67469,-1.08479 -0.15875,-0.59531 0.13229,-0.88636 0.30427,-0.29104 0.88635,-0.13229 0.58209,0.17198 1.0848,0.68792 l 0.0397,0.0265 q 0.27782,0.27781 0.27782,0.68791 0,0.42334 -0.29105,0.72761"
       id="path134"
       style="stroke-width:0.264583" />
    <path
       stroke="none"
       fill="#aa6c3b"
       d="m 12.567708,5.97962 q 4.775729,-4.39208 11.377082,-4.39208 6.61458,0 11.39031,4.39208 -0.74083,0.50271 -1.70656,0.96573 -4.00844,1.91823 -9.68375,1.91823 -5.67531,0 -9.683749,-1.91823 -0.965729,-0.46302 -1.693333,-0.96573"
       id="path136"
       style="stroke-width:0.264583" />
    <path
       stroke="none"
       fill="#b4723f"
       d="M 12.567708,5.97962 11.972396,6.53525 Q 7.156979,11.35067 7.011458,18.124 v -0.13229 q 0,-7.02469 4.960938,-11.98563 L 12.250208,5.7415 q 4.868333,-4.68313 11.694582,-4.68313 6.83948,0 11.70781,4.68313 l 0.26459,0.26458 q 0.97896,0.97896 1.77271,2.05052 3.18822,4.29948 3.18822,9.93511 V 18.124 Q 40.75906,12.73973 37.6899,8.58577 36.89615,7.51421 35.91719,6.53525 L 35.3351,5.97962 Q 30.55937,1.58754 23.94479,1.58754 q -6.601353,0 -11.377082,4.39208"
       id="path138"
       style="stroke-width:0.264583" />
    <path
       stroke="none"
       fill="#ffffff"
       d="m 33.23167,17.76681 q 0,-0.87312 -0.59532,-1.44198 -0.59531,-0.56885 -1.42875,-0.56885 -0.8202,0 -1.44198,0.56885 -0.59531,0.56886 -0.59531,1.44198 0,0.83344 0.59531,1.40229 0.62178,0.60855 1.44198,0.60855 0.83344,0 1.42875,-0.60855 0.59532,-0.56885 0.59532,-1.40229 m 1.54781,-0.0661 q 0,1.33614 -0.92604,2.24895 -0.9525,0.96573 -2.30188,0.96573 -1.32291,0 -2.26219,-0.96573 -0.9525,-0.91281 -0.9525,-2.24895 0,-1.33615 0.9525,-2.27542 0.93928,-0.92604 2.26219,-0.92604 1.34938,0 2.30188,0.92604 0.92604,0.93927 0.92604,2.27542 m -6.13833,6.60135 q 0.76729,2.02406 0,4.31271 -4.1275,1.49489 -8.99584,0 -0.85989,-2.40771 0,-4.32594 l 0.68792,0.11906 q 4.00844,1.4023 7.34219,0.0529 0.47625,-0.19844 0.96573,-0.15875 M 13.295312,17.70067 q 0,-1.33615 0.9525,-2.27542 0.9525,-0.92604 2.275417,-0.92604 1.322921,0 2.301871,0.92604 0.92605,0.93927 0.92605,2.27542 0,1.33614 -0.92605,2.24895 -0.97895,0.96573 -2.301871,0.96573 -1.322917,0 -2.275417,-0.96573 -0.9525,-0.91281 -0.9525,-2.24895 m 1.574271,0.0661 q 0,0.83344 0.595313,1.40229 0.568854,0.60855 1.41552,0.60855 0.833434,0 1.428754,-0.60855 0.59531,-0.56885 0.59531,-1.40229 0,-0.87312 -0.59531,-1.44198 -0.59532,-0.56885 -1.428754,-0.56885 -0.846666,0 -1.41552,0.56885 -0.595313,0.56886 -0.595313,1.44198"
       id="path140"
       style="stroke-width:0.264583" />
    <path
       stroke="none"
       fill="#5b5b5b"
       d="m 14.869583,17.76681 q 0,-0.87312 0.595313,-1.44198 0.568854,-0.56885 1.41552,-0.56885 0.833434,0 1.428754,0.56885 0.59531,0.56886 0.59531,1.44198 0,0.83344 -0.59531,1.40229 -0.59532,0.60855 -1.428754,0.60855 -0.846666,0 -1.41552,-0.60855 -0.595313,-0.56885 -0.595313,-1.40229 m 18.362087,0 q 0,0.83344 -0.59532,1.40229 -0.59531,0.60855 -1.42875,0.60855 -0.8202,0 -1.44198,-0.60855 -0.59531,-0.56885 -0.59531,-1.40229 0,-0.87312 0.59531,-1.44198 0.62178,-0.56885 1.44198,-0.56885 0.83344,0 1.42875,0.56885 0.59532,0.56886 0.59532,1.44198"
       id="path142"
       style="stroke-width:0.264583" />
    <path
       stroke="none"
       fill="#bf8559"
       d="m 34.77948,17.70067 q 0,-1.33615 -0.92604,-2.27542 -0.9525,-0.92604 -2.30188,-0.92604 -1.32291,0 -2.26219,0.92604 -0.9525,0.93927 -0.9525,2.27542 0,1.33614 0.9525,2.24895 0.93928,0.96573 2.26219,0.96573 1.34938,0 2.30188,-0.96573 0.92604,-0.91281 0.92604,-2.24895 m -0.25136,-5.04032 q 1.95792,1.95792 1.95792,4.70959 0,2.76489 -1.95792,4.73604 l -1.12447,0.89958 q -0.0265,3.18823 -1.87855,5.60917 l -0.88635,1.00541 q -2.77813,2.7649 -6.69396,2.7649 -2.35479,0 -4.29948,-1.00542 -1.28323,-0.66145 -2.381248,-1.75948 -2.751666,-2.73843 -2.764896,-6.61458 l -1.11125,-0.89958 h -0.01323 q -1.957916,-1.97115 -1.957916,-4.73604 0,-2.75167 1.957916,-4.70959 1.957917,-1.95791 4.722814,-1.95791 2.75167,0 4.70958,1.95791 0.39688,0.39688 1.13771,0.39688 0.74083,0 1.15094,-0.39688 1.94469,-1.95791 4.72281,-1.95791 2.75167,0 4.70958,1.95791 m -9.18104,8.95615 -0.0397,0.0265 q -0.27782,0.27781 -0.27782,0.68791 0,0.42334 0.30427,0.72761 0.29105,0.29104 0.71438,0.29104 0.39687,0 0.68792,-0.27781 l 0.0265,-0.0397 q 0.52917,-0.51594 0.68792,-1.08479 0.15875,-0.59531 -0.13229,-0.88636 -0.29104,-0.29104 -0.88636,-0.13229 -0.56885,0.17198 -1.08479,0.68792 m -2.55323,1.44198 q 0.29105,-0.30427 0.29105,-0.72761 0,-0.4101 -0.27782,-0.68791 l -0.0397,-0.0265 q -0.50271,-0.51594 -1.0848,-0.68792 -0.58208,-0.15875 -0.88635,0.13229 -0.29104,0.29105 -0.13229,0.88636 0.14552,0.56885 0.67469,1.08479 l 0.0264,0.0397 q 0.29105,0.27781 0.70115,0.27781 0.4101,0 0.7276,-0.29104 m 5.8473,5.55625 0.66145,-0.26459 q 0.79375,-0.35718 1.12448,-1.15093 0.3175,-0.80698 -0.0132,-1.61396 -0.33073,-0.80698 -1.1377,-1.12448 l -0.635,-0.15875 q -0.48948,-0.0397 -0.96573,0.15875 -3.33375,1.34938 -7.34219,-0.0529 L 19.6453,24.28881 q -0.46302,0 -0.91281,0.21167 -0.79375,0.38364 -1.07156,1.21708 -0.291046,0.80698 0.0926,1.60073 0.37042,0.78052 1.20386,1.07156 l 0.68791,0.2249 q 4.86834,1.49489 8.99584,0 M 13.295312,17.70067 q 0,1.33614 0.9525,2.24895 0.9525,0.96573 2.275417,0.96573 1.322921,0 2.301871,-0.96573 0.92605,-0.91281 0.92605,-2.24895 0,-1.33615 -0.92605,-2.27542 -0.97895,-0.92604 -2.301871,-0.92604 -1.322917,0 -2.275417,0.92604 -0.9525,0.93927 -0.9525,2.27542"
       id="path144"
       style="stroke-width:0.264583" />
    <path
       stroke="none"
       fill="#e7e7e7"
       d="m 28.64115,24.30202 0.635,0.15875 q 0.80697,0.3175 1.1377,1.12448 0.33073,0.80698 0.0132,1.61396 -0.33073,0.79375 -1.12448,1.15093 l -0.66145,0.26459 q 0.76729,-2.28865 0,-4.31271 m -8.99584,4.31271 -0.68791,-0.2249 q -0.83344,-0.29104 -1.20386,-1.07156 -0.383645,-0.79375 -0.0926,-1.60073 0.27781,-0.83344 1.07156,-1.21708 0.44979,-0.21167 0.91281,-0.21167 -0.85989,1.91823 0,4.32594"
       id="path146"
       style="stroke-width:0.264583" />
  </g>
</svg>
