<?xml version="1.0" encoding="UTF-8" standalone="no"?>
<!-- Created with Inkscape (http://www.inkscape.org/) -->

<svg
   width="73.05143"
   height="44.989079"
   viewBox="0 0 73.05143 44.989079"
   version="1.1"
   id="svg5839"
   inkscape:version="1.2.2 (b0a8486541, 2022-12-01)"
   sodipodi:docname="moose.svg"
   xmlns:inkscape="http://www.inkscape.org/namespaces/inkscape"
   xmlns:sodipodi="http://sodipodi.sourceforge.net/DTD/sodipodi-0.dtd"
   xmlns="http://www.w3.org/2000/svg"
   xmlns:svg="http://www.w3.org/2000/svg">
  <sodipodi:namedview
     id="namedview5841"
     pagecolor="#ffffff"
     bordercolor="#000000"
     borderopacity="0.25"
     inkscape:showpageshadow="2"
     inkscape:pageopacity="0.0"
     inkscape:pagecheckerboard="0"
     inkscape:deskcolor="#d1d1d1"
     inkscape:document-units="mm"
     showgrid="false"
     inkscape:zoom="3.3718347"
     inkscape:cx="134.49651"
     inkscape:cy="74.291897"
     inkscape:window-width="1803"
     inkscape:window-height="1117"
     inkscape:window-x="0"
     inkscape:window-y="0"
     inkscape:window-maximized="1"
     inkscape:current-layer="layer1" />
  <defs
     id="defs5836" />
  <g
     inkscape:label="Layer 1"
     inkscape:groupmode="layer"
     id="layer1">
    <path
       stroke="none"
       fill="#6d4526"
       d="m 70.27326,0.02314877 q 1.28323,0.11906 2.07698,1.15094003 l -0.0132,-0.0132 q 0.66146,0.83343 0.67469,1.85208 l 0.0397,2.07698 v 0.0132 q -0.0265,1.33614 -0.18521,2.61937 v 0.0132 q -0.30427,2.1299 -0.96573,4.0745902 -1.85208,5.37104 -6.61458,9.43239 v 0.0132 q -4.15396,3.47927 -10.82146,4.24656 l 0.0529,1.4949 v 0.52917 0.0265 q -0.11906,4.19365 -1.93145,7.67292 -1.25677,2.42094 -3.33375,4.48469 -5.27844,5.27844 -12.72646,5.27844 -7.44802,0 -12.71323,-5.27844 -5.08,-5.05354 -5.26521,-12.13115 l -0.0132,-0.58208 0.0529,-1.4949 q -6.6675,-0.76729 -10.80823,-4.24656 l -0.0132,-0.0132 Q 3.00302,17.181399 1.16417,11.810359 0.48948,9.8656688 0.19844,7.7357688 v -0.0132 Q 0.02646,6.4393388 0,5.1031988 v -0.0132 l 0.0397,-2.07698 q 0.0132,-1.01865 0.67469,-1.85208 v 0.0132 Q 1.49491,0.14225877 2.79137,0.02319877 h -0.0265 q 1.24354,-0.14552 2.23573,0.62177 1.01864,0.78052003 1.17739,2.05052003 0.2249,1.83885 0.635,3.62479 0.11906,-0.75406 0.67469,-1.40229 0.75406,-1.00542 2.01083,-1.13771 1.28323,-0.15875 2.27542,0.635 l -0.0132,-0.0132 q 1.01865,0.79375 1.16417,2.05052 0.14552,1.24355 0.38364,2.47386 l 0.33073,-0.51594 0.0132,-0.0265 q 0.78052,-0.99219 2.05052,-1.12448 h -0.0265 q 1.27,-0.18521 2.28865,0.60854 l 0.0132,0.0132 q 0.93927,0.74084 1.13771,1.89177 l 0.0529,-0.0264 0.0132,-0.0132 q 1.77271,-0.97896 3.06916,-0.37042 l 0.10584,0.0529 0.58208,0.33073 q 1.91823,1.1112502 3.175,2.5532202 1.78594,-1.30968 3.79677,-2.0902 V 9.9186388 q 0,-1.1774 0.82021,-2.01084 0.82021,-0.84666 2.01084,-0.84666 h 7.56708 q 1.1774,0 2.01083,0.84666 h -0.0132 q 0.83344,0.83344 0.83344,2.01084 v 0.2910402 q 2.01083,0.78052 3.81,2.0902 1.25677,-1.44197 3.175,-2.5532202 h 0.0132 l 0.58208,-0.33073 0.10584,-0.0529 q 1.28323,-0.60854 3.06916,0.37042 l 0.0132,0.0132 0.0397,0.0132 q 0.18521,-1.13771 1.12448,-1.87855 l 0.0132,-0.0132 q 1.01864,-0.79375 2.30187,-0.60854 h -0.0397 q 1.27,0.13229 2.06375,1.12448 l 0.0132,0.0265 0.33072,0.51594 0.38365,-2.47386 q 0.13229,-1.25677 1.15094,-2.05052 l -0.0132,0.0132 q 0.99219,-0.79375 2.27541,-0.635 1.25678,0.13229 2.02407,1.13771 0.54239,0.64823 0.66146,1.40229 0.4101,-1.78594 0.64822,-3.62479 0.14553,-1.27 1.16417,-2.05052003 h 0.0132 q 0.97896,-0.76729 2.2225,-0.62177 h -0.0132"
       id="path360"
       style="stroke-width:0.264583" />
    <path
       stroke="none"
       fill="#774b2a"
       d="m 48.43191,16.665439 q 0.9525,-1.07156 2.38125,-1.905 0.22489,-0.11906 0.46302,-0.25135 0.74083,-0.30428 1.78594,0.25135 1.1377,0.66146 1.93145,2.05052 0.51594,0.87313 0.68792,1.73302 l -0.34396,0.19844 q -2.09021,1.20385 -4.10104,1.48167 -1.09802,-1.86532 -2.72521,-3.4925 l -0.0794,-0.0661 m -23.79927,0 -0.0794,0.0661 q -1.62719,1.62718 -2.72521,3.4925 -2.01083,-0.27782 -4.10104,-1.48167 L 17.383,18.543979 q 0.17198,-0.85989 0.68792,-1.73302 0.79375,-1.38906 1.93145,-2.05052 1.04511,-0.55563 1.78594,-0.25135 l 0.46302,0.25135 q 1.42875,0.83344 2.38125,1.905"
       id="path362"
       style="stroke-width:0.264583" />
    <path
       stroke="none"
       fill="#8e5a32"
       d="m 24.63264,16.665439 q -0.9525,-1.07156 -2.38125,-1.905 l -0.46302,-0.25135 q -0.74084,-0.30428 -1.78594,0.25135 -1.13771,0.66146 -1.93146,2.05052 -0.51594,0.87313 -0.68792,1.73302 l -0.19843,-0.13229 q -0.64823,-0.48948 -0.7673,-1.57427 0.1323,-1.30969 0.91282,-2.64583 0.96573,-1.68011 2.35479,-2.47386 1.25677,-0.68792 2.15635,-0.3175 l 0.56886,0.3175 q 2.54,1.46844 3.81,3.54542 -0.82021,0.635 -1.5875,1.40229 m 22.21177,-1.38906 q 1.25677,-2.07698 3.81,-3.55865 l 0.56885,-0.3175 q 0.89959,-0.37042 2.15636,0.3175 1.38906,0.79375 2.35479,2.47386 0.78052,1.33614 0.92604,2.64583 -0.13229,1.08479 -0.78052,1.57427 l -0.19844,0.13229 q -0.17198,-0.85989 -0.68792,-1.73302 -0.79375,-1.38906 -1.93145,-2.05052 -1.04511,-0.55563 -1.78594,-0.25135 -0.23813,0.13229 -0.46302,0.25135 -1.42875,0.83344 -2.38125,1.905 l -1.5875,-1.38906"
       id="path364"
       style="stroke-width:0.264583" />
    <path
       stroke="none"
       fill="#b67340"
       d="m 46.84441,15.276379 -0.15875,-0.13229 -0.25136,-0.19844 0.19844,-0.37042 q 1.25677,-2.3151 4.02167,-3.91583 l 0.56885,-0.3175 q 0.89959,-0.3704202 2.15636,0.3175 1.38906,0.79375 2.35479,2.47385 0.96573,1.65365 0.9525,3.24115 l -0.0265,0.46302 q -0.14552,-1.30969 -0.92604,-2.64583 -0.96573,-1.68011 -2.35479,-2.47386 -1.25677,-0.68792 -2.15636,-0.3175 l -0.56885,0.3175 q -2.55323,1.48167 -3.81,3.55865 m -30.42708,1.56104 -0.0397,-0.46302 q -0.0132,-1.5875 0.9525,-3.24115 0.96572,-1.6801 2.35479,-2.47385 1.25677,-0.6879202 2.15635,-0.3175 l 0.56886,0.3175 q 2.76489,1.60073 4.02166,3.91583 l 0.19844,0.37042 -0.4101,0.3175 q -1.27,-2.07698 -3.81,-3.54542 l -0.56886,-0.3175 q -0.89958,-0.37042 -2.15635,0.3175 -1.38907,0.79375 -2.35479,2.47386 -0.78053,1.33614 -0.91282,2.64583"
       id="path366"
       style="stroke-width:0.264583" />
    <path
       stroke="none"
       fill="#d49562"
       d="m 65.10066,9.2041888 q 0.0794,1.0715602 0.56885,1.0186502 0.52917,-0.11907 1.23031,-2.1563602 0.68792,-2.56646 1.03188,-5.23875 0.0926,-0.83344 0.76729,-1.34937 0.64823,-0.50271003 1.46844,-0.41011 0.83344,0.0794 1.33614,0.74084 0.4498,0.56885 0.4498,1.25677 l 0.0397,2.01083 -0.0397,-0.9525 q 0,-0.68792 -0.4498,-1.25677 -0.5027,-0.66146 -1.33614,-0.74083 -0.82021,-0.0926 -1.46844,0.4101 -0.67469,0.51594 -0.76729,1.34938 -0.34396,2.67229 -1.03188,5.23875 -0.70114,2.0372902 -1.23031,2.1563502 -0.68792,0.0794 -0.56885,-2.0769802 M 48.76264,23.002209 q -0.15875,-0.51594 0,-1.05833 0.21166,-0.80698 0.96573,-1.20386 l 0.0132,-0.0132 q 3.82322,-2.75166 4.51114,-6.65427 0.47625,-1.98437 0.71438,-4.02166 0.10583,-0.8202102 0.76729,-1.3493802 0.66146,-0.51594 1.49489,-0.39687 0.83344,0.0926 1.34938,0.74083 0.50271,0.66146 0.42333,1.4949002 l -0.0529,0.3175 q -0.10584,-0.41011 -0.37042,-0.75407 -0.51594,-0.6482302 -1.34938,-0.7408302 -0.83343,-0.11906 -1.49489,0.39688 -0.66146,0.5291602 -0.76729,1.3493702 -0.23813,2.03729 -0.71438,4.02167 -0.68792,3.9026 -4.51114,6.65427 l -0.0132,0.0132 q -0.75407,0.39687 -0.96573,1.20385 M 58.8565,12.855439 q 0.0529,0.59531 0.3175,0.64823 0.42333,0.10583 0.97896,-1.68011 0.71437,-2.5664502 1.03187,-5.2519702 0.0926,-0.82021 0.75407,-1.33615 0.64823,-0.51594 1.48166,-0.4101 0.83344,0.0926 1.33615,0.76729 0.55562,0.66146 0.43656,1.48166 l -0.0265,0.35719 q -0.10583,-0.42333 -0.4101,-0.78052 -0.50271,-0.67469 -1.33615,-0.76729 -0.83343,-0.10583 -1.48166,0.4101 -0.66146,0.51594 -0.75407,1.33615 -0.3175,2.6855202 -1.03187,5.2519802 -0.55563,1.78594 -0.97896,1.6801 -0.43656,-0.0794 -0.3175,-1.70656 m -44.66167,0 q 0.11907,1.62719 -0.3175,1.70656 -0.42333,0.10584 -0.97895,-1.6801 -0.71438,-2.56646 -1.03188,-5.2519802 -0.0926,-0.82021 -0.75406,-1.33615 -0.64823,-0.51593 -1.48167,-0.4101 -0.83343,0.0926 -1.33614,0.76729 -0.30427,0.35719 -0.41011,0.78052 l -0.0265,-0.35719 q -0.11906,-0.8202 0.43657,-1.48166 0.5027,-0.67469 1.33614,-0.76729 0.83344,-0.10584 1.48167,0.4101 0.66146,0.51594 0.75406,1.33615 0.3175,2.68552 1.03187,5.2519702 0.55563,1.78594 0.97896,1.68011 0.26459,-0.0529 0.3175,-0.64823 M 7.95059,9.2041888 Q 8.06965,11.360539 7.38173,11.281169 6.85257,11.162109 6.15142,9.1248188 5.4635,6.5583588 5.11955,3.8860688 q -0.0926,-0.83344 -0.7673,-1.34938 -0.64823,-0.50271 -1.46843,-0.4101 -0.83344,0.0794 -1.33615,0.74083 -0.44979,0.56885 -0.44979,1.25677 l -0.0397,0.9525 q -0.0132,-0.99219 0.0397,-2.01083 0,-0.68792 0.44979,-1.25677 0.50271,-0.66146 1.33615,-0.74084 0.8202,-0.0926 1.46843,0.41011 0.67469,0.51593 0.7673,1.34937 0.34395,2.67229 1.03187,5.23875 0.70115,2.0372902 1.23031,2.1563602 0.48948,0.0529 0.56886,-1.0186502 M 24.28861,23.002209 q -0.21167,-0.80698 -0.96573,-1.20385 l -0.0132,-0.0132 q -3.82323,-2.75167 -4.51115,-6.65427 -0.47625,-1.98438 -0.71437,-4.02167 -0.10584,-0.82021 -0.76729,-1.3493702 -0.66146,-0.51594 -1.4949,-0.39688 -0.83344,0.0926 -1.34938,0.7408302 -0.26458,0.34396 -0.37041,0.75407 l -0.0529,-0.3175 q -0.0794,-0.8334402 0.42333,-1.4949002 0.51594,-0.64823 1.34938,-0.74083 0.83343,-0.11907 1.49489,0.39687 0.66146,0.52917 0.76729,1.3493802 0.23813,2.03729 0.71438,4.02166 0.68792,3.90261 4.51115,6.65427 l 0.0132,0.0132 q 0.75406,0.39688 0.96572,1.20386 0.15875,0.54239 0,1.05833"
       id="path368"
       style="stroke-width:0.264583" />
    <path
       stroke="none"
       fill="#bf8658"
       d="m 65.10066,9.2041888 q -0.11907,2.1563502 0.56885,2.0769802 0.52917,-0.11906 1.23031,-2.1563502 0.68792,-2.56646 1.03188,-5.23875 0.0926,-0.83344 0.76729,-1.34938 0.64823,-0.50271 1.46844,-0.4101 0.83344,0.0794 1.33614,0.74083 0.4498,0.56885 0.4498,1.25677 l 0.0397,0.9525 q -0.0265,1.28323 -0.18521,2.51354 Q 61.51557,22.010019 49.11984,23.743039 l -0.17197,-0.25135 q -0.1323,-0.2249 -0.18521,-0.46302 v -0.0265 q 0.21166,-0.80698 0.96573,-1.20385 l 0.0132,-0.0132 q 3.82322,-2.75167 4.51114,-6.65427 0.47625,-1.98438 0.71438,-4.02167 0.10583,-0.82021 0.76729,-1.3493702 0.66146,-0.51594 1.49489,-0.39688 0.83344,0.0926 1.34938,0.7408302 0.26458,0.34396 0.37042,0.75407 l -0.0397,0.26458 q -0.11906,1.13771 -0.0529,1.73302 -0.11906,1.62719 0.3175,1.70656 0.42333,0.10584 0.97896,-1.6801 0.71437,-2.56646 1.03187,-5.2519802 0.0926,-0.82021 0.75407,-1.33615 0.64823,-0.51593 1.48166,-0.4101 0.83344,0.0926 1.33615,0.76729 0.30427,0.35719 0.4101,0.78052 l -0.0529,0.39688 q -0.0661,0.83343 -0.0132,1.37583 m -57.21619,-1.7727 q 0.10584,-0.42333 0.41011,-0.78052 0.50271,-0.67469 1.33614,-0.76729 0.83344,-0.10583 1.48167,0.4101 0.66146,0.51594 0.75406,1.33615 0.3175,2.6855202 1.03188,5.2519802 0.55562,1.78594 0.97896,1.6801 0.43656,-0.0794 0.3175,-1.70656 0.0661,-0.59531 -0.0529,-1.73302 l -0.0397,-0.26458 q 0.10583,-0.41011 0.37041,-0.75407 0.51594,-0.6482302 1.34938,-0.7408302 0.83343,-0.11906 1.49489,0.39688 0.66146,0.5291602 0.76729,1.3493702 0.23813,2.03729 0.71438,4.02167 0.68792,3.9026 4.51115,6.65427 l 0.0132,0.0132 q 0.75406,0.39687 0.96572,1.20385 v 0.0265 l -0.1852,0.46302 -0.17198,0.25135 Q 11.53574,22.010029 1.24345,7.5902388 1.0847,6.3599288 1.05824,5.0766988 l 0.0397,-0.9525 q 0,-0.68792 0.44979,-1.25677 0.50271,-0.66146 1.33614,-0.74083 0.82021,-0.0926 1.46844,0.4101 0.67469,0.51594 0.76729,1.34938 0.34396,2.67229 1.03188,5.23875 0.70114,2.0372902 1.23031,2.1563502 0.68792,0.0794 0.56886,-2.0769802 l -0.0132,-1.37583 -0.0529,-0.39688"
       id="path370"
       style="stroke-width:0.264583" />
    <path
       stroke="none"
       fill="#b47e52"
       d="m 71.80784,7.5902288 q -0.27781,2.02406 -0.91281,3.8761502 -1.75948,5.10646 -6.29708,8.96937 -4.31271,3.59834 -11.49615,4.1275 l -2.9501,-0.11906 q -0.66146,-0.18521 -1.03188,-0.70115 12.39573,-1.73302 22.68802,-16.1528102 m -70.56437,0 q 10.29229,14.4197902 22.68802,16.1528102 -0.37041,0.51594 -1.03187,0.70115 l -2.95011,0.11906 Q 12.76607,24.034089 8.45337,20.435749 3.91576,16.572839 2.15628,11.466379 1.52128,9.6142888 1.24347,7.5902288"
       id="path372"
       style="stroke-width:0.264583" />
    <path
       stroke="none"
       fill="#bd7841"
       d="m 39.17149,11.307629 -2.64583,-0.18521 -2.64584,0.18521 q -5.33135,0.78052 -9.32656,4.7625 -4.77573,4.78896 -4.94771,11.45646 l -0.0132,-0.52917 q 0,-7.01146 4.96094,-11.98563 4.96094,-4.9477 11.9724,-4.9477 7.01146,0 11.97239,4.9477 4.96094,4.97417 4.96094,11.98563 v 0.52917 q -0.18521,-6.6675 -4.96094,-11.45646 -3.9952,-3.98198 -9.32656,-4.7625"
       id="path374"
       style="stroke-width:0.264583" />
    <path
       stroke="none"
       fill="#aa6c3b"
       d="m 39.17149,11.307629 q -0.18521,13.26885 5.3049,23.42885 H 28.57493 q 5.4901,-10.16 5.30489,-23.42885 l 2.64584,-0.18521 2.64583,0.18521"
       id="path376"
       style="stroke-width:0.264583" />
    <path
       stroke="none"
       fill="#a16639"
       d="m 39.17149,11.307629 q 5.33136,0.78052 9.32656,4.7625 4.77573,4.78896 4.96094,11.45646 -0.10583,3.94229 -1.81239,7.20989 -1.19063,2.27542 -3.14855,4.22011 -4.96093,4.97416 -11.97239,4.97416 -7.01146,0 -11.9724,-4.97416 -4.77573,-4.7625 -4.94771,-11.43 0.17198,-6.6675 4.94771,-11.45646 3.99521,-3.98198 9.32656,-4.7625 0.18521,13.26885 -5.30489,23.42885 h 15.90146 q -5.49011,-10.16 -5.3049,-23.42885"
       id="path378"
       style="stroke-width:0.264583" />
    <path
       stroke="none"
       fill="#bd7841"
       d="M 30.96941,10.910749 V 9.9185688 q 0,-0.74084 0.51594,-1.27 0.51593,-0.52917 1.25677,-0.52917 h 7.56708 q 0.7276,0 1.24354,0.52917 0.52917,0.52916 0.52917,1.27 v 0.9921802 q -0.0132,-0.33073 -0.13229,-0.62177 -0.1323,-0.3175002 -0.39688,-0.5820802 -0.51594,-0.52917 -1.24354,-0.52917 h -7.56708 q -0.74084,0 -1.25677,0.52917 -0.25136,0.26458 -0.38365,0.5688502 -0.11906,0.29104 -0.13229,0.635"
       id="path380"
       style="stroke-width:0.264583" />
    <path
       stroke="none"
       fill="#aa6c3b"
       d="m 30.96941,10.910749 q 0.0132,-0.34396 0.13229,-0.635 0.13229,-0.3042702 0.38365,-0.5688502 0.51593,-0.52917 1.25677,-0.52917 h 7.56708 q 0.7276,0 1.24354,0.52917 0.26458,0.26458 0.39688,0.5820802 0.11906,0.29104 0.13229,0.62177 v 3.14854 q -0.0265,0.71438 -0.52917,1.20386 l -1.13771,0.93927 q -3.88937,2.64583 -7.7126,0.0397 -0.70115,-0.4498 -1.21708,-0.97896 -0.48948,-0.48948 -0.51594,-1.20386 v -3.14854"
       id="path382"
       style="stroke-width:0.264583" />
    <path
       stroke="none"
       fill="#b67340"
       d="m 26.61701,35.437629 -0.0132,-0.50271 v -0.26458 q 0.10584,-3.33375 2.89719,-5.72823 2.91042,-2.47386 7.02469,-2.47386 4.10104,0 7.01146,2.47386 2.79135,2.39448 2.91041,5.72823 v 0.26458 l -0.0132,0.50271 q -0.22489,-3.14854 -2.89718,-5.43719 -2.91042,-2.47385 -7.01146,-2.47385 -4.11427,0 -7.02469,2.47385 -2.67229,2.28865 -2.88396,5.43719"
       id="path384"
       style="stroke-width:0.264583" />
    <path
       stroke="none"
       fill="#8e5a32"
       d="m 46.4343,35.437629 q -0.19843,3.18823 -2.89718,5.47687 -2.91042,2.48709 -7.01146,2.48709 -4.11427,0 -7.02469,-2.48709 -2.68552,-2.30187 -2.88396,-5.47687 0.21167,-3.14854 2.88396,-5.43719 2.91042,-2.47385 7.02469,-2.47385 4.10104,0 7.01146,2.47385 2.67229,2.28865 2.89718,5.43719 m -14.03614,-2.51354 q 0.39687,0.37041 0.93927,0.37041 0.56885,0 0.96573,-0.39687 0.39687,-0.39688 0.39687,-0.96573 0,-0.29104 -0.0926,-0.52917 l -0.27781,-0.4101 -0.0397,-0.0397 q -0.67469,-0.67469 -1.42875,-0.89958 l -0.0529,-0.0132 q -0.58208,-0.17198 -0.93927,0.0132 -0.13229,0.0529 -0.23812,0.15875 l -0.15875,0.22489 q -0.17198,0.33073 -0.0529,0.83344 l 0.0265,0.13229 0.11906,0.34396 q 0.25135,0.59531 0.79375,1.13771 l 0.0397,0.0397 m 9.02229,-2.71198 -0.2249,-0.15875 q -0.37041,-0.18521 -0.9525,-0.0132 l -0.0661,0.0265 q -0.75406,0.22489 -1.41552,0.88635 l -0.0397,0.0397 q -0.17198,0.18521 -0.26458,0.4101 -0.10584,0.23813 -0.10584,0.52917 0,0.56885 0.39688,0.96573 0.39687,0.39687 0.96573,0.39687 0.54239,0 0.93927,-0.37041 l 0.0397,-0.0397 q 0.54239,-0.5424 0.79375,-1.13771 l 0.11906,-0.34396 0.0397,-0.13229 q 0.10583,-0.50271 -0.0662,-0.83344 l -0.15875,-0.22489"
       id="path386"
       style="stroke-width:0.264583" />
    <path
       stroke="none"
       fill="#704627"
       d="m 41.42045,30.212109 0.15875,0.22489 q 0.17198,0.33073 0.0662,0.83344 l -0.0397,0.13229 -0.11906,0.34396 q -0.25136,0.59531 -0.79375,1.13771 l -0.0397,0.0397 q -0.39688,0.37041 -0.93927,0.37041 -0.56886,0 -0.96573,-0.39687 -0.39688,-0.39688 -0.39688,-0.96573 0,-0.29104 0.10584,-0.52917 0.0926,-0.22489 0.26458,-0.4101 l 0.0397,-0.0397 q 0.66146,-0.66146 1.41552,-0.88635 l 0.0661,-0.0265 q 0.58209,-0.17198 0.9525,0.0132 l 0.2249,0.15875 m -9.02229,2.71198 -0.0397,-0.0397 q -0.5424,-0.5424 -0.79375,-1.13771 l -0.11906,-0.34396 -0.0265,-0.13229 q -0.11906,-0.50271 0.0529,-0.83344 l 0.15875,-0.22489 q 0.10583,-0.10584 0.23812,-0.15875 0.35719,-0.18521 0.93927,-0.0132 l 0.0529,0.0132 q 0.75406,0.22489 1.42875,0.89958 l 0.0397,0.0397 0.27781,0.4101 q 0.0926,0.23813 0.0926,0.52917 0,0.56885 -0.39687,0.96573 -0.39688,0.39687 -0.96573,0.39687 -0.5424,0 -0.93927,-0.37041"
       id="path388"
       style="stroke-width:0.264583" />
    <path
       stroke="none"
       fill="#ffffff"
       d="m 48.10118,22.433359 q 0,-0.9525 -0.66146,-1.62719 -0.66146,-0.66146 -1.62719,-0.66146 -0.93927,0 -1.62718,0.66146 -0.66146,0.67469 -0.66146,1.62719 0,0.9525 0.66146,1.60073 0.68791,0.67468 1.62718,0.67468 0.96573,0 1.62719,-0.67468 0.66146,-0.64823 0.66146,-1.60073 m 1.25677,-0.0529 q 0,1.3626 -0.96573,2.3151 -0.96573,0.97896 -2.34156,0.97896 -1.34938,0 -2.32834,-0.97896 -0.96572,-0.9525 -0.96572,-2.3151 0,-1.37583 0.96572,-2.34156 0.97896,-0.96573 2.32834,-0.96573 1.37583,0 2.34156,0.96573 0.96573,0.96573 0.96573,2.34156 m -25.66458,0 q 0,-1.37583 0.96573,-2.34156 0.96572,-0.96573 2.34156,-0.96573 1.34937,0 2.32833,0.96573 0.96573,0.96573 0.96573,2.34156 0,1.3626 -0.96573,2.3151 -0.97896,0.97896 -2.32833,0.97896 -1.37584,0 -2.34156,-0.97896 -0.96573,-0.9525 -0.96573,-2.3151 m 1.24354,0.0529 q 0,0.9525 0.67469,1.60073 0.66145,0.67468 1.62718,0.67468 0.93927,0 1.61396,-0.67468 0.67469,-0.64823 0.67469,-1.60073 0,-0.9525 -0.67469,-1.62719 -0.67469,-0.66146 -1.61396,-0.66146 -0.96573,0 -1.62718,0.66146 -0.67469,0.67469 -0.67469,1.62719"
       id="path390"
       style="stroke-width:0.264583" />
    <path
       stroke="none"
       fill="#5b5b5b"
       d="m 24.93691,22.433359 q 0,-0.9525 0.67469,-1.62719 0.66145,-0.66146 1.62718,-0.66146 0.93927,0 1.61396,0.66146 0.67469,0.67469 0.67469,1.62719 0,0.9525 -0.67469,1.60073 -0.67469,0.67468 -1.61396,0.67468 -0.96573,0 -1.62718,-0.67468 -0.67469,-0.64823 -0.67469,-1.60073 m 23.16427,0 q 0,0.9525 -0.66146,1.60073 -0.66146,0.67468 -1.62719,0.67468 -0.93927,0 -1.62718,-0.67468 -0.66146,-0.64823 -0.66146,-1.60073 0,-0.9525 0.66146,-1.62719 0.68791,-0.66146 1.62718,-0.66146 0.96573,0 1.62719,0.66146 0.66146,0.67469 0.66146,1.62719"
       id="path392"
       style="stroke-width:0.264583" />
  </g>
</svg>
