<?xml version="1.0" encoding="UTF-8" standalone="no"?>
<!-- Created with Inkscape (http://www.inkscape.org/) -->

<svg
   width="47.88958"
   height="35.983292"
   viewBox="0 0 47.88958 35.983292"
   version="1.1"
   id="svg100"
   inkscape:version="1.2.2 (b0a8486541, 2022-12-01)"
   sodipodi:docname="panda.svg"
   xmlns:inkscape="http://www.inkscape.org/namespaces/inkscape"
   xmlns:sodipodi="http://sodipodi.sourceforge.net/DTD/sodipodi-0.dtd"
   xmlns="http://www.w3.org/2000/svg"
   xmlns:svg="http://www.w3.org/2000/svg">
  <sodipodi:namedview
     id="namedview102"
     pagecolor="#ffffff"
     bordercolor="#000000"
     borderopacity="0.25"
     inkscape:showpageshadow="2"
     inkscape:pageopacity="0.0"
     inkscape:pagecheckerboard="0"
     inkscape:deskcolor="#d1d1d1"
     inkscape:document-units="mm"
     showgrid="false"
     inkscape:zoom="0.2102413"
     inkscape:cx="401.91912"
     inkscape:cy="563.63806"
     inkscape:window-width="1803"
     inkscape:window-height="1117"
     inkscape:window-x="0"
     inkscape:window-y="0"
     inkscape:window-maximized="1"
     inkscape:current-layer="layer1" />
  <defs
     id="defs97" />
  <g
     inkscape:label="Layer 1"
     inkscape:groupmode="layer"
     id="layer1">
    <path
       stroke="none"
       fill="#807f7f"
       d="m 47.88945,12.96464 -0.0132,0.58209 v 0.0132 q -0.18521,3.33375 -2.6326,5.7679 -1.61396,1.61396 -3.63802,2.23573 -0.48948,2.55323 -1.68011,4.82865 -0.55562,1.03187 -1.25677,2.01083 l -0.10583,0.13229 q -0.84667,1.12448 -1.89177,2.18281 l -1.29646,1.19063 -0.0132,0.0132 -1.1774,0.89958 -1.33614,0.8599 -0.0132,0.0132 q -3.98198,2.28864 -8.89,2.28864 -4.92125,0 -8.89,-2.28864 h 0.0132 q -0.70115,-0.39688 -1.36261,-0.8599 v -0.0132 Q 13.11003,32.39822 12.55441,31.94844 L 11.21826,30.71811 Q 9.07514,28.57499 7.81836,26.10115 L 7.75226,25.9424 6.29705,21.57677 Q 4.27299,20.94177 2.65903,19.3278 0.1984,16.89364 0.0132,13.5599 V 13.5467 L 0,12.96461 q 0,-3.70416 2.65906,-6.36323 2.61937,-2.6326 6.33677,-2.6326 1.62719,0 3.06917,0.51594 l 1.64041,-1.30969 q 0.87313,-0.62177 1.79917,-1.11125 l -0.0132,0.0132 Q 19.28815,0 23.94482,0 q 4.65667,0 8.46667,2.06375 0.91281,0.48948 1.7727,1.09802 h 0.0132 q 0.84667,0.59531 1.65365,1.32292 1.41552,-0.51594 3.04271,-0.51594 3.71739,0 6.35,2.6326 2.64583,2.65907 2.64583,6.36323 m -41.65865,8.22854 -0.0132,-0.0529 0.0132,0.0794 v -0.0265"
       id="path32"
       style="stroke-width:0.264583" />
    <path
       stroke="none"
       fill="#414040"
       d="m 46.81789,13.4938 q -0.17198,2.93687 -2.32834,5.08 -2.3151,2.32833 -5.59593,2.32833 -3.26761,0 -5.6224,-2.32833 -2.12989,-2.14313 -2.30187,-5.08 0.17198,-2.93687 2.30187,-5.09323 2.35479,-2.31509 5.6224,-2.31509 3.28083,0 5.59593,2.31509 2.15636,2.15635 2.32834,5.09323 M 41.9231,12.96463 q 0,-1.83885 -1.32292,-3.14854 -1.30969,-1.30969 -3.13531,-1.30969 -1.86532,0 -3.175,1.30969 -1.32292,1.30969 -1.32292,3.14854 0,1.86532 1.32292,3.16177 1.30968,1.33615 3.175,1.33615 1.82562,0 3.13531,-1.33615 1.32292,-1.29645 1.32292,-3.16177 m -35.95688,0 q 0,1.86532 1.32292,3.16177 1.30969,1.33615 3.13531,1.33615 1.86531,0 3.175,-1.33615 1.32292,-1.29645 1.32292,-3.16177 0,-1.83885 -1.32292,-3.14854 -1.30969,-1.30969 -3.175,-1.30969 -1.82562,0 -3.13531,1.30969 -1.32292,1.30969 -1.32292,3.14854 M 1.07143,13.4938 Q 1.24341,10.55693 3.39976,8.40057 5.71487,6.08548 8.9957,6.08548 q 3.2676,0 5.6224,2.31509 2.12989,2.15635 2.30187,5.09323 -0.17198,2.93687 -2.30187,5.08 -2.3548,2.32833 -5.6224,2.32833 -3.28083,0 -5.59594,-2.32833 -2.15635,-2.14313 -2.32833,-5.08"
       id="path34"
       style="stroke-width:0.264583" />
    <path
       stroke="none"
       fill="#545353"
       d="m 1.07143,13.4938 -0.0132,-0.52917 q 0,-3.2676 2.34156,-5.62239 2.31511,-2.31511 5.59594,-2.31511 3.2676,0 5.6224,2.31511 2.3151,2.35479 2.3151,5.62239 l -0.0132,0.52917 q -0.17198,-2.93687 -2.30187,-5.09323 -2.3548,-2.31509 -5.6224,-2.31509 -3.28083,0 -5.59594,2.31509 -2.15635,2.15635 -2.32833,5.09323 m 29.89792,0 -0.0132,-0.52917 q 0,-3.2676 2.3151,-5.62239 2.35479,-2.31511 5.6224,-2.31511 3.28083,0 5.59593,2.31511 2.34157,2.35479 2.34157,5.62239 l -0.0132,0.52917 q -0.17198,-2.93687 -2.32834,-5.09323 -2.3151,-2.31509 -5.59593,-2.31509 -3.26761,0 -5.6224,2.31509 -2.12989,2.15635 -2.30187,5.09323"
       id="path36"
       style="stroke-width:0.264583" />
    <path
       stroke="none"
       fill="#353434"
       d="m 41.9231,12.96464 q 0,1.86532 -1.32292,3.16177 -1.30969,1.33614 -3.13531,1.33614 -1.86532,0 -3.175,-1.33614 -1.32292,-1.29645 -1.32292,-3.16177 0,-1.83885 1.32292,-3.14854 1.30968,-1.30969 3.175,-1.30969 1.82562,0 3.13531,1.30969 1.32292,1.30968 1.32292,3.14854 m -35.95688,0 q 0,-1.83885 1.32292,-3.14854 1.30969,-1.30969 3.13531,-1.30969 1.86531,0 3.175,1.30969 1.32292,1.30968 1.32292,3.14854 0,1.86532 -1.32292,3.16177 -1.30969,1.33614 -3.175,1.33614 -1.82562,0 -3.13531,-1.33614 -1.32292,-1.29645 -1.32292,-3.16177"
       id="path38"
       style="stroke-width:0.264583" />
    <path
       stroke="none"
       fill="#ffffff"
       d="m 7.02455,18.52089 -0.0132,-0.52916 q 0,-7.0247 4.96093,-11.9724 1.12448,-1.12448 2.34157,-1.98437 0.8202,-0.58209 1.6801,-1.03188 3.57187,-1.94469 7.95073,-1.94469 4.37885,0 7.96396,1.93146 0.85989,0.46302 1.66687,1.03188 1.23031,0.87312 2.35479,1.9976 4.94771,4.9477 4.94771,11.9724 v 0.52916 Q 40.6928,11.84016 35.9303,7.07766 34.76614,5.9135 33.49614,5.02714 32.60978,4.4186 31.68374,3.92912 q -0.62177,2.38125 -1.75948,4.39209 -2.47385,4.37885 -5.97958,4.37885 -3.50573,0 -5.99281,-4.37885 -1.13771,-1.99762 -1.74625,-4.37886 -0.92605,0.47625 -1.8124,1.09802 -1.27,0.88636 -2.42094,2.03729 -4.77573,4.7625 -4.94771,11.44323"
       id="path40"
       style="stroke-width:0.264583" />
    <path
       stroke="none"
       fill="#f5f5f5"
       d="M 7.02455,18.52089 Q 7.19653,11.84016 11.97226,7.07766 13.1232,5.92673 14.3932,5.04037 15.27955,4.4186 16.2056,3.94235 q 0.60854,2.38125 1.74625,4.37886 2.48708,4.37885 5.99281,4.37885 3.50573,0 5.97958,-4.37885 1.13771,-2.01084 1.75948,-4.39209 0.92604,0.48948 1.8124,1.09802 1.27,0.88636 2.43416,2.05052 4.7625,4.7625 4.94771,11.44323 -0.11906,4.02166 -1.89177,7.36865 -0.51594,0.97895 -1.17739,1.89177 h -0.0132 q -0.83344,1.13771 -1.87855,2.18281 l -1.23031,1.13771 q -0.54239,0.44979 -1.11125,0.84667 l -1.27,0.82021 -0.64823,-0.55563 q -3.18823,-2.57969 -7.7126,-2.57969 -4.52438,0 -7.72583,2.57969 l -0.635,0.55563 -1.27,-0.80698 -1.0848,-0.83344 -1.27,-1.16417 Q 9.94823,27.95329 8.75761,25.61173 L 7.28917,21.19318 v -0.0529 l -0.0529,-0.29104 -0.0132,-0.0661 -0.0132,-0.13229 -0.0265,-0.14551 -0.0397,-0.33074 v -0.0529 l -0.0265,-0.15875 v -0.0661 l -0.0132,-0.0529 v -0.0661 l -0.0132,-0.0794 -0.0132,-0.17198 v -0.0661 l -0.0132,-0.0794 -0.0397,-0.8599"
       id="path42"
       style="stroke-width:0.264583" />
    <path
       stroke="none"
       fill="#e5e5e5"
       d="m 32.30549,32.7687 q -3.74385,2.15635 -8.36083,2.15635 -4.63021,0 -8.36083,-2.15635 l 0.635,-0.55563 q 3.20145,-2.57969 7.72583,-2.57969 4.52437,0 7.7126,2.57969 l 0.64823,0.55563"
       id="path44"
       style="stroke-width:0.264583" />
    <path
       stroke="none"
       fill="#5b5b5b"
       d="m 10.3583,16.391 v -0.0132 q 0.43657,-1.5875 1.83886,-2.39448 1.42875,-0.82021 3.01625,-0.39688 1.57427,0.41011 2.40771,1.83886 0.82021,1.41552 0.39687,3.00302 v 0.0132 q -0.51594,1.90499 -1.98437,2.92363 -1.4949,1.05834 -3.06917,0.64824 -1.5875,-0.42334 -2.35479,-2.09022 Q 9.8556,18.29599 10.3583,16.391 m 1.4949,0.9128 q 0,1.01865 0.71438,1.70657 0.7276,0.74084 1.74625,0.74084 1.00541,0 1.73302,-0.74084 0.71437,-0.68791 0.71437,-1.70657 0,-1.01864 -0.71437,-1.73302 -0.72761,-0.71438 -1.73302,-0.71438 -1.01865,0 -1.74625,0.71438 -0.71438,0.71437 -0.71438,1.73302 m 1.19063,0.0397 q 0,-0.64823 0.44979,-1.08479 0.44979,-0.4498 1.08479,-0.4498 0.635,0 1.09802,0.4498 0.44979,0.43656 0.44979,1.08479 0,0.635 -0.44979,1.07156 -0.46302,0.46302 -1.09802,0.46302 -0.635,0 -1.08479,-0.46302 -0.44979,-0.43656 -0.44979,-1.07156 m 24.2226,-0.9525 q 0.50271,1.905 -0.25135,3.53218 -0.7673,1.66688 -2.3548,2.09021 -1.57427,0.41011 -3.06916,-0.64823 -1.46844,-1.01864 -1.98438,-2.92364 v -0.0132 q -0.42333,-1.5875 0.39688,-3.00302 0.83343,-1.42875 2.40771,-1.83886 1.5875,-0.42334 3.01625,0.39688 1.40229,0.80698 1.83885,2.39448 v 0.0132 m -2.68552,0.9525 q 0,0.635 -0.44979,1.07156 -0.44979,0.46302 -1.08479,0.46302 -0.635,0 -1.09803,-0.46302 -0.44979,-0.43656 -0.44979,-1.07156 0,-0.64823 0.44979,-1.08479 0.46303,-0.4498 1.09803,-0.4498 0.635,0 1.08479,0.4498 0.44979,0.43656 0.44979,1.08479 m 1.19062,-0.0397 q 0,-1.01864 -0.71437,-1.73302 -0.72761,-0.71438 -1.74625,-0.71438 -1.00542,0 -1.73302,0.71438 -0.71438,0.71437 -0.71438,1.73302 0,1.01865 0.71438,1.70657 0.7276,0.74084 1.73302,0.74084 1.01864,0 1.74625,-0.74084 0.71437,-0.68791 0.71437,-1.70657"
       id="path46"
       style="stroke-width:0.264583" />
    <path
       stroke="none"
       fill="#ffffff"
       d="m 35.77153,17.3038 q 0,1.01865 -0.71437,1.70657 -0.72761,0.74084 -1.74625,0.74084 -1.00542,0 -1.73302,-0.74084 -0.71438,-0.68791 -0.71438,-1.70657 0,-1.01864 0.71438,-1.73302 0.7276,-0.71438 1.73302,-0.71438 1.01864,0 1.74625,0.71438 0.71437,0.71437 0.71437,1.73302 m -23.91833,0 q 0,-1.01864 0.71438,-1.73302 0.7276,-0.71438 1.74625,-0.71438 1.00541,0 1.73302,0.71438 0.71437,0.71437 0.71437,1.73302 0,1.01865 -0.71437,1.70657 -0.72761,0.74084 -1.73302,0.74084 -1.01865,0 -1.74625,-0.74084 Q 11.8532,18.32246 11.8532,17.3038 m 1.19063,0.0397 q 0,0.635 0.44979,1.07156 0.44979,0.46302 1.08479,0.46302 0.635,0 1.09802,-0.46302 0.44979,-0.43656 0.44979,-1.07156 0,-0.64823 -0.44979,-1.08479 -0.46302,-0.4498 -1.09802,-0.4498 -0.635,0 -1.08479,0.4498 -0.44979,0.43656 -0.44979,1.08479 m 21.53708,0 q 0,-0.64823 -0.44979,-1.08479 -0.44979,-0.4498 -1.08479,-0.4498 -0.635,0 -1.09803,0.4498 -0.44979,0.43656 -0.44979,1.08479 0,0.635 0.44979,1.07156 0.46303,0.46302 1.09803,0.46302 0.635,0 1.08479,-0.46302 0.44979,-0.43656 0.44979,-1.07156"
       id="path48"
       style="stroke-width:0.264583" />
    <path
       stroke="none"
       fill="#666666"
       d="m 20.54476,20.17454 -0.0529,-0.62177 v -0.23814 q 0.0794,-0.63499 1.00541,-1.08479 1.01865,-0.48948 2.4474,-0.48948 1.42875,0 2.44739,0.48948 0.91282,0.4498 1.00542,1.08479 v 0.23814 l -0.0529,0.62177 q -0.1852,-0.50271 -0.9525,-0.88636 -1.01864,-0.48947 -2.44739,-0.48947 -1.42875,0 -2.4474,0.48947 -0.76729,0.37042 -0.9525,0.88636"
       id="path50"
       style="stroke-width:0.264583" />
    <path
       stroke="none"
       fill="#464646"
       d="m 25.12205,22.82037 0.2249,0.26459 q 0.25135,0.25135 0.5424,0.39686 0.37041,0.17199 0.80698,0.17199 0.79375,0 1.3626,-0.56885 l 0.33073,-0.43657 0.13229,-0.11906 0.18521,0.0132 1.24354,0.64824 0.11906,0.13229 -0.0132,0.17198 -0.39687,0.60854 -0.27781,0.30427 q -1.12448,1.11125 -2.68552,1.11125 -1.56105,0 -2.6723,-1.11125 l -0.0794,-0.0794 -0.0794,0.0794 q -1.12448,1.11125 -2.68552,1.11125 -1.57427,0 -2.67229,-1.11125 L 18.22964,24.10358 17.83276,23.5215 q -0.0529,-0.0926 -0.0132,-0.17198 0.0132,-0.0926 0.10584,-0.14552 l 1.21708,-0.67469 0.17198,-0.0265 q 0.0926,0.0265 0.14552,0.11906 l 0.35719,0.46303 q 0.56885,0.56885 1.3626,0.56885 0.43657,0 0.82021,-0.17198 l 0.5424,-0.39687 0.22489,-0.26459 q 1.23032,0.46301 2.35479,0"
       id="path52"
       style="stroke-width:0.264583" />
    <path
       stroke="none"
       fill="#5b5b5b"
       d="m 25.12205,22.82037 q -1.12447,0.46301 -2.35479,0 -0.70114,-0.25135 -1.27,-0.82021 -0.78052,-0.78052 -0.9525,-1.82562 0.18521,-0.51594 0.9525,-0.88636 1.01865,-0.48947 2.4474,-0.48947 1.42875,0 2.44739,0.48947 0.7673,0.38364 0.9525,0.88636 -0.17197,1.0451 -0.9525,1.82562 -0.56885,0.56886 -1.27,0.82021"
       id="path54"
       style="stroke-width:0.264583" />
  </g>
</svg>
