<?xml version="1.0" encoding="UTF-8" standalone="no"?>
<!-- Created with Inkscape (http://www.inkscape.org/) -->

<svg
   width="40.189701"
   height="35.98336"
   viewBox="0 0 40.189701 35.98336"
   version="1.1"
   id="svg6675"
   inkscape:version="1.2.2 (b0a8486541, 2022-12-01)"
   sodipodi:docname="pig.svg"
   xmlns:inkscape="http://www.inkscape.org/namespaces/inkscape"
   xmlns:sodipodi="http://sodipodi.sourceforge.net/DTD/sodipodi-0.dtd"
   xmlns="http://www.w3.org/2000/svg"
   xmlns:svg="http://www.w3.org/2000/svg">
  <sodipodi:namedview
     id="namedview6677"
     pagecolor="#ffffff"
     bordercolor="#000000"
     borderopacity="0.25"
     inkscape:showpageshadow="2"
     inkscape:pageopacity="0.0"
     inkscape:pagecheckerboard="0"
     inkscape:deskcolor="#d1d1d1"
     inkscape:document-units="mm"
     showgrid="false"
     inkscape:zoom="0.37284981"
     inkscape:cx="-873.00568"
     inkscape:cy="459.97073"
     inkscape:window-width="1803"
     inkscape:window-height="1117"
     inkscape:window-x="0"
     inkscape:window-y="0"
     inkscape:window-maximized="1"
     inkscape:current-layer="layer1" />
  <defs
     id="defs6672" />
  <g
     inkscape:label="Layer 1"
     inkscape:groupmode="layer"
     id="layer1">
    <path
       stroke="none"
       fill="#9c619c"
       d="m 29.347018,2.513555 0.5027,0.3175 q 0.9525,-0.502709 2.1299,-0.806979 h -0.0132 q 2.51354,-0.674688 4.60375,-0.0926 h 0.0132 q 2.20927,0.621771 2.79135,2.182813 l 0.0397,0.105833 0.21167,0.740834 q 1.07156,4.021666 0.10583,7.302499 l -0.0132,0.05292 -0.10583,0.291041 -0.0132,0.03969 q -0.60854,1.838854 -1.6801,2.8575 0.15875,1.203854 0.15875,2.487083 v 0.529167 0.03969 q -0.1323,4.27302 -2.01084,7.831666 -0.55562,1.031875 -1.25677,2.010833 l -0.10583,0.132292 q -0.84667,1.124479 -1.89177,2.182813 l -1.29646,1.190625 -0.0132,0.01323 q -0.56885,0.47625 -1.1774,0.899583 -4.47145,3.161771 -10.23937,3.161771 -5.78115,0 -10.2393797,-3.148542 v -0.01323 l -1.15093,-0.873125 -1.33615,-1.230312 q -2.14322,-2.143131 -3.39999,-4.616985 l -0.0661,-0.15875 -1.46844,-4.418542 -0.0529,-0.304271 -0.0132,-0.07937 -0.0529,-0.264583 v -0.05292 l -0.0132,-0.05292 v -0.05292 l -0.0132,-0.05292 -0.0397,-0.396875 -0.0265,-0.132292 v -0.07938 l -0.0132,-0.0926 v -0.01323 l -0.0132,-0.06615 v -0.02646 -0.01323 l -0.0132,-0.105834 -0.0132,-0.145521 -0.0132,-0.14552 -0.0397,-0.873125 -0.0132,-0.582084 q 0,-1.283229 0.15875,-2.487083 -1.08479,-1.031875 -1.68010005,-2.883958 v 0.01323 l -0.10583,-0.3175 -0.0132,-0.05292 q -0.96573,-3.280834 0.11906,-7.289271 v 0.01323 l 0.21167,-0.767292 0.0264,-0.0926 Q 1.3675883,2.553233 3.6165483,1.944692 q 2.09021,-0.582084 4.60375,0.0926 h -0.0132 q 1.17739,0.304271 2.1431197,0.806979 l 0.50271,-0.3175 h -0.0132 Q 14.953998,0 20.086918,0 q 5.14615,0 9.26042,2.513542"
       id="path172"
       style="stroke-width:0.264583" />
    <path
       stroke="none"
       fill="#f095f0"
       d="m 27.600768,7.064388 q 0.0265,-1.005417 1.05833,-2.090208 1.33615,-1.336146 3.5851,-1.931459 2.20927,-0.595312 4.04813,-0.0926 1.64042,0.463021 2.10344,1.574271 l 0.19843,0.701146 q 0.99219,3.717396 0.11907,6.746875 l -0.10584,0.304271 q 0.58209,-2.738438 -0.27781,-6.019271 l -0.21167,-0.714375 q -0.44979,-1.098021 -2.10343,-1.574271 -1.83886,-0.502708 -4.04813,0.0926 -2.24896,0.595313 -3.5851,1.944688 -0.52917,0.529166 -0.78052,1.058333 m -26.0217697,5.225521 -0.10584,-0.3175 Q 0.60003825,8.94293 1.5922183,5.238763 l 0.19844,-0.714375 q 0.44979,-1.11125 2.10344,-1.561042 1.83885,-0.502708 4.04812,0.0926 2.2489597,0.582083 3.5851097,1.931458 1.01864,1.071562 1.05833,2.076979 -0.26458,-0.515937 -0.78052,-1.045104 -1.33614,-1.362604 -3.5850997,-1.944688 -2.20927,-0.595312 -4.04813,-0.0926 -1.66687,0.463021 -2.10344,1.561042 l -0.21166,0.727604 q -0.87313005,3.267604 -0.27781,6.019271"
       id="path174"
       style="stroke-width:0.264583" />
    <path
       stroke="none"
       fill="#d987d9"
       d="M 1.5789983,12.289909 Q 0.98367825,9.538242 1.8568083,6.270638 l 0.21166,-0.727604 q 0.43657,-1.098021 2.10344,-1.561042 1.83886,-0.502708 4.04813,0.0926 2.2489597,0.582084 3.5850997,1.944688 0.51594,0.529167 0.78052,1.045104 l -0.0265,0.343958 -0.1852,0.740834 -0.2249,0.767291 -0.44979,1.217084 q -0.19844,-0.423334 -0.60854,-0.873125 -0.97896,-0.978959 -2.5929197,-1.402292 -1.60073,-0.436562 -2.92365,-0.06615 -1.19062,0.343959 -1.50812,1.150938 l -0.14552,0.489479 q -0.71438,2.672292 -0.0794,4.855104 l 0.11907,0.370417 q 0.15875,0.502708 0.4101,0.899583 l -0.21167,-0.07937 q -1.78593,-0.714375 -2.57968,-3.188229 m 37.0284297,-0.01323 q -0.80698,2.487083 -2.59291,3.201458 l -0.19844,0.06615 q 0.23812,-0.383646 0.39687,-0.899583 l 0.1323,-0.357188 q 0.635,-2.182812 -0.0794,-4.855104 l -0.15875,-0.502708 q -0.30427,-0.80698 -1.4949,-1.150938 -1.33614,-0.370417 -2.92364,0.06615 -1.61396,0.436562 -2.59292,1.402292 -0.42333,0.463021 -0.60854,0.873125 l -0.46302,-1.203855 -0.21167,-0.78052 -0.18521,-0.740834 -0.0265,-0.330729 q 0.25135,-0.529167 0.78052,-1.058333 1.33614,-1.349375 3.5851,-1.944688 2.20927,-0.595312 4.04813,-0.0926 1.65364,0.47625 2.10343,1.574271 l 0.21167,0.714375 q 0.8599,3.280834 0.27781,6.019271"
       id="path176"
       style="stroke-width:0.264583" />
    <path
       stroke="none"
       fill="#c97dc9"
       d="m 35.816078,15.544284 -0.21167,0.07937 q -1.19062,0.304271 -2.38125,-0.15875 -1.07156,-0.410104 -2.12989,-1.455208 -1.50813,-1.44198 -2.46063,-3.518959 l -0.14552,-0.370417 q 0.18521,-0.410104 0.60854,-0.873124 0.97896,-0.96573 2.59292,-1.402292 1.5875,-0.436563 2.92364,-0.06615 1.19063,0.343958 1.4949,1.150938 l 0.15875,0.502708 q 0.71438,2.672291 0.0794,4.855104 l -0.1323,0.357188 q -0.15875,0.515937 -0.39687,0.899583 m -24.11677,-5.410729 -0.14552,0.357187 q -0.9525,2.090209 -2.4606297,3.518958 -1.05833,1.045105 -2.12989,1.455209 -1.19063,0.463021 -2.38125,0.15875 l -0.21167,-0.06615 q -0.25135,-0.396875 -0.4101,-0.899584 L 3.8411983,14.2875 q -0.635,-2.182813 0.0794,-4.855104 l 0.14552,-0.489479 q 0.3175,-0.806979 1.50812,-1.150938 1.32292,-0.370416 2.92365,0.06615 1.6139597,0.423333 2.5929197,1.402291 0.4101,0.449792 0.60854,0.873125"
       id="path178"
       style="stroke-width:0.264583" />
    <path
       stroke="none"
       fill="#ffaaff"
       d="m 3.1664983,18.520846 -0.0132,-0.529166 q 0,-2.076979 0.43656,-3.981979 1.03187,-4.511146 4.52437,-7.990417 1.12448,-1.124479 2.3415697,-1.984375 l 0.93927,-0.608542 q 3.86291,-2.368021 8.69156,-2.368021 4.84187,0 8.70479,2.354792 l 0.92604,0.608542 q 1.23032,0.873125 2.35479,1.997604 4.94771,4.947708 4.94771,11.972396 v 0.529166 q -0.18521,-6.680729 -4.94771,-11.443229 -1.16416,-1.164166 -2.43416,-2.050521 -0.74084,-0.515937 -1.52136,-0.93927 l -0.83343,0.661458 q -2.97657,2.129896 -7.19667,2.129896 -4.2201,0 -7.2099,-2.129896 l -0.8202,-0.648229 q -0.78053,0.423333 -1.52136,0.939271 -1.2699997,0.886354 -2.4209397,2.037291 -3.08239,3.069167 -4.23333,6.932084 -0.64823,2.129895 -0.71437,4.511145"
       id="path180"
       style="stroke-width:0.264583" />
    <path
       stroke="none"
       fill="#ee9fee"
       d="m 3.1664983,18.520846 q 0.0661,-2.38125 0.71437,-4.511145 1.15094,-3.862917 4.23333,-6.932084 1.15094,-1.150937 2.4209397,-2.037291 0.74083,-0.515938 1.52136,-0.939271 l 0.8202,0.648229 q 2.9898,2.129896 7.2099,2.129896 4.2201,0 7.19667,-2.129896 l 0.83343,-0.661458 q 0.78052,0.423333 1.52136,0.93927 1.27,0.886355 2.43416,2.050521 4.7625,4.7625 4.94771,11.443229 -0.11906,4.021667 -1.89177,7.368646 -0.51594,0.978958 -1.17739,1.891771 h -0.0132 q -0.83344,1.137708 -1.87854,2.182812 l -1.23032,1.137709 -1.11125,0.846666 q -4.20687,2.976563 -9.63083,2.976563 -5.43719,0 -9.63083,-2.963334 l -1.0847997,-0.833437 -1.27,-1.164167 q -2.01083,-2.010833 -3.20145,-4.352395 l -1.46844,-4.418542 v -0.05292 l -0.0529,-0.291042 -0.0132,-0.06615 -0.0132,-0.132291 -0.0265,-0.145521 -0.0397,-0.330729 v -0.05292 l -0.0265,-0.15875 v -0.06615 l -0.0132,-0.05292 v -0.06615 l -0.0132,-0.07937 -0.0132,-0.171979 v -0.06615 l -0.0132,-0.07937 -0.0397,-0.859896 m 29.7523897,0.132292 q 0,-1.375834 -0.96573,-2.341563 -0.96573,-0.965729 -2.34156,-0.965729 -1.34938,0 -2.32833,0.965729 -0.96573,0.965729 -0.96573,2.341563 0,1.362604 0.96573,2.315104 0.97895,0.978958 2.32833,0.978958 1.37583,0 2.34156,-0.978958 0.96573,-0.9525 0.96573,-2.315104 m -25.6645797,0 q 0,1.362604 0.96573,2.315104 0.96573,0.978958 2.3415597,0.978958 1.34937,0 2.32833,-0.978958 0.96573,-0.9525 0.96573,-2.315104 0,-1.375834 -0.96573,-2.341563 -0.97896,-0.965729 -2.32833,-0.965729 -1.3758297,0 -2.3415597,0.965729 -0.96573,0.965729 -0.96573,2.341563"
       id="path182"
       style="stroke-width:0.264583" />
    <path
       stroke="none"
       fill="#ffffff"
       d="m 7.2543083,18.653138 q 0,-1.375833 0.96573,-2.341562 0.96573,-0.96573 2.3415597,-0.96573 1.34937,0 2.32833,0.96573 0.96573,0.965729 0.96573,2.341562 0,1.362604 -0.96573,2.315104 -0.97896,0.978958 -2.32833,0.978958 -1.3758297,0 -2.3415597,-0.978958 -0.96573,-0.9525 -0.96573,-2.315104 m 25.6645797,0 q 0,1.362604 -0.96573,2.315104 -0.96573,0.978958 -2.34156,0.978958 -1.34938,0 -2.32833,-0.978958 -0.96573,-0.9525 -0.96573,-2.315104 0,-1.375833 0.96573,-2.341562 0.97895,-0.96573 2.32833,-0.96573 1.37583,0 2.34156,0.96573 0.96573,0.965729 0.96573,2.341562 m -1.25677,0.05292 q 0,-0.9525 -0.66146,-1.627188 -0.66146,-0.661458 -1.62719,-0.661458 -0.93927,0 -1.62718,0.661458 -0.66146,0.674688 -0.66146,1.627188 0,0.9525 0.66146,1.600729 0.68791,0.674687 1.62718,0.674687 0.96573,0 1.62719,-0.674687 0.66146,-0.648229 0.66146,-1.600729 m -23.1642697,0 q 0,0.9525 0.67469,1.600729 0.66146,0.674687 1.6271797,0.674687 0.93928,0 1.61396,-0.674687 0.67469,-0.648229 0.67469,-1.600729 0,-0.9525 -0.67469,-1.627188 -0.67468,-0.661458 -1.61396,-0.661458 -0.9657197,0 -1.6271797,0.661458 -0.67469,0.674688 -0.67469,1.627188"
       id="path184"
       style="stroke-width:0.264583" />
    <path
       stroke="none"
       fill="#5b5b5b"
       d="m 8.4978483,18.706055 q 0,-0.9525 0.67469,-1.627188 0.66146,-0.661458 1.6271797,-0.661458 0.93928,0 1.61396,0.661458 0.67469,0.674688 0.67469,1.627188 0,0.9525 -0.67469,1.600729 -0.67468,0.674687 -1.61396,0.674687 -0.9657197,0 -1.6271797,-0.674687 -0.67469,-0.648229 -0.67469,-1.600729 m 23.1642697,0 q 0,0.9525 -0.66146,1.600729 -0.66146,0.674687 -1.62719,0.674687 -0.93927,0 -1.62718,-0.674687 -0.66146,-0.648229 -0.66146,-1.600729 0,-0.9525 0.66146,-1.627188 0.68791,-0.661458 1.62718,-0.661458 0.96573,0 1.62719,0.661458 0.66146,0.674688 0.66146,1.627188"
       id="path186"
       style="stroke-width:0.264583" />
    <path
       stroke="none"
       fill="#ffc4ff"
       d="m 13.233888,25.545534 -0.0265,-0.291042 v -0.224896 q 0,-2.8575 1.99761,-4.868333 l 0.48948,-0.449792 q 1.87854,-1.561041 4.39208,-1.561041 2.51354,0 4.37885,1.57427 l 0.47625,0.436563 q 2.02407,2.010833 2.02407,4.868333 v 0.224896 l -0.0132,0.277813 q -0.18524,-2.500313 -2.01087,-4.312709 l -0.47625,-0.436562 q -1.86531,-1.574271 -4.37885,-1.574271 -2.51354,0 -4.39208,1.561042 l -0.48948,0.449791 q -1.79917,1.812396 -1.97115,4.325938"
       id="path188"
       style="stroke-width:0.264583" />
    <path
       stroke="none"
       fill="#ffaaff"
       d="m 13.233888,25.545534 q 0.17198,-2.513542 1.97115,-4.325938 l 0.48948,-0.449791 q 1.87854,-1.561042 4.39208,-1.561042 2.51354,0 4.37885,1.574271 l 0.47625,0.436562 q 1.82563,1.812396 2.01084,4.312709 -0.0794,0.767291 -0.39688,1.455208 -0.39687,0.846666 -1.16416,1.561042 l -0.4498,0.383645 q -2.01083,1.600729 -4.8551,1.600729 -2.8575,0 -4.88156,-1.600729 l -0.42334,-0.357187 q -0.76729,-0.727604 -1.16416,-1.574271 -0.3175,-0.687917 -0.38365,-1.455208 m 11.7475,-2.262188 q -0.39687,-0.396875 -1.17739,-0.171979 l -0.0661,0.02646 q -0.75406,0.224896 -1.41552,0.886354 l -0.0397,0.03969 q -0.17198,0.185209 -0.26458,0.410104 -0.10584,0.238125 -0.10584,0.529167 0,0.568854 0.39688,0.965729 0.39687,0.396875 0.96573,0.396875 0.54239,0 0.93927,-0.370417 l 0.0397,-0.03969 q 0.54239,-0.542395 0.79375,-1.137708 l 0.11906,-0.343958 q 0.17198,-0.595313 -0.0265,-0.965729 l -0.15875,-0.224896 m -9.02229,2.711979 q 0.39687,0.370417 0.93927,0.370417 0.56885,0 0.96573,-0.396875 0.39687,-0.396875 0.39687,-0.96573 0,-0.291041 -0.0926,-0.529166 l -0.27781,-0.410104 -0.0397,-0.03969 q -0.67469,-0.674687 -1.42875,-0.899583 l -0.0529,-0.01323 q -0.78052,-0.224896 -1.17739,0.171979 l -0.15875,0.224896 q -0.19844,0.370417 -0.0265,0.965729 0.0397,0.17198 0.11906,0.343959 0.25136,0.595312 0.79375,1.137708 l 0.0397,0.03969"
       id="path190"
       style="stroke-width:0.264583" />
    <path
       stroke="none"
       fill="#af74af"
       d="m 15.959098,25.995325 -0.0397,-0.03969 q -0.54239,-0.542395 -0.79375,-1.137708 -0.0794,-0.171979 -0.11906,-0.343958 -0.17198,-0.595313 0.0265,-0.965729 l 0.15875,-0.224896 q 0.39687,-0.396875 1.17739,-0.171979 l 0.0529,0.01323 q 0.75406,0.224895 1.42875,0.899583 l 0.0397,0.03969 0.27781,0.410104 q 0.0926,0.238125 0.0926,0.529167 0,0.568854 -0.39687,0.965729 -0.39688,0.396875 -0.96573,0.396875 -0.5424,0 -0.93927,-0.370417 m 9.02229,-2.711979 0.15875,0.224896 q 0.19844,0.370416 0.0265,0.965729 l -0.11906,0.343958 q -0.25136,0.595313 -0.79375,1.137709 l -0.0397,0.03969 q -0.39688,0.370416 -0.93927,0.370416 -0.56886,0 -0.96573,-0.396875 -0.39688,-0.396875 -0.39688,-0.965729 0,-0.291041 0.10584,-0.529167 0.0926,-0.224895 0.26458,-0.410104 l 0.0397,-0.03969 q 0.66146,-0.661458 1.41552,-0.886354 l 0.0661,-0.02646 q 0.78052,-0.224896 1.17739,0.171979"
       id="path192"
       style="stroke-width:0.264583" />
    <path
       stroke="none"
       fill="#000000"
       fill-opacity="0.101961"
       d="m 25.391498,28.548555 -0.11907,0.291041 q -0.4101,0.859896 -1.29646,1.561042 -1.61395,1.283229 -3.88937,1.283229 -2.28865,0 -3.91583,-1.283229 -0.87313,-0.687917 -1.27,-1.547813 l -0.11907,-0.277812 0.42334,0.357187 q 2.02406,1.600729 4.88156,1.600729 2.84427,0 4.8551,-1.600729 l 0.4498,-0.383645"
       id="path194"
       style="stroke-width:0.264583" />
  </g>
</svg>
