<?xml version="1.0" encoding="UTF-8" standalone="no"?>
<!-- Created with Inkscape (http://www.inkscape.org/) -->

<svg
   width="33.866669"
   height="45.376678"
   viewBox="0 0 33.866669 45.376678"
   version="1.1"
   id="svg6276"
   inkscape:version="1.2.2 (b0a8486541, 2022-12-01)"
   sodipodi:docname="rabbit.svg"
   xmlns:inkscape="http://www.inkscape.org/namespaces/inkscape"
   xmlns:sodipodi="http://sodipodi.sourceforge.net/DTD/sodipodi-0.dtd"
   xmlns="http://www.w3.org/2000/svg"
   xmlns:svg="http://www.w3.org/2000/svg">
  <sodipodi:namedview
     id="namedview6278"
     pagecolor="#ffffff"
     bordercolor="#000000"
     borderopacity="0.25"
     inkscape:showpageshadow="2"
     inkscape:pageopacity="0.0"
     inkscape:pagecheckerboard="0"
     inkscape:deskcolor="#d1d1d1"
     inkscape:document-units="mm"
     showgrid="false"
     inkscape:zoom="3.117143"
     inkscape:cx="88.382214"
     inkscape:cy="94.477539"
     inkscape:window-width="1803"
     inkscape:window-height="1117"
     inkscape:window-x="0"
     inkscape:window-y="0"
     inkscape:window-maximized="1"
     inkscape:current-layer="layer1" />
  <defs
     id="defs6273" />
  <g
     inkscape:label="Layer 1"
     inkscape:groupmode="layer"
     id="layer1">
    <path
       stroke="none"
       fill="#a8a1a1"
       d="m 6.52195,17.3573 v -1.11125 q 0,-2.68552 -0.34395,-6.6278098 -0.33073,-3.94229 1.33614,-4.40531 1.68011,-0.46302 4.32594,2.83104 2.38125,4.0084398 2.98979,7.2892698 l -0.4101,0.78052 q -1.0848,1.71979 -3.12209,2.27542 Q 9.26039,18.93157 7.448,17.97907 L 6.52195,17.3573 m 20.82271,0 -0.92604,0.62177 q -1.8124,0.9525 -3.84969,0.41011 -2.03729,-0.55563 -3.12208,-2.27542 -0.25135,-0.38364 -0.4101,-0.78052 0.60854,-3.28083 2.98979,-7.2892698 2.64583,-3.29406 4.32593,-2.83104 1.66688,0.46302 1.33615,4.40531 -0.34396,3.9422898 -0.34396,6.6278098 v 1.11125"
       id="path228"
       style="stroke-width:0.264583" />
    <path
       stroke="none"
       fill="#bdb6b6"
       d="m 27.34466,17.3573 v -1.11125 q 0,-2.68552 0.34396,-6.6278098 0.33073,-3.94229 -1.33615,-4.40531 -1.6801,-0.46302 -4.32593,2.83104 Q 19.64529,12.05241 19.03675,15.33324 18.82508,14.8173 18.75893,14.30137 l -0.0265,-0.30427 q 0.17198,-4.6169798 3.74386,-10.6097998 3.09562,-3.86290998 5.06677,-3.32051998 1.4949,0.41011 1.62719,3.20145998 l -0.0529,0.91281 q -0.39687,4.63021 -0.39687,7.7787498 l 0.0132,0.2249 -0.0132,0.83344 v 2.14312 q -0.37042,1.33615 -1.37584,2.19604 M 4.69631,3.2682402 Q 4.8286,0.47689022 6.3235,0.06678022 q 1.97114,-0.54239 5.06677,3.32051998 3.57187,5.99282 3.74385,10.6097998 l -0.0265,0.30427 q -0.0661,0.51593 -0.27781,1.03187 -0.60854,-3.28083 -2.98979,-7.2892698 -2.64583,-3.29406 -4.32594,-2.83104 -1.66687,0.46302 -1.33614,4.40531 Q 6.52189,13.56053 6.52189,16.24605 V 17.3573 Q 5.51648,16.49741 5.14606,15.16126 v -2.14312 l -0.0132,-0.83344 0.0132,-0.2249 q 0,-3.1485398 -0.39687,-7.7787498 l -0.0529,-0.91281"
       id="path230"
       style="stroke-width:0.264583" />
    <path
       stroke="none"
       fill="#dbd9d9"
       d="M 0.0132,28.97251 0,28.44335 q 0,-7.02469 4.96094,-11.9724 1.95792,-1.95792 4.23334,-3.13531 3.4925,-1.82563 7.73906,-1.82563 4.24656,0 7.75229,1.8124 2.27542,1.19062 4.23333,3.14854 4.94771,4.94771 4.94771,11.9724 v 0.52916 q -0.18521,-6.68073 -4.94771,-11.44323 -2.2225,-2.2225 -4.8551,-3.45281 l -1.05833,0.89958 q -2.51355,1.82563 -6.07219,1.82563 -3.55865,0 -6.08542,-1.82563 -0.59531,-0.42333 -1.03187,-0.88635 -2.63261,1.21708 -4.85511,3.43958 -4.77573,4.7625 -4.94771,11.44323"
       id="path234"
       style="stroke-width:0.264583" />
    <path
       stroke="none"
       fill="#d2d0d0"
       d="m 0.0132,28.97251 q 0.17198,-6.68073 4.94771,-11.44323 2.2225,-2.2225 4.85511,-3.43958 0.43656,0.46302 1.03187,0.88635 2.52677,1.82563 6.08542,1.82563 3.55864,0 6.07219,-1.82563 l 1.05833,-0.89958 q 2.6326,1.23031 4.8551,3.45281 4.7625,4.7625 4.94771,11.44323 -0.18521,6.68073 -4.94771,11.44323 -2.57968,2.57969 -5.715,3.82323 -2.69875,-5.27844 -6.27062,-5.27844 -3.54542,0 -6.24417,5.27844 Q 7.5406,42.99543 4.96091,40.41574 0.18518,35.65324 0.0132,28.97251"
       id="path236"
       style="stroke-width:0.264583" />
    <path
       stroke="none"
       fill="#e5e3e3"
       d="m 23.20393,44.23897 q -2.89718,1.13771 -6.27062,1.13771 -3.36021,0 -6.24417,-1.13771 2.69875,-5.27844 6.24417,-5.27844 3.57187,0 6.27062,5.27844"
       id="path238"
       style="stroke-width:0.264583" />
    <path
       stroke="none"
       fill="#ffffff"
       d="m 26.12758,24.54074 q 0,-0.87312 -0.59531,-1.44198 -0.59532,-0.56885 -1.42875,-0.56885 -0.82021,0 -1.44198,0.56885 -0.59532,0.56886 -0.59532,1.44198 0,0.83344 0.59532,1.40229 0.62177,0.60854 1.44198,0.60854 0.83343,0 1.42875,-0.60854 0.59531,-0.56885 0.59531,-1.40229 M 6.19122,24.47464 q 0,-1.33615 0.9525,-2.27542 0.9525,-0.92604 2.27542,-0.92604 1.32292,0 2.30188,0.92604 0.92604,0.93927 0.92604,2.27542 0,1.33614 -0.92604,2.24895 -0.97896,0.96573 -2.30188,0.96573 -1.32292,0 -2.27542,-0.96573 -0.9525,-0.91281 -0.9525,-2.24895 m 1.57428,0.0661 q 0,0.83344 0.59531,1.40229 0.56885,0.60854 1.41552,0.60854 0.83344,0 1.42875,-0.60854 0.59531,-0.56885 0.59531,-1.40229 0,-0.87312 -0.59531,-1.44198 -0.59531,-0.56885 -1.42875,-0.56885 -0.84667,0 -1.41552,0.56885 -0.59531,0.56886 -0.59531,1.44198 m 19.90989,-0.0661 q 0,1.33614 -0.92604,2.24895 -0.9525,0.96573 -2.30188,0.96573 -1.32291,0 -2.26218,-0.96573 -0.9525,-0.91281 -0.9525,-2.24895 0,-1.33615 0.9525,-2.27542 0.93927,-0.92604 2.26218,-0.92604 1.34938,0 2.30188,0.92604 0.92604,0.93927 0.92604,2.27542"
       id="path240"
       style="stroke-width:0.264583" />
    <path
       stroke="none"
       fill="#5b5b5b"
       d="m 7.7655,24.54074 q 0,-0.87312 0.59531,-1.44198 0.56885,-0.56885 1.41552,-0.56885 0.83344,0 1.42875,0.56885 0.59531,0.56886 0.59531,1.44198 0,0.83344 -0.59531,1.40229 -0.59531,0.60854 -1.42875,0.60854 -0.84667,0 -1.41552,-0.60854 Q 7.7655,25.37418 7.7655,24.54074 m 18.36208,0 q 0,0.83344 -0.59531,1.40229 -0.59532,0.60854 -1.42875,0.60854 -0.82021,0 -1.44198,-0.60854 -0.59532,-0.56885 -0.59532,-1.40229 0,-0.87312 0.59532,-1.44198 0.62177,-0.56885 1.44198,-0.56885 0.83343,0 1.42875,0.56885 0.59531,0.56886 0.59531,1.44198"
       id="path242"
       style="stroke-width:0.264583" />
    <path
       stroke="none"
       fill="#ffffff"
       d="m 15.12091,36.15595 q -0.87312,0.4101 -1.905,0.4101 -1.83885,0 -3.14854,-1.30968 -1.29646,-1.29646 -1.29646,-3.13532 0,-1.85208 1.29646,-3.14854 1.30969,-1.30969 3.14854,-1.30969 h 7.54063 q 1.77271,0.0397 3.02948,1.30969 1.30968,1.29646 1.30968,3.14854 0,1.83886 -1.30968,3.13532 -1.29646,1.30968 -3.14855,1.30968 -1.03187,0 -1.89177,-0.4101 -0.67468,-0.3175 -1.25677,-0.89958 l -0.55562,-0.66146 -0.56886,0.66146 q -0.56885,0.58208 -1.24354,0.89958"
       id="path244"
       style="stroke-width:0.264583" />
    <path
       stroke="none"
       fill="#a8a1a1"
       d="m 15.12091,36.15595 q 0.67469,-0.3175 1.24354,-0.89958 l 0.56886,-0.66146 0.55562,0.66146 q 0.58209,0.58208 1.25677,0.89958 -0.8202,0.4101 -1.81239,0.4101 -0.99219,0 -1.8124,-0.4101"
       id="path246"
       style="stroke-width:0.264583" />
    <path
       stroke="none"
       fill="#ffc4ff"
       d="m 13.78477,27.46439 -0.0265,-0.42334 v -0.23812 q 0.0661,-0.59531 0.9525,-1.03188 0.97896,-0.46302 2.35479,-0.46302 1.3626,0 2.32833,0.46302 0.88636,0.43657 0.96573,1.03188 l 0.0132,0.23812 -0.0265,0.46302 q -0.13229,-0.54239 -0.9525,-0.93927 -0.96573,-0.46302 -2.32833,-0.46302 -1.37583,0 -2.35479,0.46302 -0.79375,0.38365 -0.92604,0.89959"
       id="path248"
       style="stroke-width:0.264583" />
    <path
       stroke="none"
       fill="#ffaaff"
       d="m 13.78477,27.46439 q 0.13229,-0.51594 0.92604,-0.89959 0.97896,-0.46302 2.35479,-0.46302 1.3626,0 2.32833,0.46302 0.82021,0.39688 0.9525,0.93927 -0.14552,1.07157 -0.9525,1.85209 -0.96573,0.97896 -2.32833,0.97896 -1.37583,0 -2.35479,-0.97896 -0.79375,-0.79375 -0.92604,-1.89177"
       id="path250"
       style="stroke-width:0.264583" />
    <path
       stroke="none"
       fill="#a8a1a1"
       d="m 6.4955,29.05189 q 0.0132,-0.0926 0.0661,-0.13229 l 0.13229,-0.0794 q 2.26219,-0.43656 4.85511,0.97896 l 0.11906,0.13229 v 0.15875 l -0.0794,0.14552 -0.15875,0.0529 Q 9.12804,30.18956 6.56158,30.58643 L 6.42929,30.55993 6.31023,30.44087 v -0.15875 l 0.18521,-1.23031 m 0.93927,3.21468 v -0.11906 l 0.0794,-0.10583 q 1.46844,-1.07156 3.81,-0.93927 l 0.13229,0.0529 0.0529,0.11907 v 0.13229 l -0.10583,0.0926 q -1.91823,0.52917 -3.3999,1.83886 l -0.11906,0.0265 -0.11906,-0.0397 -0.0529,-0.10584 -0.27781,-0.9525 m 18.99708,0 -0.27781,0.9525 -0.0529,0.10584 -0.11906,0.0397 -0.11906,-0.0265 q -1.48167,-1.30969 -3.3999,-1.83886 l -0.10583,-0.0926 V 31.2743 l 0.0529,-0.11907 0.13229,-0.0529 q 2.34157,-0.13229 3.81,0.93927 l 0.0794,0.10583 v 0.11906 m 0.93927,-3.21468 0.18521,1.23031 v 0.15875 l -0.11906,0.11906 -0.1323,0.0265 q -2.56645,-0.39687 -4.86833,-0.27781 l -0.15875,-0.0529 q -0.0794,-0.0661 -0.0794,-0.14552 v -0.15875 q 0.0397,-0.0794 0.11906,-0.13229 2.59292,-1.41552 4.8551,-0.97896 l 0.13229,0.0794 0.0661,0.13229"
       id="path252"
       style="stroke-width:0.264583" />
  </g>
</svg>
