<?xml version="1.0" encoding="UTF-8" standalone="no"?>
<!-- Created with Inkscape (http://www.inkscape.org/) -->

<svg
   width="16.934029"
   height="15.835312"
   viewBox="0 0 16.934029 15.835312"
   version="1.1"
   id="svg328"
   inkscape:version="1.2.2 (b0a8486541, 2022-12-01)"
   sodipodi:docname="star.svg"
   xmlns:inkscape="http://www.inkscape.org/namespaces/inkscape"
   xmlns:sodipodi="http://sodipodi.sourceforge.net/DTD/sodipodi-0.dtd"
   xmlns="http://www.w3.org/2000/svg"
   xmlns:svg="http://www.w3.org/2000/svg">
  <sodipodi:namedview
     id="namedview330"
     pagecolor="#ffffff"
     bordercolor="#000000"
     borderopacity="0.25"
     inkscape:showpageshadow="2"
     inkscape:pageopacity="0.0"
     inkscape:pagecheckerboard="0"
     inkscape:deskcolor="#d1d1d1"
     inkscape:document-units="mm"
     showgrid="false"
     inkscape:zoom="0.2102413"
     inkscape:cx="401.91912"
     inkscape:cy="563.63806"
     inkscape:window-width="1803"
     inkscape:window-height="1117"
     inkscape:window-x="0"
     inkscape:window-y="0"
     inkscape:window-maximized="1"
     inkscape:current-layer="layer1" />
  <defs
     id="defs325">
    <linearGradient
       gradientUnits="userSpaceOnUse"
       x1="-819.20001"
       x2="819.20001"
       spreadMethod="pad"
       gradientTransform="matrix(0,0.02075195,-0.01672363,0,31.75,18.75)"
       id="gradient0">
      <stop
         offset="0"
         stop-color="#FFEA9C"
         id="stop2" />
      <stop
         offset="1"
         stop-color="#FFCC00"
         id="stop4" />
    </linearGradient>
    <linearGradient
       gradientUnits="userSpaceOnUse"
       x1="-819.20001"
       x2="819.20001"
       spreadMethod="pad"
       gradientTransform="matrix(0,0.02114868,-0.01486206,0,31.9,45.25)"
       id="gradient1">
      <stop
         offset="0"
         stop-color="#FFCC00"
         id="stop7" />
      <stop
         offset="1"
         stop-color="#DEA312"
         id="stop9" />
    </linearGradient>
  </defs>
  <g
     inkscape:label="Layer 1"
     inkscape:groupmode="layer"
     id="layer1">
    <g
       id="g22"
       transform="matrix(0.26458333,0,0,0.26458333,6.9627192e-4,0)">
      <path
         stroke="none"
         fill="#b48000"
         d="M 19.6,15.8 28.15,2.05 Q 29,0.75 30.5,0.25 L 32,0 33.55,0.25 Q 35,0.75 35.8,2.1 l 8.5,13.7 16.35,3.85 2,1.05 0.45,0.45 q 0.9,1.15 0.9,2.6 0,1.45 -1,2.55 l -11,12.75 1.3,16.5 q 0.15,1.45 -0.8,2.7 -0.95,1.15 -2.45,1.6 l -2.9,-0.2 -15.15,-6.2 -15.15,6.2 -3,0.2 Q 12.3,59.4 11.4,58.25 10.5,57 10.65,55.55 L 11.9,39.05 1,26.3 Q 0,25.2 0,23.75 -0.05,22.3 0.85,21.15 1.8,20 3.3,19.65 L 19.6,15.8 M 60,20.65 59.75,20.55 43.4,16.7 Q 41.8,16.3 40.9,14.95 V 14.9 L 32.55,1.45 32.35,1.15 32.25,1.05 H 32 31.8 Q 31.6,1.1 31.5,1.25 L 23,14.9 v 0.05 Q 22.1,16.3 20.55,16.7 H 20.5 L 4.2,20.55 4,20.65 4.05,20.7 14.95,33.45 Q 16,34.7 15.9,36.35 L 14.65,52.8 v 0.05 l 0.2,0.1 h 0.55 l 0.1,-0.05 15,-6.15 1.5,-0.3 1.55,0.3 H 33.5 l 15.1,6.2 h 0.05 L 48.95,53 49.3,52.8 V 52.75 L 48,36.35 q -0.15,-1.65 0.95,-2.9 l 11,-12.7 V 20.7 H 60 v -0.05 l 0.05,0.05 V 20.6 L 60,20.65"
         id="path14" />
      <path
         stroke="none"
         fill="url(#gradient0)"
         d="m 60,20.65 v 0.05 h -0.05 v 0.05 L 32,28.45 4.05,20.7 4,20.65 4.2,20.55 20.5,16.7 h 0.05 Q 22.1,16.3 23,14.95 V 14.9 L 31.5,1.25 q 0.1,-0.15 0.3,-0.2 h 0.2 0.25 l 0.1,0.1 0.2,0.3 8.35,13.45 v 0.05 q 0.9,1.35 2.5,1.75 l 16.35,3.85 0.25,0.1"
         id="path16"
         style="fill:url(#gradient0)" />
      <path
         stroke="none"
         fill="#ffcc00"
         d="m 60,20.65 0.05,-0.05 v 0.1 L 60,20.65 m -0.05,0.1 -11,12.7 q -1.1,1.25 -0.95,2.9 l 1.3,16.4 V 52.8 L 32,28.45 14.65,52.8 15.9,36.35 Q 16,34.7 14.95,33.45 L 4.05,20.7 32,28.45 59.95,20.75"
         id="path18" />
      <path
         stroke="none"
         fill="url(#gradient1)"
         d="M 49.3,52.8 48.95,53 48.65,52.95 H 48.6 l -15.1,-6.2 h 0.05 l -1.55,-0.3 -1.5,0.3 -15,6.15 -0.1,0.05 h -0.55 l -0.2,-0.1 V 52.8 L 32,28.45 49.3,52.8"
         id="path20"
         style="fill:url(#gradient1)" />
    </g>
  </g>
</svg>
