<?xml version="1.0" encoding="UTF-8" standalone="no"?>
<!-- Created with Inkscape (http://www.inkscape.org/) -->

<svg
   width="38.438766"
   height="42.750317"
   viewBox="0 0 38.438766 42.750317"
   version="1.1"
   id="svg6073"
   inkscape:version="1.2.2 (b0a8486541, 2022-12-01)"
   sodipodi:docname="whale.svg"
   xmlns:inkscape="http://www.inkscape.org/namespaces/inkscape"
   xmlns:sodipodi="http://sodipodi.sourceforge.net/DTD/sodipodi-0.dtd"
   xmlns="http://www.w3.org/2000/svg"
   xmlns:svg="http://www.w3.org/2000/svg">
  <sodipodi:namedview
     id="namedview6075"
     pagecolor="#ffffff"
     bordercolor="#000000"
     borderopacity="0.25"
     inkscape:showpageshadow="2"
     inkscape:pageopacity="0.0"
     inkscape:pagecheckerboard="0"
     inkscape:deskcolor="#d1d1d1"
     inkscape:document-units="mm"
     showgrid="false"
     inkscape:zoom="2.9778485"
     inkscape:cx="-32.070134"
     inkscape:cy="146.91815"
     inkscape:window-width="1803"
     inkscape:window-height="1117"
     inkscape:window-x="0"
     inkscape:window-y="0"
     inkscape:window-maximized="1"
     inkscape:current-layer="layer1" />
  <defs
     id="defs6070" />
  <g
     inkscape:label="Layer 1"
     inkscape:groupmode="layer"
     id="layer1">
    <path
       stroke="none"
       fill="#233b43"
       d="m 37.365933,24.693218 v 0.105834 0.05292 0.119063 l -0.0265,0.47625 v 0.05292 l -0.0132,0.105834 v 0.07937 l -0.0265,0.343958 v 0.01323 q -0.26459,3.214688 -1.56104,6.006042 1.79916,2.129896 2.42093,4.484687 l 0.0132,0.01323 q 0.37042,1.402292 0.2249,2.513542 -0.18521,1.481667 -1.1774,2.473854 l -0.75406,0.595313 -0.0529,0.02646 -0.23812,0.132292 q -1.53459,0.820208 -3.92906,0.185208 -2.06375,-0.542396 -3.95553,-2.010833 l 0.0132,0.01323 -0.15875,-0.119063 q -4.10104,2.38125 -9.16781,2.38125 -4.90802,0 -8.86354,-2.235729 l -0.1984399,0.15875 h -0.0132 q -1.78593,1.296459 -3.70416,1.812396 -2.06375,0.542396 -3.45282,0.01323 h -0.0264 l -0.68792,-0.330729 h -0.0132 l -0.79375,-0.621771 q -1.00542004,-0.992187 -1.17740004,-2.473854 -0.15875,-1.11125 0.2249,-2.513542 V 36.53333 Q 0.84021306,34.403435 2.4144831,32.432289 0.95928306,29.482185 0.66823306,26.06906 l -0.0397,-0.529167 -0.0265,-0.529167 v -0.02646 l -0.0132,-0.291042 V 24.34926 l 0.0132,-0.542396 q 0.18521,-7.276044 5.37104004,-12.461874 3.69094,-3.6909405 8.4269799,-4.8418805 0.50271,-2.01083 1.25677,-3.4925 v 0.0132 q 1.56104,-3.17499998 3.57188,-3.01624998 1.9976,-0.15875 3.57187,3.01624998 0.74083,1.50813 1.27,3.61157 1.5875,0.43656 3.05594,1.17739 2.61937,1.29646 4.8551,3.5321905 4.65667,4.65667 5.29167,10.980207 v 0.01323 l 0.0926,1.455208 v 0.03969 0.515938 0.343958"
       id="path254"
       style="stroke-width:0.264583" />
    <path
       stroke="none"
       fill="#c3dce9"
       d="M 10.008023,39.218843 Q 8.5660431,38.332489 7.2563531,37.128635 l -0.5424,-0.529167 q -1.05833,-1.058333 -1.87854,-2.196041 l -0.34396,-0.48948 -0.8202,-1.349375 q -1.65365,-3.01625 -1.95792,-6.588125 v -0.02646 l -0.0265,-0.463021 -0.0265,-0.529166 v -0.02646 -0.03969 l 0.0529,0.03969 0.10583,0.05292 0.15875,0.0926 0.15875,0.0926 q 6.97177,3.981979 16.8407299,3.981979 9.86896,0 16.84073,-3.981979 l 0.33073,-0.185208 0.10583,-0.05292 0.0529,-0.02646 -0.0265,0.47625 -0.0132,0.224896 -0.0265,0.343958 q -0.27781,3.386667 -1.7727,6.283854 l -0.78053,1.362604 -0.21166,0.3175 q -0.96573,1.402292 -2.24896,2.685521 l -0.52917,0.515938 q -1.17739,1.09802 -2.46062,1.931458 -4.08781,2.632604 -9.26042,2.632604 -5.00062,0 -8.96937,-2.460625"
       id="path256"
       style="stroke-width:0.264583" />
    <path
       stroke="none"
       fill="#d5f0ff"
       d="m 1.7133331,23.87301 0.10583,0.05292 0.15875,0.0926 0.15875,0.0926 q 6.97177,3.981979 16.8407299,3.981979 9.86896,0 16.84073,-3.981979 l 0.33073,-0.185208 0.10583,-0.05292 0.0529,-0.03969 v 0.515938 0.343958 0.105834 0.105833 l -0.0529,0.02646 -0.10583,0.05292 -0.33073,0.185208 q -6.97177,3.981979 -16.84073,3.981979 -9.8689599,0 -16.8407299,-3.981979 l -0.15875,-0.0926 -0.15875,-0.0926 -0.10583,-0.05292 -0.0529,-0.03969 v 0.03969 l -0.0132,-0.238125 V 24.34926 l 0.0132,-0.515938 0.0529,0.03969"
       id="path258"
       style="stroke-width:0.264583" />
    <path
       stroke="none"
       fill="#365a66"
       d="m 1.7133331,23.87301 q 0.48948,-6.20448 5.00062,-10.72885 3.7173999,-3.7041705 8.5592699,-4.6963605 l 0.635,-0.11906 3.06917,-0.25135 q 1.86531,0 3.58511,0.34395 l 0.62177,0.1323 q 1.81239,0.43656 3.46604,1.25677 2.47385,1.2303105 4.57729,3.3337505 4.39208,4.39208 4.9874,10.345204 l 0.0397,0.383646 -0.10583,0.05292 -0.33073,0.185208 q -6.97177,3.981979 -16.84073,3.981979 -9.8689599,0 -16.8407299,-3.981979 l -0.15875,-0.0926 -0.15875,-0.0926 -0.10583,-0.05292"
       id="path260"
       style="stroke-width:0.264583" />
    <path
       stroke="none"
       fill="#48798a"
       d="m 1.7133331,23.87301 -0.0529,-0.03969 q 0.17198,-6.85271 5.05354,-11.7475 3.7173999,-3.7041705 8.5592699,-4.6963505 l 0.27782,-0.0529 0.35718,-0.0662 3.06917,-0.25135 q 1.86531,0 3.58511,0.34396 l 0.34395,0.0794 0.27782,0.0529 q 1.81239,0.43656 3.46604,1.25677 2.47385,1.23031 4.57729,3.3337505 4.39208,4.39208 4.9874,10.345209 l 0.0926,1.402291 -0.0529,0.03969 -0.0397,-0.383646 q -0.59532,-5.953124 -4.9874,-10.345204 -2.10344,-2.10344 -4.57729,-3.3337505 -1.65365,-0.82021 -3.46604,-1.25677 l -0.62177,-0.1323 q -1.7198,-0.34395 -3.58511,-0.34395 l -3.06917,0.25135 -0.635,0.11906 q -4.84187,0.99219 -8.5592699,4.6963605 -4.51114,4.52437 -5.00062,10.72885"
       id="path262"
       style="stroke-width:0.264583" />
    <path
       stroke="none"
       fill="#39606d"
       d="m 34.468753,32.233843 0.34395,0.370417 q 1.73302,1.997604 2.32834,4.206875 0.3175,1.190625 0.19843,2.116666 -0.13229,1.11125 -0.87312,1.852084 -0.27781,0.277812 -0.59531,0.463021 0.55562,-0.939271 0.4101,-2.315105 l -0.19844,-1.058333 q -0.54239,-1.997604 -2.02406,-3.823229 l -0.37042,-0.449792 0.78053,-1.362604 m -31.9087499,9.009063 -0.59532,-0.463021 q -0.74083,-0.740834 -0.87312,-1.852084 -0.11906004,-0.926041 0.19844,-2.116666 0.54239,-1.997604 2.03729,-3.836458 l 0.34396,-0.410105 0.8202,1.349375 -0.38364,0.463021 q -1.27,1.680104 -1.75948,3.4925 -0.14552,0.555625 -0.19844,1.058333 -0.14552,1.362605 0.41011,2.315105 M 22.906453,7.4423895 q -0.44979,-1.65365 -1.05833,-2.89719 -1.20385,-2.42094 -2.61937,-2.42094 -1.42875,0 -2.63261,2.42094 -0.60854,1.20385 -1.0451,2.79135 l -0.27782,0.0529 q 0.51594,-2.28865 1.32292,-3.90261 1.20386,-2.42093 2.63261,-2.42093 1.41552,0 2.61937,2.42093 0.80698,1.64042 1.33615,4.00844 l -0.27782,-0.0529"
       id="path264"
       style="stroke-width:0.264583" />
    <path
       stroke="none"
       fill="#2f4e58"
       d="m 22.906453,7.4423895 -0.34395,-0.0794 q -1.7198,-0.34396 -3.58511,-0.34396 l -3.06917,0.25136 -0.35718,0.0661 q 0.43656,-1.5875 1.0451,-2.79135 1.20386,-2.42094 2.63261,-2.42094 1.41552,0 2.61937,2.42094 0.60854,1.24354 1.05833,2.89719 m 12.96459,33.8005165 -0.17198,0.0926 q -1.24354,0.621771 -3.18823,0.105833 -1.86531,-0.489479 -3.57188,-1.812396 l -0.5027,-0.410104 -0.19844,-0.171979 q 1.28323,-0.833438 2.46062,-1.931458 l 0.52917,-0.515938 q 1.28323,-1.283229 2.24896,-2.685521 l 0.21166,-0.3175 0.37042,0.449792 q 1.48167,1.825625 2.02406,3.823229 l 0.19844,1.058333 q 0.14552,1.375834 -0.4101,2.315105 m -25.86302,-2.024063 -0.2248999,0.185208 -0.50271,0.396875 q -1.61396,1.177396 -3.36021,1.640417 -1.69333,0.449792 -2.84427,0.03969 -0.27781,-0.0926 -0.51593,-0.238125 -0.55563,-0.9525 -0.41011,-2.315105 0.0529,-0.502708 0.19844,-1.058333 0.48948,-1.812396 1.75948,-3.4925 l 0.38364,-0.463021 0.34396,0.48948 q 0.82021,1.137708 1.87854,2.196041 l 0.5424,0.529167 q 1.30969,1.203854 2.7516699,2.090208"
       id="path266"
       style="stroke-width:0.264583" />
    <path
       stroke="none"
       fill="#ffffff"
       d="m 29.587183,21.134573 q -0.74083,0.727604 -1.78593,0.727604 -1.05834,0 -1.79917,-0.740834 -0.72761,-0.727604 -0.74083,-1.799166 0,-1.031875 0.74083,-1.759477 0.74083,-0.75406 1.78594,-0.76729 1.05833,0.0265 1.78593,0.75406 0.74084,0.740832 0.75407,1.785936 0,1.045104 -0.74084,1.799167 m -1.15093,-0.47625 q 0.47625,-0.47625 0.47625,-1.11125 0,-0.674688 -0.46303,-1.137709 -0.46302,-0.463024 -1.1377,-0.463024 -0.64823,-0.0132 -1.12448,0.463024 l -0.10584,0.105834 q -0.35718,0.423333 -0.34395,0.992187 0.0132,0.674688 0.47625,1.137708 0.46302,0.463021 1.12447,0.463021 0.55563,0 0.97896,-0.343958 l 0.11907,-0.105833"
       id="path268"
       style="stroke-width:0.264583" />
    <path
       stroke="none"
       fill="#5b5b5b"
       d="m 28.436253,20.658323 -0.11907,0.105833 q -0.42333,0.343958 -0.97896,0.343958 -0.66145,0 -1.12447,-0.463021 -0.46303,-0.46302 -0.47625,-1.137708 -0.0132,-0.568854 0.34395,-0.992187 l 0.10584,-0.105834 q 0.47625,-0.476254 1.12448,-0.463024 0.67468,0 1.1377,0.463024 0.46303,0.463021 0.46303,1.137709 0,0.635 -0.47625,1.11125"
       id="path270"
       style="stroke-width:0.264583" />
    <path
       stroke="none"
       fill="#c3dce9"
       d="m 30.182503,16.50436 q 1.87854,1.931463 2.47385,4.021671 0.56885,2.116666 -0.48948,3.175 -1.08479,1.084791 -3.18823,0.502708 -2.11667,-0.568854 -4.02167,-2.487083 l -0.0529,-0.0926 q -1.04511,-1.031875 -1.04511,-2.526771 0.0132,-1.521355 1.07157,-2.592915 1.08479,-1.08479 2.61937,-1.08479 1.46844,0.0132 2.52677,1.00541 l 0.10584,0.0794 m -0.59532,4.630212 q 0.74084,-0.754063 0.74084,-1.799167 -0.0132,-1.045104 -0.75407,-1.785935 -0.7276,-0.72761 -1.78593,-0.75406 -1.04511,0.0132 -1.78594,0.76729 -0.74083,0.727601 -0.74083,1.759476 0.0132,1.071562 0.74083,1.799166 0.74083,0.740834 1.79917,0.740834 1.0451,0 1.78593,-0.727604"
       id="path272"
       style="stroke-width:0.264583" />
    <path
       stroke="none"
       fill="#c3dce9"
       d="m 7.7458331,16.50436 0.10583,-0.0794 q 1.05834,-0.99218 2.5267699,-1.00541 1.53459,0 2.61938,1.08479 1.05833,1.07156 1.07156,2.592916 0,1.494896 -1.0451,2.526771 l -0.0529,0.0926 q -1.905,1.918229 -4.0216699,2.487083 -2.10343,0.582083 -3.18823,-0.502708 -1.05833,-1.058334 -0.48948,-3.175 0.59532,-2.090208 2.47386,-4.021662 m 0.59531,4.630204 q 0.74083,0.727604 1.7859399,0.727604 1.05833,0 1.79917,-0.740834 0.7276,-0.727604 0.74083,-1.799166 0,-1.031875 -0.74083,-1.759478 -0.74084,-0.75406 -1.78594,-0.76729 -1.0583399,0.0265 -1.7859399,0.75406 -0.74083,0.740833 -0.75406,1.785937 0,1.045104 0.74083,1.799167"
       id="path274"
       style="stroke-width:0.264583" />
    <path
       stroke="none"
       fill="#ffffff"
       d="m 8.3411431,21.134573 q -0.74083,-0.754063 -0.74083,-1.799167 0.0132,-1.045104 0.75406,-1.785936 0.7276,-0.72761 1.7859399,-0.75406 1.0451,0.0132 1.78594,0.76729 0.74083,0.727602 0.74083,1.759477 -0.0132,1.071562 -0.74083,1.799166 -0.74084,0.740834 -1.79917,0.740834 -1.0451099,0 -1.7859399,-0.727604 m 1.15094,-0.47625 0.11906,0.105833 q 0.4233299,0.343958 0.9789599,0.343958 0.66146,0 1.12448,-0.463021 0.46302,-0.46302 0.47625,-1.137708 0.0132,-0.568854 -0.34396,-0.992187 l -0.10583,-0.105834 q -0.47625,-0.476254 -1.12448,-0.463024 -0.6746899,0 -1.1377099,0.463024 -0.46302,0.463021 -0.46302,1.137709 0,0.635 0.47625,1.11125"
       id="path276"
       style="stroke-width:0.264583" />
    <path
       stroke="none"
       fill="#5b5b5b"
       d="m 9.4920831,20.658323 q -0.47625,-0.47625 -0.47625,-1.11125 0,-0.674688 0.46302,-1.137709 0.46302,-0.463024 1.1377099,-0.463024 0.64823,-0.0132 1.12448,0.463024 l 0.10583,0.105834 q 0.35719,0.423333 0.34396,0.992187 -0.0132,0.674688 -0.47625,1.137708 -0.46302,0.463021 -1.12448,0.463021 -0.55563,0 -0.9789599,-0.343958 l -0.11906,-0.105833"
       id="path278"
       style="stroke-width:0.264583" />
  </g>
</svg>
