<?xml version="1.0" encoding="UTF-8" standalone="no"?>
<!-- Created with Inkscape (http://www.inkscape.org/) -->

<svg
   width="35.98304"
   height="43.525955"
   viewBox="0 0 35.98304 43.525955"
   version="1.1"
   id="svg6472"
   inkscape:version="1.2.2 (b0a8486541, 2022-12-01)"
   sodipodi:docname="wolf-talk.svg"
   xmlns:inkscape="http://www.inkscape.org/namespaces/inkscape"
   xmlns:sodipodi="http://sodipodi.sourceforge.net/DTD/sodipodi-0.dtd"
   xmlns="http://www.w3.org/2000/svg"
   xmlns:svg="http://www.w3.org/2000/svg">
  <sodipodi:namedview
     id="namedview6474"
     pagecolor="#ffffff"
     bordercolor="#000000"
     borderopacity="0.25"
     inkscape:showpageshadow="2"
     inkscape:pageopacity="0.0"
     inkscape:pagecheckerboard="0"
     inkscape:deskcolor="#d1d1d1"
     inkscape:document-units="mm"
     showgrid="false"
     inkscape:zoom="6.2259021"
     inkscape:cx="8.7537515"
     inkscape:cy="37.986463"
     inkscape:window-width="1803"
     inkscape:window-height="1117"
     inkscape:window-x="0"
     inkscape:window-y="0"
     inkscape:window-maximized="1"
     inkscape:current-layer="layer1" />
  <defs
     id="defs6469" />
  <g
     inkscape:label="Layer 1"
     inkscape:groupmode="layer"
     id="layer1">
    <path
       stroke="none"
       fill="#747070"
       d="M 2.19571,10.611816 Q 2.07665,5.8625457 3.87582,1.1265057 l 0.0132,-0.0132 Q 4.11391,0.50476565 4.696,0.21372565 l 0.0132,-0.0132 q 0.62177,-0.3175 1.24354,-0.13229 h -0.0132 q 0.635,0.15875 1.00541,0.74083 v -0.0132 L 11.9985,8.5216957 q 2.79135,-0.97895 5.99281,-0.97895 3.20146,0 6.00604,0.97895 l 5.04031,-7.72583005 v 0.0132 q 0.37042,-0.58208 1.01865,-0.74083 h -0.0132 q 0.60854,-0.18521 1.23031,0.13229 l 0.0265,0.0132 q 0.56885,0.29104 0.80698,0.89958005 v 0.0132 q 1.79917,4.73604 1.6801,9.4853103 -0.0661,2.55323 -0.66146,5.10646 2.8575,4.29948 2.8575,9.81604 v 0.52917 0.0397 q -0.13229,4.27302 -2.01083,7.83166 -0.55562,1.03188 -1.25677,2.01084 l -0.0794,0.0926 -0.0132,0.0397 -0.0397,0.0529 q -0.84667,1.09802 -1.86531,2.12989 l -1.29646,1.19063 -0.0132,0.0132 -1.1774,0.89958 q -4.47146,3.16177 -10.23937,3.16177 -5.78115,0 -10.23938,-3.14854 v -0.0132 q -0.59531,-0.42333 -1.15093,-0.87313 l -1.33615,-1.23031 q -1.0451,-1.0451 -1.85208,-2.14312 -0.91282,-1.20386 -1.54782,-2.48709 l -0.0661,-0.14552 -1.46844,-4.41854 -0.0529,-0.30427 v -0.0265 l -0.0132,-0.0529 -0.0529,-0.27781 v -0.0397 l -0.0132,-0.0529 v -0.0529 l -0.0132,-0.0529 -0.0397,-0.39687 -0.0265,-0.13229 v -0.0794 l -0.0132,-0.0926 v -0.0132 l -0.0132,-0.0661 v -0.0265 -0.0132 L 0.0793,27.280626 0.0661,27.135106 0.0529,26.989586 0.0132,26.116466 0,25.534376 q 0,-5.50333 2.87073,-9.80281 -0.60854,-2.56646 -0.67469,-5.11969"
       id="path648"
       style="stroke-width:0.264583" />
    <path
       stroke="none"
       fill="#958f8f"
       d="M 3.25405,10.585356 Q 3.35988,6.5769257 4.868,2.5552557 q 0.0926,-0.23812 0.3175,-0.35719 l 0.47625,-0.0529 q 0.25136,0.0661 0.39688,0.29104 l 5.27844,8.0962503 -0.30427,0.48948 -3.21469,-3.5586503 q -0.10584,-0.10583 -0.27781,-0.0661 -0.17198,0.0265 -0.33073,0.17197 -0.15875,0.14553 -0.21167,0.34396 -1.905,5.8340703 -0.59531,10.2922903 l -0.34396,0.5424 q -0.13229,0.21167 -0.38365,0.29104 L 5.1855,18.985946 Q 4.96061,18.866876 4.868,18.628756 3.35988,14.607086 3.25405,10.585416 m 21.39156,-0.0529 5.27844,-8.0962503 q 0.14552,-0.2249 0.39687,-0.29104 l 0.47625,0.0529 q 0.2249,0.11907 0.3175,0.35719 1.50813,4.02167 1.61396,8.0301003 -0.10583,4.02167 -1.61396,8.04334 -0.0926,0.23812 -0.3175,0.35719 l -0.48948,0.0529 q -0.25135,-0.0794 -0.38364,-0.29104 l -0.34396,-0.5424 q 1.30969,-4.45822 -0.59531,-10.2922903 -0.0529,-0.19843 -0.21167,-0.34396 -0.15875,-0.14552 -0.33073,-0.17197 -0.17198,-0.0397 -0.27781,0.0661 l -3.21469,3.5586503 -0.30427,-0.48948"
       id="path650"
       style="stroke-width:0.264583" />
    <path
       stroke="none"
       fill="#b1a9a9"
       d="m 24.64561,10.532446 -0.11906,-0.18521 q -0.10584,-0.15875 -0.10584,-0.3571903 0,-0.19844 0.10584,-0.35719 l 5.3975,-8.25499 q 0.14552,-0.2249 0.39687,-0.29105 l 0.47625,0.0529 q 0.2249,0.11906 0.3175,0.35719 1.71979,4.5376 1.61396,9.0884303 -0.10583,-4.0084303 -1.61396,-8.0301003 -0.0926,-0.23812 -0.3175,-0.35719 l -0.47625,-0.0529 q -0.25135,0.0661 -0.39687,0.29104 l -5.27844,8.0962503 m -13.30854,0 -5.27844,-8.0962503 q -0.14552,-0.2249 -0.39688,-0.29104 l -0.47625,0.0529 Q 4.96061,2.3171157 4.868,2.5552357 3.35988,6.5769057 3.25405,10.585336 3.14821,6.0345057 4.868,1.4969057 q 0.0926,-0.23813 0.3175,-0.35719 l 0.47625,-0.0529 q 0.25136,0.0661 0.39688,0.29105 l 5.3975,8.25499 q 0.10583,0.15875 0.10583,0.35719 0,0.1984403 -0.10583,0.3571903 l -0.11906,0.18521"
       id="path652"
       style="stroke-width:0.264583" />
    <path
       stroke="none"
       fill="#d2d0d0"
       d="M 6.40259,18.205356 Q 5.0929,13.747136 6.9979,7.9130657 q 0.0529,-0.19843 0.21167,-0.34396 0.15875,-0.14552 0.33073,-0.17197 0.17197,-0.0397 0.27781,0.0661 l 3.21469,3.5586503 -4.63021,7.18343 m 18.54729,-7.18343 3.21469,-3.5586503 q 0.10583,-0.10583 0.27781,-0.0661 0.17198,0.0265 0.33073,0.17197 0.15875,0.14553 0.21167,0.34396 1.905,5.8340703 0.59531,10.2922903 l -4.63021,-7.18343"
       id="path654"
       style="stroke-width:0.264583" />
    <path
       stroke="none"
       fill="#b1a9a9"
       d="m 1.07123,26.063486 -0.0132,-0.52917 q 0,-7.02468 4.96094,-11.97239 1.12448,-1.12448 2.34156,-1.98438 l 0.93927,-0.60854 q 3.86292,-2.3680203 8.69157,-2.3680203 4.84187,0 8.70479,2.3547903 l 0.92604,0.60854 q 1.23031,0.87313 2.35479,1.99761 4.94771,4.94771 4.94771,11.97239 v 0.52917 q -0.18521,-6.68073 -4.94771,-11.44323 -1.16416,-1.16417 -2.43416,-2.05052 -0.74084,-0.51594 -1.52136,-0.93927 l -0.83344,0.66146 q -2.97656,2.12989 -7.19666,2.12989 -4.22011,0 -7.2099,-2.12989 l -0.82021,-0.64823 q -0.78052,0.42333 -1.52135,0.93927 -1.27,0.88635 -2.42094,2.03729 -4.77573,4.7625 -4.94771,11.44323"
       id="path656"
       style="stroke-width:0.264583" />
    <path
       stroke="none"
       fill="#9f9898"
       d="m 34.92467,26.063486 q -0.11906,4.02167 -1.89177,7.36865 -0.51594,0.97895 -1.1774,1.89177 h -0.0132 l -0.10584,0.15875 q -0.43656,-3.33375 -4.04812,-4.55084 3.43958,-0.80698 4.98739,-4.19364 1.54782,-3.41313 -1.08479,-7.60677 -2.64583,-4.19365 -6.77333,-2.10344 -4.14073,2.07698 -4.40531,9.53823 h -4.84188 q -0.26458,-7.46125 -4.40531,-9.53823 -4.1275,-2.09021 -6.77333,2.10344 -2.63261,4.19364 -1.0848,7.60677 1.54782,3.38666 4.9874,4.19364 -3.61156,1.21709 -4.0349,4.55084 -0.84666,-1.12448 -1.4552,-2.32834 l -1.46844,-4.41854 v -0.0529 l -0.0529,-0.29104 -0.0132,-0.0661 -0.0132,-0.13229 -0.0265,-0.14553 -0.0397,-0.33072 v -0.0529 l -0.0265,-0.15875 v -0.0661 l -0.0132,-0.0529 v -0.0661 l -0.0132,-0.0794 -0.0132,-0.17198 v -0.0661 l -0.0132,-0.0794 -0.0397,-0.8599 q 0.17198,-6.68073 4.94771,-11.44323 1.15093,-1.15094 2.42093,-2.03729 0.74084,-0.51594 1.52136,-0.93927 l 0.82021,0.64823 q 2.98978,2.12989 7.20989,2.12989 4.2201,0 7.19666,-2.12989 l 0.83344,-0.66146 q 0.78052,0.42333 1.52136,0.93927 1.27,0.88635 2.43416,2.05052 4.7625,4.7625 4.94771,11.44323"
       id="path658"
       style="stroke-width:0.264583" />
    <path
       stroke="none"
       fill="#d2d0d0"
       d="m 31.73644,35.482656 q -0.79375,1.0451 -1.77271,2.02406 l -1.23031,1.13771 -1.11125,0.84666 q -4.20687,2.97657 -9.63083,2.97657 -5.43719,0 -9.63084,-2.96334 -0.55562,-0.39687 -1.08479,-0.83343 l -1.27,-1.16417 q -0.97896,-0.97896 -1.74625,-2.02406 0.42334,-3.33375 4.0349,-4.55084 -3.43958,-0.80698 -4.9874,-4.19364 -1.54781,-3.41313 1.08479,-7.60677 2.64584,-4.19365 6.77334,-2.10344 4.14073,2.07698 4.40531,9.53823 h 4.84188 q 0.26458,-7.46125 4.40531,-9.53823 4.1275,-2.09021 6.77333,2.10344 2.63261,4.19364 1.08479,7.60677 -1.54781,3.38666 -4.98739,4.19364 3.61156,1.21709 4.04812,4.55084"
       id="path660"
       style="stroke-width:0.264583" />
    <path
       stroke="none"
       fill="#383838"
       d="m 19.16873,30.548176 0.2249,0.26458 0.5424,0.39688 c 0.24694,0.114647 0.51593,0.17197 0.80697,0.17197 0.529167,0 0.98337,-0.189617 1.36261,-0.56885 l 0.33073,-0.43656 0.13229,-0.11906 0.18521,0.0132 1.24354,0.64823 0.11906,0.1323 -0.0132,0.17197 -0.39687,0.60855 -0.27781,0.30427 c -2.16577,2.199141 -2.222777,5.884643 -5.43722,5.9206 -3.089695,-0.03697 -2.807066,-3.711579 -5.43721,-5.9206 l -0.27781,-0.30427 -0.39688,-0.58209 c -0.03527,-0.06173 -0.03967,-0.11906 -0.0132,-0.17198 0.0088,-0.06173 0.04408,-0.11024 0.10584,-0.14552 l 1.21708,-0.67468 0.17198,-0.0265 0.14552,0.11906 0.35719,0.46302 c 0.379233,0.379233 0.833433,0.56885 1.3626,0.56885 0.29104,0 0.564443,-0.05732 0.82021,-0.17197 0.194027,-0.09702 0.374827,-0.229313 0.5424,-0.39688 l 0.22489,-0.26458 c 0.820207,0.30868 1.605137,0.30868 2.35479,0"
       id="path662"
       style="stroke-width:0.264583"
       sodipodi:nodetypes="cccscccccccccccccccccccscccc" />
    <path
       stroke="none"
       fill="#545454"
       d="m 14.59144,27.902336 -0.0529,-0.62177 v -0.23812 q 0.0794,-0.635 1.00541,-1.08479 1.01865,-0.48948 2.4474,-0.48948 1.42875,0 2.44739,0.48948 0.91282,0.44979 1.00542,1.08479 v 0.23812 l -0.0529,0.62177 q -0.1852,-0.5027 -0.9525,-0.88635 -1.01864,-0.48948 -2.44739,-0.48948 -1.42875,0 -2.4474,0.48948 -0.76729,0.37042 -0.9525,0.88635"
       id="path664"
       style="stroke-width:0.264583" />
    <path
       stroke="none"
       fill="#464646"
       d="m 14.59144,27.902336 q 0.18521,-0.51593 0.9525,-0.88635 1.01865,-0.48948 2.4474,-0.48948 1.42875,0 2.44739,0.48948 0.7673,0.38365 0.9525,0.88635 -0.17198,1.04511 -0.9525,1.82563 -0.56885,0.56885 -1.27,0.82021 -1.12448,0.46302 -2.35479,0 -0.70114,-0.25136 -1.27,-0.82021 -0.78052,-0.78052 -0.9525,-1.82563"
       id="path666"
       style="stroke-width:0.264583" />
    <path
       stroke="none"
       fill="#5b5b5b"
       d="m 6.93176,24.475986 q 0.0265,-0.62177 0.67468,-1.07156 0.66146,-0.44979 1.62719,-0.44979 0.93927,0 1.61396,0.44979 0.64823,0.44979 0.67469,1.07156 v 0.0794 q -0.0265,0.62178 -0.67469,1.04511 -0.67469,0.46302 -1.61396,0.46302 -0.96573,0 -1.62719,-0.46302 -0.64823,-0.42333 -0.67468,-1.04511 v -0.0794 m 22.10593,0 v 0.0794 q -0.0265,0.62178 -0.66146,1.04511 -0.66145,0.46302 -1.62718,0.46302 -0.93927,0 -1.62719,-0.46302 -0.635,-0.42333 -0.66146,-1.04511 v -0.0794 q 0.0265,-0.62177 0.66146,-1.07156 0.68792,-0.44979 1.62719,-0.44979 0.96573,0 1.62718,0.44979 0.635,0.44979 0.66146,1.07156"
       id="path668"
       style="stroke-width:0.264583" />
    <path
       stroke="none"
       fill="#ffffff"
       d="m 29.03769,24.475986 q -0.0265,-0.62177 -0.66146,-1.07156 -0.66145,-0.44979 -1.62718,-0.44979 -0.93927,0 -1.62719,0.44979 -0.635,0.44979 -0.66146,1.07156 v 0.0794 q 0.0265,0.62178 0.66146,1.04511 0.68792,0.46302 1.62719,0.46302 0.96573,0 1.62718,-0.46302 0.635,-0.42333 0.66146,-1.04511 v -0.0794 m -22.10593,0 v 0.0794 q 0.0265,0.62178 0.67468,1.04511 0.66146,0.46302 1.62719,0.46302 0.93927,0 1.61396,-0.46302 0.64823,-0.42333 0.67469,-1.04511 v -0.0794 q -0.0265,-0.62177 -0.67469,-1.07156 -0.67469,-0.44979 -1.61396,-0.44979 -0.96573,0 -1.62719,0.44979 -0.64823,0.44979 -0.67468,1.07156 m -1.24355,-0.0132 q 0,-1.37583 0.96573,-2.34156 0.96573,-0.96573 2.34156,-0.96573 1.34938,0 2.32834,0.96573 0.96573,0.96573 0.96573,2.34156 0,1.3626 -0.96573,2.3151 -0.97896,0.97896 -2.32834,0.97896 -1.37583,0 -2.34156,-0.97896 -0.96573,-0.9525 -0.96573,-2.3151 m 24.60625,0 q 0,1.3626 -0.96573,2.3151 -0.96573,0.97896 -2.34156,0.97896 -1.34937,0 -2.32833,-0.97896 -0.96573,-0.9525 -0.96573,-2.3151 0,-1.37583 0.96573,-2.34156 0.97896,-0.96573 2.32833,-0.96573 1.37583,0 2.34156,0.96573 0.96573,0.96573 0.96573,2.34156"
       id="path670"
       style="stroke-width:0.264583" />
  </g>
</svg>
